<svg width="310" height="311" viewBox="0 0 310 311" fill="none" xmlns="http://www.w3.org/2000/svg">
<g opacity="0.1" clip-path="url(#clip0)">
<path d="M25.4789 299.689C24.3846 299.173 22.4087 298.413 21.0712 298.018C10.6449 294.765 3.62303 290.601 -3.58119 283.457C-10.755 276.344 -16.1658 268.015 -20.6646 257.072C-21.8501 254.245 -22.3669 253.333 -23.066 252.938C-23.826 252.452 -24.0995 251.844 -25.2242 248.318C-27.6257 240.597 -29.4799 232.632 -30.9086 223.878C-31.3646 221.203 -31.8205 218.893 -31.9421 218.771C-32.0941 218.619 -124.685 178.859 -130.643 176.427C-130.825 176.336 -131.099 177.248 -131.342 178.798C-132.588 186.884 -136.236 196.399 -139.458 200.016C-140.553 201.201 -141.069 201.536 -142.103 201.688C-142.802 201.779 -145.295 202.205 -147.635 202.63C-151.253 203.299 -152.073 203.36 -153.168 203.025C-154.201 202.752 -155.143 202.782 -158.122 203.208C-162.348 203.816 -164.415 203.694 -167.576 202.6C-171.892 201.141 -174.294 199.134 -176.969 194.727C-183.899 183.206 -186.878 167.187 -185.997 145.756C-185.602 135.725 -185.602 134.6 -186.058 129.646C-186.635 123.688 -186.574 113.93 -185.967 109.492C-185.723 107.607 -185.085 104.324 -184.599 102.197C-183.991 99.552 -183.596 96.7858 -183.352 93.4725C-182.44 80.0368 -180.738 72.7718 -176.817 65.6587C-175.783 63.7437 -173.382 59.3056 -171.497 55.7795C-166.573 46.5995 -162.469 39.2432 -158.761 33.0118C-155.934 28.2089 -155.174 27.1754 -152.499 24.47C-147.878 19.7584 -143.045 16.4451 -138.486 14.8948C-136.418 14.1653 -120.065 10.8519 -110.155 9.11928C-93.3756 6.23151 -75.593 3.73891 -53.494 1.21591C-46.229 0.395178 -44.4355 0.303986 -36.3194 0.303986C-9.81269 0.303986 32.3487 3.10056 60.74 6.68747C71.0752 7.99457 76.2124 8.99769 79.4345 10.244C89.1009 14.0741 104.361 22.1598 117.583 30.4888C126.49 36.0819 131.688 39.6384 158.377 58.2417L163.727 62.011L169.472 62.9229C172.603 63.4093 184.64 65.2028 196.161 66.8746C230.45 71.8902 246.53 74.7476 262.306 78.6689C274.83 81.7998 276.897 83.3501 283.858 94.8404C290.242 105.358 293.616 114.447 296.473 128.855L297.294 132.929L299.118 134.6C303.86 139.008 307.112 146.455 309.027 157.459L309.574 160.651L308.45 169.77C307.477 177.826 307.386 179.133 307.659 181.017C308.146 184.118 308.115 196.611 307.629 199.408C306.595 205.153 304.984 209.682 303.252 211.719C302.735 212.297 299.695 214.06 294.832 216.583C287.232 220.534 287.232 220.534 286.655 221.902C284.557 226.857 278.842 231.477 267.869 237.01C262.61 239.654 262.033 240.019 262.428 240.445C262.823 240.87 262.124 241.296 255.558 244.427C251.515 246.311 246.834 248.47 245.132 249.199C239.964 251.418 227.349 256.008 217.895 259.139L208.928 262.118L204.976 266.161L201.025 270.234L198.441 270.994C187.103 274.429 169.472 278.138 156.188 279.931C139.986 282.12 119.559 283.275 105.181 282.849L98.4026 282.636L96.7611 279.232C95.8796 277.378 94.9373 275.341 94.6637 274.733C93.8126 272.666 90.0433 270.629 86.5779 270.325L84.9061 270.204L81.8663 274.855C73.659 287.439 67.2147 294.218 61.4696 296.346C57.6091 297.805 40.3433 300.267 32.6223 300.48L27.4547 300.632L25.4789 299.689V299.689ZM22.5911 289.81C23.5942 289.537 25.4485 288.807 26.6948 288.138C37.2123 282.697 44.2949 268.38 46.1796 248.804C46.6356 244.214 46.362 232.48 45.6932 227.678C42.5015 203.998 33.6254 183.723 20.9496 171.138C13.5022 163.691 4.86932 159.739 -1.63576 160.773C-14.7675 162.901 -24.0995 176.519 -27.3217 198.344C-27.7473 201.171 -27.8385 203.907 -27.8385 210.503C-27.8385 219.47 -27.5649 222.449 -26.0146 230.9C-21.9109 253.455 -10.8766 274.308 2.04236 284.004C9.52016 289.628 16.0252 291.452 22.5911 289.81ZM167.891 257.862C173.576 256.434 178.683 252.543 181.114 247.71C183.151 243.697 183.425 240.505 181.935 237.314C181.175 235.611 178.591 232.693 177.223 231.964C176.585 231.629 176.585 231.629 177.315 232.724C178.348 234.244 178.713 235.581 178.895 238.773C179.169 243.697 177.588 248.105 174.275 251.661C171.995 254.093 169.442 255.795 166.736 256.586C163.666 257.528 159.137 257.346 156.736 256.16C154.638 255.127 153.088 253.394 152.206 251.114C151.203 248.561 151.203 243.545 152.206 240.475C153.118 237.709 155.368 234.274 157.495 232.389L159.076 230.991L157.283 231.751C153.301 233.514 150.352 235.703 145.032 240.84C141.506 244.275 140.99 245.217 141.598 247.254C142.175 249.169 142.905 249.989 145.64 251.783C150.565 255.035 156.918 257.741 160.991 258.349C163.028 258.653 165.338 258.501 167.891 257.862V257.862ZM156.857 244.153C157.86 242.147 158.286 239.442 157.769 238.651C157.374 238.074 156.948 238.408 156.006 240.049C154.942 241.843 154.304 244.488 154.547 246.19L154.76 247.527L155.307 246.798C155.641 246.403 156.31 245.217 156.857 244.153ZM160.748 225.732C166.341 225.489 172.907 225.185 175.339 225.094C180.294 224.881 182.178 224.547 184.154 223.574C185.826 222.723 186.221 222.297 188.866 218.406C193 212.327 197.833 207.19 202.605 203.785C207.651 200.168 207.743 200.107 224.613 195.943C256.257 188.07 269.814 184.209 284.922 178.829C292.461 176.154 303.92 171.564 304.407 171.047C304.589 170.834 305.015 168.342 305.38 165.484L306.018 160.256L305.288 156.669C303.373 146.881 300.546 140.437 296.321 136.333C294.953 134.996 294.801 134.904 295.075 135.664C295.744 137.397 295.5 139.768 294.497 141.531L293.555 143.142L294.193 144.358C294.528 145.027 294.801 145.999 294.801 146.486C294.801 146.972 294.984 147.428 295.196 147.489C295.47 147.58 295.561 148.583 295.561 151.045V154.48L293.281 155.301C292.035 155.787 290.059 156.639 288.874 157.216C274.769 164.329 256.439 168.767 227.319 172.05C224.218 172.415 219.658 173.114 217.135 173.6C211.998 174.604 211.056 174.634 208.867 174.087C205.554 173.205 204.186 172.02 200.508 166.883C194.155 158.006 191.237 154.724 189.17 154.146C188.44 153.964 184.671 153.903 178.713 154.024C158.833 154.389 143.877 152.839 134.241 149.374C131.11 148.249 126.612 145.939 124.028 144.115C122.842 143.264 119.468 140.194 116.58 137.306C111.048 131.743 108.099 129.463 103.388 127.092C98.129 124.448 94.5117 123.323 85.6052 121.469C76.3948 119.554 71.8047 117.639 68.1266 114.204C64.8741 111.164 62.3815 106.847 60.1625 100.525C59.0682 97.4242 58.9466 96.0563 59.7673 96.0563C60.0409 96.0563 63.7798 96.3906 68.0354 96.8162C106.215 100.494 138.254 102.318 170.931 102.653C209.688 103.017 241.575 101.072 273.523 96.3299C276.958 95.8131 279.785 95.3571 279.815 95.3267C280.089 95.0532 276.137 89.9464 274.313 88.2137C271.152 85.2348 268.933 84.2012 261.485 82.347C245.466 78.3649 230.784 75.9027 189.778 70.3399C180.415 69.0936 169.685 67.5738 165.916 66.9962C160.11 66.0843 158.59 65.9627 155.884 66.0843C154.121 66.1755 143.877 66.4187 133.086 66.5706C83.599 67.361 71.7439 67.6346 60.74 68.3945C50.4353 69.0936 42.6839 70.1272 37.3339 71.4647C34.5069 72.1638 30.6464 72.6502 17.0587 74.018C7.84828 74.93 0.036116 75.6899 -0.298257 75.6899C-0.663028 75.6899 -1.1798 75.2644 -1.54457 74.7172L-2.18291 73.7141V74.5348C-2.18291 75.1428 -2.3653 75.4163 -2.85166 75.5075C-5.67863 76.1155 -8.77917 76.3891 -15.1323 76.5106C-23.0356 76.693 -27.1697 76.4195 -33.0972 75.3251C-36.1978 74.778 -37.8392 74.6564 -45.0435 74.6564L-53.4028 74.626L-55.6826 75.6595C-58.4792 76.9666 -60.911 77.1186 -68.7535 76.6322C-75.289 76.2067 -88.9071 74.5652 -90.2446 74.018C-90.9134 73.7141 -91.2781 73.3493 -91.3997 72.7414C-91.7645 71.1911 -91.8253 71.1303 -92.95 71.1303C-93.5276 71.1303 -95.9594 70.9175 -98.3304 70.6743C-100.701 70.4311 -111.948 69.884 -123.317 69.4584C-149.216 68.5161 -148.881 68.5465 -149.793 67.6042C-150.462 66.9658 -150.523 66.6314 -150.523 64.1084C-150.523 61.4639 -150.462 61.1599 -149.125 58.0897C-147.301 53.8949 -144.048 47.4202 -141.86 43.5901C-136.935 35.018 -129.032 24.4092 -126.934 23.5277C-125.931 23.1022 -92.4028 15.6547 -89.4239 15.1684C-83.3748 14.2261 -47.7792 9.14967 -47.1105 9.11928C-46.4721 9.11928 -46.0466 9.42325 -45.3474 10.396C-44.8611 11.0647 -44.4355 11.4295 -44.4355 11.1559C-44.4355 10.7911 -43.858 10.6696 -41.3046 10.5176C-29.024 9.78802 17.7883 9.30166 28.9746 9.78802C35.5101 10.0616 33.8686 9.84882 24.4149 9.14967C3.83581 7.5994 -6.43857 7.08264 -24.0691 6.65707L-38.508 6.2923L-46.5633 7.11304C-51.0014 7.5386 -61.4581 8.54172 -69.8175 9.27126C-95.5338 11.6119 -106.994 12.9494 -120.733 15.2292C-135.598 17.6914 -138.82 18.6033 -143.836 21.8862C-146.055 23.3453 -153.168 29.6984 -152.894 29.9416C-152.833 30.0024 -151.222 29.6984 -149.307 29.3033C-147.392 28.9081 -144.96 28.6041 -143.896 28.5737H-142.012V29.9112C-142.012 31.1271 -142.285 31.6743 -144.535 34.866C-147.726 39.3952 -152.833 47.3898 -158.214 56.2659C-160.493 60.0352 -162.773 63.6525 -163.26 64.3212C-164.627 66.2363 -165.874 66.6922 -170.251 66.8746L-174.051 67.0266L-175.601 70.0664C-178.337 75.4467 -179.674 81.0095 -180.465 90.4023C-180.769 94.0196 -181.255 97.3026 -181.711 99.1264C-182.41 101.862 -183.352 107.364 -183.352 108.671C-183.352 109.158 -183.17 109.036 -182.41 108.124C-178.094 102.896 -171.193 105.571 -166.755 114.143C-164.536 118.459 -163.412 121.651 -159.977 133.506C-156.633 145.088 -155.934 147.124 -154.991 148.188C-154.444 148.796 -143.319 152.626 -98.4216 167.643C-65.8962 178.525 -42.0341 186.641 -41.3654 187.067C-40.7574 187.492 -40.1495 187.735 -40.0583 187.644C-39.9671 187.523 -39.8759 186.763 -39.8759 185.911C-39.8759 185.06 -39.6023 182.051 -39.2679 179.194C-35.8026 149.951 -24.5555 135.026 -3.76359 132.017C0.309686 131.439 3.25826 131.682 8.72982 132.989C36.422 139.707 58.6426 167.521 76.334 217.646L78.5226 223.878L82.7782 224.395C88.2498 225.063 97.4907 225.823 104.057 226.158C111.717 226.553 148.923 226.249 160.748 225.732V225.732ZM-170.008 196.551C-168.853 195.943 -167.09 193.936 -166.238 192.204C-165.539 190.836 -163.594 185.152 -163.594 184.513C-163.594 184.331 -163.989 184.209 -164.475 184.209C-165.296 184.209 -165.448 184.027 -166.482 181.565C-171.467 169.618 -172.896 150.559 -169.795 136.272C-169.369 134.205 -169.278 134.084 -168.458 133.992L-167.576 133.901L-168.974 131.074C-170.525 128.004 -173.26 124.66 -174.841 124.022C-178.124 122.654 -182.106 129.372 -183.778 139.16C-185.389 148.462 -185.176 160.712 -183.2 172.05C-181.103 184.088 -176.665 194.149 -172.44 196.368C-171.102 197.067 -171.072 197.067 -170.008 196.551V196.551ZM255.984 133.141C254.768 132.412 253.582 130.922 253.157 129.615C252.549 127.791 252.944 125.086 254.068 123.444L255.011 122.046L253.491 123.657C251.515 125.755 251.09 127.153 251.88 128.977C252.214 129.676 252.883 130.649 253.43 131.135C254.099 131.773 254.372 132.321 254.372 132.989C254.372 133.901 254.403 133.901 255.619 133.81L256.865 133.688L255.984 133.141V133.141ZM2.98467 67.0266C10.9184 65.9627 20.2505 65.1724 31.6496 64.5644C33.7774 64.4732 35.5101 64.2604 35.5101 64.1084C35.5101 63.7133 33.7166 63.7741 23.351 64.4428C13.5022 65.0812 4.77814 65.7803 1.13043 66.2667C-0.115868 66.4187 -1.36217 66.5706 -1.66615 66.5706C-2.12211 66.5706 -2.15251 66.6618 -1.87893 67.1786C-1.66615 67.5738 -1.33178 67.7562 -1.02781 67.665C-0.754228 67.5738 1.06963 67.3002 2.98467 67.0266V67.0266ZM-39.3591 63.9565C-35.225 63.7133 -31.3646 63.5917 -30.8174 63.6829C-29.4495 63.9261 -29.6015 63.5917 -31.243 62.8621C-32.5805 62.2846 -33.006 62.2542 -39.7543 62.467C-45.469 62.6494 -46.9585 62.619 -47.3537 62.2846C-47.6273 62.0718 -48.296 61.0079 -48.8432 59.9136C-50.1806 57.269 -53.342 54.0773 -55.9866 52.8006L-57.9624 51.8278L-70.2734 51.7366C-77.8424 51.6758 -82.9188 51.767 -83.3748 51.9494C-83.8611 52.1622 -80.1526 52.2534 -71.8237 52.2534L-59.5431 52.2838L-58.2664 53.0437C-56.5945 53.9861 -55.8042 55.0804 -53.7676 59.1232C-51.9741 62.7102 -51.5485 63.2573 -49.9071 63.9565C-48.5696 64.534 -48.448 64.534 -39.3591 63.9565V63.9565ZM100.561 63.8653C100.561 63.7133 100.622 63.4093 100.713 63.1661C100.834 62.8621 99.8921 62.771 95.8492 62.771L90.8336 62.7406L94.5421 63.2877C96.6091 63.5917 98.433 63.8957 98.585 63.9565C99.1625 64.1996 100.561 64.1388 100.561 63.8653V63.8653ZM89.8609 62.4062C89.5569 62.3454 89.0705 62.3454 88.797 62.4062C88.493 62.4974 88.7362 62.5582 89.3137 62.5582C89.8913 62.5582 90.1345 62.4974 89.8609 62.4062ZM112.203 61.4943C111.808 61.4335 111.2 61.4335 110.835 61.4943C110.44 61.5551 110.744 61.6158 111.504 61.6158C112.264 61.6158 112.568 61.5551 112.203 61.4943ZM116.763 61.1903C116.368 61.1295 115.76 61.1295 115.395 61.1903C115 61.2511 115.304 61.3119 116.064 61.3119C116.824 61.3119 117.127 61.2511 116.763 61.1903Z" fill="black"/>
<path d="M27.7586 281.633C12.4687 277.135 1.00881 265.219 -6.07381 246.524C-8.93118 239.016 -11.5454 227.799 -12.7005 218.254C-13.3692 212.874 -13.4604 200.685 -12.8829 196.368C-11.0286 182.537 -5.89144 172.233 2.77186 164.998C4.86929 163.265 5.87241 163.144 8.85137 164.268C23.7158 169.862 35.6316 188.009 42.8966 216.157C44.8116 223.574 45.3588 228.833 45.3892 240.141C45.3892 248.196 45.298 250.658 44.8421 253.516C43.1702 264.185 39.7657 272.605 34.0813 280.205C32.531 282.241 32.3487 282.393 31.3152 282.363C30.6768 282.363 29.0961 282.029 27.7586 281.633V281.633Z" fill="black"/>
<path d="M124.423 309.903C120.745 309.66 113.297 309.265 107.856 308.991C84.9972 307.866 74.2365 306.681 63.7797 304.097L59.3721 303.003L50.7696 304.979L42.1366 306.924L33.0478 302.972C28.0626 300.784 23.9893 298.96 24.0501 298.93C24.0805 298.899 25.0836 299.051 26.2387 299.325C27.8498 299.659 29.4001 299.72 32.6222 299.598C40.0088 299.294 57.0923 296.741 60.5576 295.434C66.2723 293.306 72.5646 286.679 80.9543 273.973C84.3284 268.866 84.2676 268.897 87.3682 269.353C91.2895 269.9 94.7244 271.754 95.5755 273.821C95.8491 274.429 96.7914 276.466 97.673 278.32L99.284 281.694L105.333 281.907C118.617 282.363 139.318 281.177 155.276 279.019C168.56 277.226 186.191 273.517 197.529 270.082L200.113 269.322L204.064 265.249L208.016 261.206L216.983 258.227C232.972 252.938 243.156 248.986 252.244 244.639C255.163 243.211 258.537 241.63 259.722 241.083L261.911 240.08L269.693 245.46C277.14 250.628 277.505 250.932 278.265 252.512C279.177 254.336 279.177 256.008 278.234 258.835C277.778 260.264 277.505 260.507 274.04 263C243.216 284.886 212.88 298.534 180.446 305.161C161.873 308.961 139.804 310.815 124.423 309.903V309.903Z" fill="white"/>
<path d="M14.0797 291.087C2.37659 288.746 -8.8097 278.046 -17.2602 261.115C-22.8534 249.868 -26.2579 238.256 -28.2338 223.726C-28.9937 217.92 -28.9937 202.721 -28.2338 197.432C-25.6196 179.801 -19.0233 167.399 -9.47846 162.232C0.187969 156.973 11.4351 159.83 21.8614 170.226C34.5372 182.811 43.3829 202.995 46.6354 226.766C47.2738 231.477 47.5474 245.004 47.0914 249.716C45.2372 269.261 38.1241 283.609 27.6066 289.05C23.5333 291.178 18.4265 291.938 14.0797 291.087ZM33.1693 279.293C38.8537 271.693 42.2582 263.273 43.9301 252.604C44.3556 249.807 44.4772 247.314 44.4772 240.141C44.4468 226.857 43.4741 220.777 39.2488 207.798C31.6798 184.392 21.2231 170.165 7.90895 165.18C6.78424 164.755 5.68993 164.512 5.35555 164.633C4.01806 165.028 -2.09186 171.533 -4.12849 174.695C-9.87363 183.51 -12.3662 193.146 -12.3358 206.551C-12.3054 215.367 -11.3935 222.571 -8.9921 232.845C-2.88219 258.744 10.0672 275.219 28.6705 280.721C30.008 281.117 31.1935 281.451 31.3151 281.451C31.4063 281.481 32.2574 280.478 33.1693 279.293V279.293Z" fill="white"/>
<path d="M160.079 259.291C157.526 258.896 153.301 257.407 150.048 255.765C146.4 253.941 142.388 251.297 141.658 250.233C140.382 248.409 140.017 245.582 140.777 243.697C141.233 242.664 147.099 236.888 149.896 234.7C155.459 230.413 163.18 227.951 169.715 228.377C177.831 228.924 183.911 234.426 183.911 241.235C183.941 249.138 177.558 256.525 168.773 258.805C166.432 259.413 162.298 259.626 160.079 259.291V259.291ZM165.976 255.643C174.244 253.09 179.929 243.089 177.375 235.611C175.825 231.173 171.417 228.65 166.432 229.441C158.894 230.596 152.419 238.226 152.419 245.886C152.449 253.607 158.499 257.954 165.976 255.643V255.643Z" fill="white"/>
<path d="M153.939 248.865C152.814 244.336 154.243 238.682 156.888 237.131C157.708 236.675 157.769 236.675 158.316 237.344C160.049 239.442 158.772 244.7 155.672 248.348C154.456 249.746 154.182 249.837 153.939 248.865V248.865Z" fill="white"/>
<path d="M103.145 227.07C96.5788 226.735 87.3379 225.975 81.8663 225.307L77.6107 224.79L75.422 218.558C56.7276 165.606 33.2606 137.822 3.16706 132.989C0.400879 132.533 -0.146274 132.533 -3.15563 132.989C-15.0107 134.722 -23.6132 140.406 -29.6015 150.468C-34.1307 158.067 -37.0489 168.25 -38.3864 181.017C-38.7208 184.361 -39.1159 187.735 -39.2071 188.526L-39.4199 189.954L-41.3958 188.617C-43.2196 187.34 -47.3537 185.911 -99.3031 168.554C-144.231 153.538 -155.356 149.708 -155.903 149.1C-156.846 148.036 -157.545 145.999 -160.889 134.418C-162.56 128.673 -164.415 122.654 -164.992 121.043C-167.698 113.748 -171.041 108.975 -174.689 107.243C-176.969 106.179 -177.729 106.179 -179.461 107.273C-181.528 108.58 -182.866 110.586 -184.021 113.991L-184.568 115.663L-184.416 111.407C-184.264 106.574 -183.687 102.44 -182.623 98.2145C-182.167 96.3906 -181.68 93.1077 -181.376 89.4904C-180.586 80.0975 -179.249 74.5348 -176.513 69.1544L-174.963 66.1147L-171.163 65.9627C-166.786 65.7803 -165.539 65.3243 -164.171 63.4093C-163.685 62.7405 -161.405 59.1232 -159.125 55.3539C-153.745 46.4778 -148.638 38.4833 -145.447 33.954C-144.079 31.9782 -142.924 30.1543 -142.924 29.9112C-142.924 29.6376 -143.258 29.4856 -143.805 29.4856C-144.656 29.4856 -150.249 30.5495 -153.958 31.431C-154.9 31.6438 -155.691 31.7654 -155.691 31.7046C-155.691 31.1575 -153.411 28.5129 -150.675 25.8987C-144.93 20.3359 -140.553 17.9649 -133.257 16.4147C-118.97 13.4053 -101.553 11.1559 -70.5774 8.3593C-62.1269 7.59936 -51.7917 6.62664 -47.6273 6.20107C-40.423 5.44114 -39.4503 5.41074 -28.7808 5.59312C0.704862 6.10988 36.0572 8.54169 61.5 11.855C71.4096 13.1317 79.0698 14.5908 78.5834 15.1076C78.4922 15.1684 76.5468 14.9556 74.2061 14.6212C51.8031 11.3383 23.4726 9.97037 -9.47832 10.6087C-27.4129 10.9735 -43.2196 11.4295 -43.3716 11.6118C-43.402 11.6726 -33.6748 25.8683 -21.7285 43.1645L0.00572177 74.626L1.13044 74.5348C1.73839 74.5044 9.12498 73.7748 17.5755 72.9541C29.9169 71.7078 33.6254 71.2518 36.422 70.5527C41.772 69.2152 49.5233 68.1817 59.8281 67.4825C70.3457 66.753 87.7635 66.297 123.663 65.8107C130.594 65.7195 141.628 65.5067 148.133 65.3243L159.988 65.0507L166.828 66.0843C170.597 66.6618 181.327 68.1817 190.69 69.428C223.762 73.9268 235.587 75.7507 248.901 78.4257C260.057 80.6751 268.082 82.7421 270.726 84.0796C273.827 85.5995 276.988 88.6696 279.663 92.7125C281.517 95.5091 281.7 95.9347 281.214 96.117C280.545 96.3906 270.483 97.8801 262.124 98.9136C218.351 104.476 165.733 105.115 105.424 100.92C92.3535 100.008 64.9653 97.6673 61.1352 97.1506L60.1625 96.9986L61.0744 99.6432C63.2934 105.935 65.8164 110.252 69.0386 113.292C72.7167 116.727 77.3067 118.642 86.5172 120.557C95.4236 122.411 99.0409 123.536 104.3 126.18C109.011 128.551 111.96 130.831 117.492 136.394C120.38 139.282 123.754 142.352 124.94 143.203C127.523 145.027 132.022 147.337 135.153 148.462C144.82 151.927 159.775 153.508 179.382 153.082C185.735 152.93 189.109 152.991 189.96 153.204C192.149 153.812 194.976 156.943 201.42 165.971C204.429 170.196 204.976 170.834 206.679 171.807C209.749 173.631 210.813 173.722 216.193 172.688C218.716 172.202 223.306 171.503 226.407 171.138C255.558 167.825 273.857 163.417 287.962 156.304C289.147 155.727 291.123 154.876 292.369 154.389L294.649 153.568V151.106C294.619 149.769 294.558 148.583 294.467 148.492C294.376 148.401 293.251 148.826 291.944 149.404C282.825 153.629 257.23 159.709 231.27 163.812C221.087 165.423 220.054 165.819 216.132 169.406L214.096 171.29L215.403 169.71C217.348 167.369 219.537 165.484 221.391 164.603C223.063 163.843 223.671 163.721 237.198 161.563C253.673 158.949 272.793 154.663 282.977 151.289C287.019 149.951 293.099 147.489 293.889 146.881C293.98 146.82 293.585 145.939 293.038 144.966L292.065 143.142L293.281 141.075C294.71 138.704 294.771 137.853 293.737 135.603C293.312 134.692 293.008 133.932 293.038 133.901C293.099 133.84 293.585 133.719 294.102 133.597C295.014 133.415 295.257 133.536 296.959 135.148C301.489 139.494 304.407 146.121 306.383 156.547L307.021 160.043L306.352 165.819C305.957 169.01 305.501 171.746 305.319 171.959C304.832 172.476 293.342 177.066 285.834 179.741C270.726 185.121 257.169 188.982 225.525 196.855C208.655 201.019 208.563 201.08 203.517 204.697C198.745 208.102 193.912 213.239 189.778 219.318C187.133 223.209 186.738 223.635 185.066 224.486C183.09 225.459 181.206 225.793 176.251 226.006C173.819 226.097 167.253 226.401 161.66 226.644C149.866 227.161 110.926 227.465 103.145 227.07V227.07ZM-56.5945 74.778L-54.3147 73.714L-45.0435 73.7444C-36.8969 73.7444 -35.3466 73.8356 -32.1853 74.4132C-26.2882 75.5075 -22.0629 75.7811 -14.9499 75.5683C-9.08315 75.4163 -3.70279 74.8692 -3.21643 74.4132C-2.73007 73.9268 -26.8657 38.3313 -42.0645 17.1746C-46.381 11.1255 -47.1713 10.1832 -47.8096 10.244C-49.0559 10.3655 -85.5938 15.5027 -86.2929 15.6547C-86.8705 15.8067 -87.2353 16.6274 -88.8159 21.5214C-93.2844 35.2307 -96.5977 49.3352 -98.9687 64.7468C-99.3639 67.3306 -99.6983 69.4888 -99.6679 69.5192C-99.6375 69.5496 -97.6312 69.732 -95.2298 69.9447C-92.798 70.1575 -90.8222 70.4919 -90.7918 70.6743C-90.731 70.8263 -90.6094 71.3734 -90.4878 71.8294C-90.3662 72.4373 -90.0014 72.8021 -89.3327 73.1061C-88.208 73.5621 -74.9243 75.2643 -69.3615 75.6595C-67.2641 75.8115 -64.0419 75.9027 -62.2181 75.8723C-59.1175 75.8115 -58.7224 75.7507 -56.5945 74.778V74.778ZM-101.461 68.3337C-100.033 59.5184 -99.5463 56.813 -98.6647 52.4358C-96.7497 43.2253 -93.8619 32.2518 -90.3662 21.1263C-89.5455 18.4817 -88.8767 16.2323 -88.9375 16.2019C-89.0895 16.0499 -125.019 24.014 -126.023 24.4396C-128.12 25.3211 -136.023 35.9299 -140.948 44.502C-143.136 48.3321 -146.389 54.8068 -148.213 59.0016C-149.337 61.6158 -149.611 62.5885 -149.611 63.9868C-149.611 65.9019 -149.307 66.6922 -148.334 67.209C-147.757 67.5129 -112.982 69.1544 -104.258 69.276L-101.613 69.3064L-101.461 68.3337V68.3337Z" fill="white"/>
<path d="M186.738 140.011C186.92 139.92 189.291 139.738 192.057 139.525C210.174 138.339 229.568 136.363 246.56 133.992L253.491 133.05L252.427 131.956C249.752 129.22 249.752 125.815 252.427 122.837C257.078 117.669 267.261 117.335 271.79 122.168C273.006 123.475 274.1 125.664 273.736 126.028C273.644 126.119 273.493 125.785 273.371 125.268C273.097 123.961 270.605 121.833 268.629 121.165C264.981 120.01 261.485 120.253 258.111 121.894C251.241 125.268 253.126 132.351 261.212 133.78C265.072 134.448 269.571 133.172 271.942 130.74C273.067 129.554 273.341 129.463 277.201 128.551C279.45 128.065 283.25 127.092 285.682 126.423C291.64 124.812 291.579 124.873 291.336 119.797L291.153 115.967L292.187 118.55C292.765 119.979 293.342 121.621 293.433 122.229C293.707 123.718 292.977 125.36 291.701 126.15C290.211 127.062 282.247 129.554 276.715 130.831C274.04 131.469 271.517 132.169 271.091 132.412C266.258 135.117 263.309 135.847 259.479 135.208C256.439 134.722 256.287 134.752 249.053 135.664C236.103 137.306 222.972 138.4 204.216 139.342C193.425 139.89 186.343 140.163 186.738 140.011V140.011Z" fill="white"/>
<path d="M185.522 115.237C184.032 114.994 184.063 114.994 186.282 114.964C189.565 114.872 205.797 114.082 214.856 113.535C237.593 112.167 256.622 110.069 272.155 107.273C277.11 106.391 283.736 105.023 284.831 104.689C286.077 104.294 285.621 102.136 283.736 99.5519C283.372 99.0656 282.946 98.4576 282.825 98.2448C282.338 97.4545 283.706 98.3968 284.861 99.6735C286.32 101.315 286.898 102.47 286.898 103.929C286.898 105.783 286.168 106.179 280.454 107.273C260.239 111.164 235.951 113.869 212.12 114.872C202.149 115.298 187.346 115.48 185.522 115.237V115.237Z" fill="white"/>
<path d="M-3.06449 67.4521C-3.42926 66.601 -3.70282 65.8715 -3.64203 65.8107C-3.21646 65.4763 13.4718 64.0476 24.8709 63.3789C29.3089 63.1357 33.6558 62.8621 34.5373 62.8013C36.1484 62.6493 36.1788 62.6797 36.6043 63.6828C36.8475 64.2604 37.0299 64.8379 37.0299 64.9899C37.0299 65.1419 35.1453 65.3547 32.8654 65.4763C19.3993 66.145 1.55596 67.8777 -1.90936 68.8808C-2.27414 68.972 -2.57813 68.5768 -3.06449 67.4521V67.4521Z" fill="white"/>
<path d="M95.8491 64.5948C87.0642 63.0445 77.5498 62.3149 66.3027 62.3149C58.7337 62.3149 58.3082 62.2845 58.3082 61.7678C58.3082 61.251 58.6729 61.1598 61.2871 61.0078C68.7649 60.4911 83.1429 60.8255 92.9917 61.7374C96.2139 62.0414 97.3386 62.011 100.287 61.6158C104.208 61.0382 109.072 60.6127 114.392 60.3087L118.039 60.1263L118.404 61.1294C118.617 61.6766 118.769 62.1629 118.708 62.1933C118.678 62.2237 115.364 62.4061 111.352 62.5885C101.777 63.0445 101.837 63.0445 101.594 64.3212C101.351 65.5675 101.412 65.5675 95.8491 64.5948V64.5948Z" fill="white"/>
<path d="M119.529 59.4576C119.255 59.0016 119.103 58.576 119.194 58.4848C119.286 58.3633 121.657 58.3025 124.423 58.3025C128.679 58.3025 129.59 58.3633 129.986 58.7888C130.442 59.2448 130.29 59.2752 128.071 59.2752C125.821 59.2752 122.386 59.64 120.745 60.0655C120.228 60.1871 119.924 60.0351 119.529 59.4576Z" fill="white"/>
</g>
<defs>
<clipPath id="clip0">
<rect width="497" height="310.663" fill="white" transform="translate(-187)"/>
</clipPath>
</defs>
</svg>
