<svg width="300" height="214" viewBox="0 0 300 214" fill="none" xmlns="http://www.w3.org/2000/svg">
<g opacity="0.2">
<path d="M128.257 206.442C127.596 206.086 126.404 205.562 125.596 205.29C119.303 203.05 115.064 200.181 110.716 195.26C106.385 190.36 103.119 184.623 100.404 177.085C99.6881 175.138 99.3762 174.509 98.9542 174.237C98.4954 173.902 98.3303 173.483 97.6514 171.054C96.2019 165.736 95.0826 160.25 94.2202 154.219C93.945 152.376 93.6698 150.785 93.5964 150.701C93.5046 150.597 37.6147 123.208 34.0184 121.533C33.9083 121.47 33.7431 122.098 33.5964 123.166C32.8441 128.736 30.6422 135.29 28.6973 137.782C28.0367 138.598 27.7248 138.829 27.1009 138.933C26.6789 138.996 25.1743 139.289 23.7615 139.583C21.578 140.043 21.0826 140.085 20.422 139.855C19.7982 139.666 19.2294 139.687 17.4312 139.98C14.8808 140.399 13.6331 140.315 11.7248 139.562C9.11929 138.557 7.66975 137.175 6.05507 134.138C1.87158 126.202 0.073418 115.167 0.605528 100.405C0.84406 93.4951 0.84406 92.7203 0.568831 89.3072C0.220207 85.2031 0.256904 78.4816 0.623877 75.4245C0.770666 74.1262 1.15599 71.8648 1.44956 70.399C1.81654 68.5773 2.05507 66.6718 2.20186 64.3894C2.75232 55.1342 3.77984 50.1297 6.14681 45.2299C6.77067 43.9108 8.22021 40.8536 9.35782 38.4247C12.3303 32.101 14.8074 27.0337 17.0459 22.7411C18.7523 19.4327 19.211 18.7207 20.8257 16.8571C23.6147 13.6115 26.5321 11.3292 29.2844 10.2613C30.5321 9.75871 40.4037 7.47632 46.3853 6.28278C56.5138 4.29354 67.2477 2.57652 80.5872 0.838553C84.9725 0.273191 86.0551 0.210373 90.9542 0.210373C106.954 0.210373 132.404 2.13679 149.541 4.60763C155.78 5.50802 158.881 6.19902 160.826 7.05753C166.661 9.69589 175.872 15.2658 183.853 21.0031C189.229 24.856 192.367 27.3059 208.477 40.1207L211.706 42.7172L215.174 43.3454C217.064 43.6804 224.33 44.9158 231.284 46.0675C251.982 49.5225 261.688 51.4908 271.211 54.192C278.771 56.3487 280.018 57.4166 284.22 65.3317C288.073 72.5767 290.11 78.8376 291.835 88.7628L292.33 91.5687L293.431 92.7203C296.294 95.7565 298.257 100.887 299.413 108.467L299.743 110.665L299.064 116.947C298.477 122.496 298.422 123.396 298.587 124.695C298.881 126.831 298.862 135.437 298.569 137.363C297.945 141.321 296.973 144.44 295.927 145.843C295.615 146.241 293.78 147.456 290.844 149.194C286.257 151.916 286.257 151.916 285.908 152.858C284.642 156.271 281.193 159.454 274.569 163.265C271.395 165.087 271.046 165.338 271.284 165.631C271.523 165.924 271.101 166.217 267.138 168.374C264.697 169.672 261.872 171.159 260.844 171.662C257.725 173.19 250.11 176.352 244.404 178.509L238.991 180.561L236.606 183.346L234.22 186.152L232.661 186.675C225.817 189.041 215.174 191.596 207.156 192.831C197.376 194.339 185.046 195.135 176.367 194.841L172.275 194.695L171.284 192.35C170.752 191.072 170.184 189.669 170.018 189.251C169.505 187.827 167.229 186.424 165.138 186.214L164.128 186.131L162.294 189.334C157.339 198.003 153.45 202.673 149.982 204.139C147.651 205.144 137.229 206.84 132.569 206.986L129.45 207.091L128.257 206.442V206.442ZM126.514 199.637C127.119 199.448 128.239 198.946 128.991 198.485C135.339 194.737 139.615 184.874 140.752 171.389C141.028 168.228 140.862 160.145 140.459 156.837C138.532 140.525 133.174 126.558 125.523 117.889C121.028 112.759 115.817 110.037 111.89 110.749C103.963 112.215 98.3303 121.596 96.3853 136.63C96.1285 138.577 96.0734 140.462 96.0734 145.006C96.0734 151.183 96.2386 153.235 97.1743 159.056C99.6514 174.593 106.312 188.957 114.11 195.637C118.624 199.511 122.55 200.767 126.514 199.637ZM214.22 177.629C217.651 176.645 220.734 173.965 222.202 170.636C223.431 167.872 223.596 165.673 222.697 163.474C222.239 162.302 220.679 160.292 219.853 159.789C219.468 159.559 219.468 159.559 219.908 160.312C220.532 161.359 220.752 162.281 220.862 164.479C221.028 167.872 220.073 170.908 218.073 173.358C216.697 175.033 215.156 176.205 213.523 176.75C211.67 177.399 208.936 177.273 207.486 176.457C206.22 175.745 205.284 174.551 204.752 172.981C204.147 171.222 204.147 167.767 204.752 165.652C205.303 163.747 206.661 161.38 207.945 160.082L208.899 159.119L207.817 159.642C205.413 160.857 203.633 162.365 200.422 165.903C198.294 168.269 197.982 168.919 198.349 170.322C198.697 171.641 199.138 172.206 200.789 173.441C203.762 175.682 207.596 177.546 210.055 177.964C211.284 178.174 212.679 178.069 214.22 177.629V177.629ZM207.56 168.186C208.165 166.804 208.422 164.94 208.11 164.396C207.872 163.998 207.615 164.228 207.046 165.359C206.404 166.594 206.018 168.416 206.165 169.589L206.294 170.51L206.624 170.007C206.826 169.735 207.229 168.919 207.56 168.186ZM209.908 155.496C213.284 155.329 217.248 155.12 218.716 155.057C221.706 154.91 222.844 154.68 224.037 154.01C225.046 153.423 225.284 153.13 226.881 150.45C229.376 146.262 232.294 142.723 235.174 140.378C238.22 137.886 238.275 137.845 248.459 134.976C267.56 129.553 275.743 126.893 284.862 123.187C289.413 121.344 296.33 118.183 296.624 117.827C296.734 117.68 296.991 115.963 297.211 113.995L297.596 110.393L297.156 107.922C296 101.18 294.294 96.7407 291.743 93.9139C290.917 92.9925 290.826 92.9297 290.991 93.4532C291.395 94.6468 291.248 96.28 290.642 97.4945L290.073 98.6043L290.459 99.4419C290.661 99.9025 290.826 100.573 290.826 100.908C290.826 101.243 290.936 101.557 291.064 101.599C291.229 101.661 291.284 102.352 291.284 104.049V106.415L289.908 106.98C289.156 107.315 287.963 107.901 287.248 108.299C278.734 113.199 267.67 116.256 250.092 118.518C248.22 118.769 245.468 119.25 243.945 119.585C240.844 120.276 240.275 120.297 238.954 119.921C236.954 119.313 236.128 118.497 233.908 114.958C230.073 108.844 228.312 106.582 227.064 106.184C226.624 106.059 224.349 106.017 220.752 106.101C208.752 106.352 199.725 105.284 193.908 102.897C192.018 102.122 189.303 100.531 187.743 99.2743C187.028 98.688 184.991 96.5732 183.248 94.5839C179.908 90.752 178.128 89.1816 175.284 87.5483C172.11 85.7266 169.927 84.9518 164.55 83.6745C158.991 82.3554 156.22 81.0362 154 78.67C152.037 76.5761 150.532 73.6027 149.193 69.2473C148.532 67.1115 148.459 66.1693 148.954 66.1693C149.119 66.1693 151.376 66.3996 153.945 66.6927C176.991 69.2264 196.33 70.4828 216.055 70.7131C239.45 70.9644 258.697 69.6243 277.982 66.3577C280.055 66.0017 281.761 65.6877 281.78 65.6667C281.945 65.4783 279.56 61.9605 278.459 60.7669C276.55 58.7149 275.211 58.0029 270.716 56.7256C261.046 53.9826 252.184 52.2865 227.431 48.4546C221.78 47.5961 215.303 46.5491 213.028 46.1513C209.523 45.5231 208.606 45.4393 206.973 45.5231C205.908 45.5859 199.725 45.7534 193.211 45.8581C163.339 46.4025 156.184 46.591 149.541 47.1145C143.321 47.5961 138.642 48.308 135.413 49.2293C133.706 49.711 131.376 50.046 123.174 50.9883C117.615 51.6164 112.899 52.1399 112.697 52.1399C112.477 52.1399 112.165 51.8468 111.945 51.4699L111.56 50.7789V51.3442C111.56 51.763 111.45 51.9515 111.156 52.0143C109.45 52.4331 107.578 52.6215 103.743 52.7053C98.9725 52.8309 96.4771 52.6425 92.8991 51.8886C91.0275 51.5117 90.0367 51.428 85.6881 51.428L80.6422 51.407L79.2661 52.119C77.578 53.0194 76.1101 53.1241 71.3762 52.789C67.4312 52.4959 59.211 51.3652 58.4037 50.9883C58 50.7789 57.7798 50.5276 57.7064 50.1088C57.4863 49.0409 57.4496 48.999 56.7707 48.999C56.422 48.999 54.9542 48.8524 53.523 48.6849C52.0918 48.5174 45.3028 48.1405 38.4404 47.8474C22.8074 47.1982 23.0092 47.2192 22.4587 46.57C22.0551 46.1303 22.0184 45.9 22.0184 44.162C22.0184 42.3403 22.0551 42.1309 22.8624 40.016C23.9633 37.1264 25.9266 32.6663 27.2477 30.028C30.2202 24.1231 34.9909 16.8153 36.2569 16.208C36.8624 15.9149 57.1009 10.7847 58.8991 10.4497C62.5505 9.80059 84.0367 6.30372 84.4404 6.28278C84.8257 6.28278 85.0826 6.49217 85.5046 7.16223C85.7982 7.6229 86.0551 7.87417 86.0551 7.68571C86.0551 7.43444 86.4037 7.35068 87.945 7.24599C95.3578 6.74344 123.615 6.40841 130.367 6.74344C134.312 6.9319 133.321 6.78532 127.615 6.30372C115.193 5.23581 108.991 4.87984 98.3486 4.58669L89.6331 4.33542L84.7707 4.90078C82.0918 5.19393 75.7798 5.88493 70.734 6.38748C55.211 7.9998 48.2936 8.92113 40 10.4916C31.0275 12.1877 29.0826 12.8159 26.0551 15.0773C24.7156 16.0824 20.422 20.4587 20.5872 20.6262C20.6239 20.6681 21.5964 20.4587 22.7523 20.1865C23.9083 19.9143 25.3762 19.7049 26.0184 19.684H27.156V20.6053C27.156 21.4429 26.9908 21.8198 25.6331 24.0184C23.7064 27.1384 20.6239 32.6454 17.3762 38.7597C16 41.3562 14.6239 43.8479 14.3303 44.3086C13.5046 45.6278 12.7523 45.9419 10.1101 46.0675L7.81654 46.1722L6.88076 48.2661C5.22938 51.9724 4.42204 55.8043 3.94498 62.2745C3.76149 64.7663 3.46791 67.0278 3.19268 68.2841C2.77067 70.1687 2.20186 73.9587 2.20186 74.8591C2.20186 75.1941 2.31195 75.1104 2.77067 74.4822C5.37617 70.8806 9.54131 72.7233 12.2202 78.6282C13.5597 81.6016 14.2386 83.8002 16.312 91.9665C18.3303 99.9444 18.7523 101.347 19.3211 102.08C19.6514 102.499 26.367 105.137 53.4679 115.481C73.1009 122.978 87.5046 128.568 87.9083 128.862C88.2753 129.155 88.6422 129.322 88.6973 129.259C88.7523 129.176 88.8074 128.652 88.8074 128.066C88.8074 127.48 88.9725 125.407 89.1743 123.438C91.2661 103.295 98.0551 93.0135 110.606 90.9405C113.064 90.5426 114.844 90.7102 118.147 91.6106C134.862 96.2381 148.275 115.398 158.954 149.927L160.275 154.219L162.844 154.575C166.147 155.036 171.725 155.559 175.688 155.79C180.312 156.062 202.771 155.852 209.908 155.496V155.496ZM10.2569 135.395C10.9542 134.976 12.0184 133.594 12.5321 132.4C12.9542 131.458 14.1285 127.542 14.1285 127.103C14.1285 126.977 13.8899 126.893 13.5964 126.893C13.1009 126.893 13.0092 126.768 12.3853 125.072C9.37617 116.842 8.51378 103.713 10.3853 93.872C10.6422 92.4481 10.6973 92.3644 11.1927 92.3015L11.7248 92.2387L10.8808 90.2914C9.94498 88.1765 8.2936 85.8732 7.33947 85.4334C5.35782 84.4912 2.95415 89.1188 1.94498 95.8612C0.972501 102.269 1.10094 110.707 2.2936 118.518C3.55966 126.81 6.23856 133.74 8.78901 135.269C9.59635 135.751 9.6147 135.751 10.2569 135.395V135.395ZM267.395 91.7152C266.661 91.2127 265.945 90.1867 265.688 89.2863C265.321 88.0299 265.56 86.1663 266.239 85.0356L266.807 84.0724L265.89 85.1822C264.697 86.627 264.44 87.5902 264.917 88.8466C265.119 89.3282 265.523 89.9982 265.853 90.3333C266.257 90.773 266.422 91.1499 266.422 91.6106C266.422 92.2387 266.44 92.2387 267.174 92.1759L267.927 92.0922L267.395 91.7152V91.7152ZM114.679 46.1722C119.468 45.4393 125.101 44.8949 131.982 44.4761C133.266 44.4133 134.312 44.2667 134.312 44.162C134.312 43.8898 133.229 43.9317 126.973 44.3924C121.028 44.8321 115.761 45.3137 113.56 45.6487C112.807 45.7534 112.055 45.8581 111.872 45.8581C111.596 45.8581 111.578 45.9209 111.743 46.2769C111.872 46.5491 112.073 46.6747 112.257 46.6119C112.422 46.5491 113.523 46.3607 114.679 46.1722V46.1722ZM89.1193 44.0573C91.6147 43.8898 93.945 43.8061 94.2753 43.8689C95.1009 44.0364 95.0092 43.8061 94.0184 43.3035C93.211 42.9057 92.9542 42.8847 88.8808 43.0313C85.4312 43.1569 84.5321 43.136 84.2936 42.9057C84.1285 42.7591 83.7248 42.0262 83.3945 41.2724C82.5872 39.4507 80.6789 37.252 79.0826 36.3726L77.8899 35.7025L70.4587 35.6397C65.8899 35.5978 62.8257 35.6607 62.5505 35.7863C62.2569 35.9329 64.4954 35.9957 69.523 35.9957L76.9358 36.0166L77.7064 36.5401C78.7156 37.1892 79.1927 37.943 80.422 40.728C81.5046 43.1988 81.7615 43.5757 82.7523 44.0573C83.5597 44.4552 83.6331 44.4552 89.1193 44.0573V44.0573ZM173.578 43.9945C173.578 43.8898 173.615 43.6804 173.67 43.5129C173.743 43.3035 173.174 43.2407 170.734 43.2407L167.706 43.2198L169.945 43.5967C171.193 43.8061 172.294 44.0155 172.385 44.0573C172.734 44.2248 173.578 44.183 173.578 43.9945V43.9945ZM167.119 42.9894C166.936 42.9475 166.642 42.9475 166.477 42.9894C166.294 43.0522 166.44 43.0941 166.789 43.0941C167.138 43.0941 167.284 43.0522 167.119 42.9894ZM180.606 42.3612C180.367 42.3194 180 42.3194 179.78 42.3612C179.541 42.4031 179.725 42.445 180.184 42.445C180.642 42.445 180.826 42.4031 180.606 42.3612ZM183.358 42.1519C183.119 42.11 182.752 42.11 182.532 42.1519C182.294 42.1937 182.477 42.2356 182.936 42.2356C183.395 42.2356 183.578 42.1937 183.358 42.1519Z" fill="black"/>
<path d="M129.633 194.003C120.404 190.904 113.486 182.696 109.211 169.818C107.486 164.646 105.908 156.919 105.211 150.344C104.807 146.638 104.752 138.241 105.101 135.268C106.22 125.741 109.321 118.642 114.55 113.659C115.817 112.465 116.422 112.381 118.22 113.156C127.193 117.009 134.385 129.51 138.771 148.9C139.927 154.009 140.257 157.631 140.275 165.421C140.275 170.97 140.22 172.666 139.945 174.634C138.936 181.984 136.881 187.784 133.45 193.019C132.514 194.422 132.404 194.526 131.78 194.505C131.395 194.505 130.44 194.275 129.633 194.003V194.003Z" fill="black"/>
<path d="M187.982 213.476C185.761 213.309 181.266 213.037 177.982 212.848C164.183 212.074 157.688 211.257 151.376 209.477L148.716 208.723L143.523 210.084L138.312 211.424L132.826 208.702C129.817 207.195 127.358 205.938 127.395 205.917C127.413 205.896 128.018 206.001 128.716 206.19C129.688 206.42 130.624 206.462 132.569 206.378C137.028 206.169 147.339 204.41 149.431 203.509C152.881 202.044 156.679 197.479 161.743 188.726C163.78 185.208 163.743 185.229 165.615 185.543C167.982 185.92 170.055 187.198 170.569 188.621C170.734 189.04 171.303 190.443 171.835 191.721L172.807 194.045L176.459 194.191C184.477 194.505 196.972 193.689 206.605 192.202C214.624 190.967 225.266 188.412 232.11 186.046L233.67 185.522L236.055 182.717L238.44 179.932L243.853 177.88C253.505 174.236 259.651 171.514 265.138 168.52C266.899 167.536 268.936 166.447 269.651 166.07L270.972 165.379L275.67 169.085C280.165 172.645 280.385 172.854 280.844 173.943C281.394 175.199 281.394 176.351 280.826 178.298C280.55 179.283 280.385 179.45 278.294 181.167C259.688 196.243 241.376 205.645 221.798 210.21C210.587 212.827 197.266 214.105 187.982 213.476V213.476Z" fill="white" fill-opacity="0.5"/>
<path d="M121.376 200.515C114.312 198.903 107.56 191.532 102.459 179.869C99.0826 172.121 97.0275 164.122 95.8349 154.113C95.3762 150.114 95.3762 139.644 95.8349 136.001C97.4129 123.856 101.395 115.313 107.156 111.753C112.991 108.131 119.78 110.099 126.073 117.26C133.725 125.929 139.064 139.833 141.028 156.207C141.413 159.453 141.578 168.771 141.303 172.017C140.184 185.481 135.89 195.364 129.541 199.112C127.083 200.578 124 201.101 121.376 200.515ZM132.899 192.391C136.33 187.156 138.385 181.356 139.395 174.006C139.651 172.079 139.725 170.362 139.725 165.421C139.706 156.27 139.119 152.082 136.569 143.141C132 127.018 125.688 117.218 117.651 113.784C116.973 113.491 116.312 113.324 116.11 113.407C115.303 113.68 111.615 118.161 110.385 120.338C106.917 126.411 105.413 133.049 105.431 142.283C105.45 148.355 106 153.318 107.45 160.395C111.138 178.236 118.954 189.585 130.184 193.375C130.991 193.647 131.706 193.877 131.78 193.877C131.835 193.898 132.349 193.207 132.899 192.391V192.391Z" fill="white"/>
<path d="M209.505 178.613C207.963 178.34 205.413 177.314 203.45 176.184C201.248 174.927 198.826 173.105 198.385 172.373C197.615 171.116 197.395 169.169 197.853 167.871C198.128 167.159 201.67 163.18 203.358 161.673C206.716 158.72 211.376 157.024 215.321 157.317C220.22 157.694 223.89 161.484 223.89 166.175C223.908 171.619 220.055 176.707 214.752 178.278C213.339 178.696 210.844 178.843 209.505 178.613V178.613ZM213.064 176.1C218.055 174.341 221.486 167.452 219.945 162.301C219.009 159.244 216.349 157.506 213.339 158.05C208.789 158.846 204.881 164.102 204.881 169.378C204.899 174.697 208.55 177.691 213.064 176.1V176.1Z" fill="white"/>
<path d="M205.798 171.43C205.119 168.31 205.982 164.416 207.578 163.348C208.074 163.034 208.11 163.034 208.44 163.494C209.486 164.939 208.716 168.562 206.844 171.074C206.11 172.038 205.945 172.1 205.798 171.43V171.43Z" fill="white"/>
<path d="M79.2662 164.562C58.2386 154.197 54.4038 152.292 45.1377 147.518L39.3579 144.544L33.4863 144.167C29.7249 143.937 27.3763 143.707 26.9726 143.518C25.9634 143.078 20.2203 139.791 20.2019 139.644C20.1836 139.561 20.4955 139.456 20.8808 139.393C21.2478 139.33 22.8441 139.037 24.4038 138.723L27.2478 138.179L28.0919 137.174C30.0919 134.745 32.4038 127.814 33.0643 122.244C33.1928 121.239 33.3396 120.401 33.413 120.401C33.6331 120.401 94.0001 149.905 94.1469 150.072C94.2203 150.156 94.4955 151.705 94.7524 153.527C95.6698 159.914 96.9359 166.007 98.4588 171.347C98.9175 172.938 99.2662 174.278 99.2295 174.299C99.1928 174.341 90.2203 169.944 79.2662 164.562V164.562Z" fill="white" fill-opacity="0.5"/>
<path d="M175.138 156.417C171.174 156.186 165.596 155.663 162.294 155.202L159.725 154.846L158.404 150.554C147.119 114.077 132.954 94.9389 114.789 91.6096C113.119 91.2955 112.789 91.2955 110.973 91.6096C103.817 92.8031 98.624 96.7188 95.0093 103.65C92.2753 108.885 90.5139 115.899 89.7065 124.694C89.5047 126.997 89.2662 129.321 89.2111 129.866L89.0827 130.85L87.89 129.929C86.7891 129.049 84.2937 128.065 52.9359 116.109C25.8166 105.765 19.101 103.126 18.7708 102.707C18.202 101.975 17.7799 100.572 15.7616 92.5937C14.7524 88.6362 13.6332 84.4902 13.2845 83.3804C11.6515 78.355 9.63315 75.0675 7.43132 73.8739C6.05517 73.1411 5.59646 73.1411 4.55059 73.8949C3.30288 74.7953 2.49554 76.1773 1.79829 78.5225L1.46802 79.6741L1.55976 76.7426C1.6515 73.4133 2.00013 70.5655 2.64233 67.655C2.91756 66.3986 3.21114 64.1372 3.39462 61.6454C3.87169 55.1751 4.67903 51.3432 6.3304 47.637L7.26618 45.543L9.55976 45.4383C12.202 45.3127 12.9543 44.9986 13.7799 43.6794C14.0735 43.2188 15.4497 40.727 16.8258 38.1305C20.0735 32.0162 23.1561 26.5092 25.0827 23.3892C25.9084 22.0282 26.6056 20.7718 26.6056 20.6043C26.6056 20.4158 26.4038 20.3111 26.0735 20.3111C25.5598 20.3111 22.1836 21.044 19.9451 21.6512C19.3763 21.7978 18.8992 21.8816 18.8992 21.8397C18.8992 21.4628 20.2754 19.6411 21.9267 17.8403C25.3946 14.0084 28.0368 12.3751 32.4405 11.3072C41.0643 9.23422 51.5781 7.68471 70.2754 5.75829C75.3763 5.23481 81.6148 4.56475 84.1286 4.2716C88.4772 3.74812 89.0643 3.72718 95.5047 3.85281C113.303 4.20878 134.642 5.88393 150 8.16632C155.982 9.04577 160.606 10.0509 160.312 10.4068C160.257 10.4487 159.083 10.3021 157.67 10.0718C144.147 7.81035 127.046 6.86808 107.156 7.3078C96.3304 7.55908 86.7891 7.87317 86.6974 7.9988C86.679 8.04068 92.5506 17.8193 99.7616 29.7338L112.881 51.406L113.56 51.3432C113.927 51.3223 118.385 50.8197 123.486 50.2544C130.936 49.3959 133.174 49.0818 134.863 48.6002C138.092 47.6788 142.771 46.9669 148.991 46.4853C155.34 45.9828 165.853 45.6687 187.523 45.3336C191.707 45.2708 198.367 45.1242 202.294 44.9986L209.45 44.8102L213.578 45.5221C215.853 45.9199 222.33 46.9669 227.982 47.8254C247.945 50.9244 255.083 52.1808 263.119 54.0235C269.853 55.573 274.697 56.9968 276.294 57.9182C278.165 58.9651 280.073 61.08 281.688 63.8649C282.807 65.7914 282.918 66.0845 282.624 66.2102C282.22 66.3986 276.147 67.4246 271.101 68.1366C244.679 71.9685 212.918 72.4082 176.514 69.5186C168.624 68.8904 152.092 67.2781 149.78 66.9221L149.193 66.8174L149.743 68.6391C151.083 72.9736 152.606 75.9469 154.551 78.0409C156.771 80.407 159.541 81.7262 165.101 83.0454C170.477 84.3227 172.661 85.0974 175.835 86.9192C178.679 88.5524 180.459 90.1229 183.798 93.9548C185.541 95.944 187.578 98.0589 188.294 98.6452C189.853 99.9015 192.569 101.493 194.459 102.268C200.294 104.655 209.321 105.744 221.156 105.45C224.991 105.346 227.028 105.388 227.541 105.534C228.862 105.953 230.569 108.11 234.459 114.329C236.275 117.239 236.606 117.679 237.633 118.349C239.486 119.605 240.129 119.668 243.376 118.956C244.899 118.621 247.67 118.14 249.541 117.888C267.138 115.606 278.184 112.57 286.697 107.67C287.413 107.272 288.606 106.686 289.358 106.351L290.734 105.785V104.089C290.716 103.168 290.679 102.351 290.624 102.289C290.569 102.226 289.89 102.519 289.101 102.917C283.596 105.827 268.147 110.015 252.477 112.842C246.33 113.952 245.707 114.224 243.34 116.695L242.11 117.993L242.899 116.904C244.074 115.292 245.395 113.994 246.514 113.386C247.523 112.863 247.89 112.779 256.055 111.293C266 109.492 277.541 106.539 283.688 104.215C286.129 103.294 289.798 101.598 290.275 101.179C290.33 101.137 290.092 100.53 289.762 99.8597L289.174 98.6033L289.908 97.1794C290.771 95.5462 290.807 94.9599 290.184 93.4104C289.927 92.7822 289.743 92.2587 289.762 92.2377C289.798 92.1959 290.092 92.1121 290.404 92.0284C290.954 91.9027 291.101 91.9865 292.129 93.0963C294.862 96.0906 296.624 100.655 297.817 107.838L298.202 110.246L297.798 114.224C297.56 116.423 297.285 118.307 297.174 118.454C296.881 118.81 289.945 121.972 285.413 123.814C276.294 127.521 268.11 130.18 249.009 135.603C238.826 138.472 238.771 138.514 235.725 141.005C232.844 143.351 229.927 146.889 227.431 151.077C225.835 153.758 225.596 154.051 224.587 154.637C223.395 155.307 222.257 155.537 219.266 155.684C217.798 155.747 213.835 155.956 210.459 156.124C203.34 156.48 179.835 156.689 175.138 156.417V156.417ZM78.7157 51.5107L80.0919 50.7779L85.6882 50.7988C90.6056 50.7988 91.5414 50.8616 93.4497 51.2595C97.0093 52.0133 99.5598 52.2017 103.853 52.0552C107.395 51.9505 110.642 51.5736 110.936 51.2595C111.229 50.9244 96.6607 26.4045 87.4864 11.8307C84.8809 7.66377 84.4038 7.01465 84.0185 7.05653C83.2662 7.14029 61.2111 10.679 60.7891 10.7837C60.4405 10.8884 60.2203 11.4538 59.2662 14.825C56.5689 24.2687 54.5689 33.9845 53.1377 44.6008C52.8992 46.3806 52.6974 47.8673 52.7157 47.8882C52.7341 47.9092 53.9451 48.0348 55.3946 48.1814C56.8625 48.328 58.0552 48.5583 58.0735 48.6839C58.1102 48.7886 58.1836 49.1655 58.257 49.4796C58.3304 49.8984 58.5506 50.1497 58.9542 50.3591C59.6331 50.6732 67.6515 51.8458 71.0093 52.118C72.2754 52.2227 74.2203 52.2855 75.3212 52.2646C77.1928 52.2227 77.4313 52.1808 78.7157 51.5107V51.5107ZM51.6331 47.0716C52.4955 40.9992 52.7891 39.1356 53.3212 36.1203C54.4772 29.7757 56.2203 22.2166 58.3304 14.5528C58.8258 12.7311 59.2295 11.1816 59.1928 11.1606C59.101 11.0559 37.413 16.5421 36.8075 16.8352C35.5414 17.4424 30.7708 24.7503 27.7983 30.6552C26.4772 33.2935 24.5139 37.7536 23.413 40.6432C22.7341 42.444 22.5689 43.1141 22.5689 44.0773C22.5689 45.3965 22.7524 45.9409 23.3396 46.2968C23.6882 46.5062 44.679 47.637 49.9451 47.7207L51.5414 47.7417L51.6331 47.0716V47.0716Z" fill="#C4A106"/>
<path d="M97.3395 46.0665C97.1193 45.6687 95.4863 44.852 94.5138 44.6426C93.8349 44.4961 91.9817 44.5379 88.4404 44.7683C81.5597 45.208 81.5597 45.2289 79.8716 41.397C78.6422 38.5702 78.1652 37.8374 77.156 37.1673L76.3854 36.6438H68.9725C63.156 36.6438 61.3395 36.7066 60.5505 36.937C60 37.1045 59.5046 37.2092 59.4679 37.1673C59.3395 36.9998 60.4771 35.9947 61.3762 35.4921L62.3303 34.9477L70.3854 35.0105L78.4404 35.0734L79.6331 35.7434C81.1744 36.6019 83.156 38.8215 83.89 40.5176C84.8624 42.6953 84.4037 42.5487 89.3578 42.3812C93.5046 42.2346 93.7248 42.2556 94.5505 42.6743C95.4129 43.1141 97.1744 44.9358 97.5964 45.8152C97.7982 46.2759 97.578 46.5062 97.3395 46.0665V46.0665Z" fill="white"/>
<path d="M8.2386 135.896C5.19273 134.054 2.47713 125.971 1.17438 114.852C0.789059 111.649 0.64227 102.707 0.899151 99.5665C1.5597 91.7562 3.30282 86.2072 5.523 84.8881C6.18355 84.5111 7.39456 84.5111 8.05511 84.909C8.77071 85.3278 10.312 87.2751 10.9909 88.6571C15.6147 98.017 17.1927 118.935 14.0918 130.033C13.1744 133.279 12.1102 135.247 10.8074 136.022C10.1102 136.42 9.02759 136.378 8.2386 135.896ZM14.1102 124.38C15.3762 114.706 14.4404 102.142 11.9083 94.6039C11.2111 92.5728 11.1744 92.6147 10.6423 96.2162C9.46796 104.089 9.87163 113.114 11.7432 120.506C12.367 123.04 13.578 126.369 13.7615 126.118C13.8349 126.034 13.9817 125.238 14.1102 124.38Z" fill="white"/>
<path d="M225.596 96.4466C225.706 96.3838 227.138 96.2581 228.807 96.1115C239.743 95.2949 251.45 93.9339 261.706 92.3006L265.89 91.6515L265.248 90.8976C263.633 89.0131 263.633 86.6679 265.248 84.6158C268.055 81.0562 274.202 80.8258 276.936 84.1552C277.67 85.0556 278.33 86.5632 278.11 86.8145C278.055 86.8773 277.963 86.647 277.89 86.291C277.725 85.3906 276.22 83.9248 275.028 83.4642C272.826 82.6685 270.716 82.836 268.679 83.9667C264.532 86.291 265.67 91.1699 270.551 92.154C272.881 92.6147 275.596 91.7352 277.028 90.0601C277.707 89.2434 277.872 89.1806 280.202 88.5524C281.56 88.2174 283.853 87.5473 285.321 87.0867C288.918 85.9769 288.881 86.0188 288.734 82.5219L288.624 79.8835L289.248 81.6634C289.596 82.6475 289.945 83.7783 290 84.1971C290.165 85.2231 289.725 86.3538 288.954 86.8982C288.055 87.5264 283.248 89.2434 279.908 90.1229C278.294 90.5626 276.771 91.0442 276.514 91.2117C273.596 93.0753 271.817 93.5779 269.505 93.1382C267.67 92.8031 267.578 92.8241 263.211 93.4522C255.395 94.583 247.468 95.3368 236.147 95.9859C229.633 96.3628 225.358 96.5513 225.596 96.4466V96.4466Z" fill="white"/>
<path d="M224.862 79.381C223.963 79.2135 223.982 79.2135 225.321 79.1925C227.303 79.1297 237.101 78.5853 242.569 78.2084C256.294 77.2661 267.78 75.8213 277.156 73.8949C280.147 73.2876 284.147 72.3454 284.807 72.115C285.56 71.8428 285.285 70.3561 284.147 68.5763C283.927 68.2412 283.67 67.8225 283.596 67.6759C283.303 67.1315 284.129 67.7806 284.826 68.66C285.707 69.7908 286.055 70.5864 286.055 71.5915C286.055 72.8688 285.615 73.141 282.165 73.8949C269.963 76.5751 255.303 78.4387 240.917 79.1297C234.899 79.4228 225.963 79.5485 224.862 79.381V79.381Z" fill="white"/>
<path d="M111.028 46.4644C110.807 45.8781 110.642 45.3755 110.679 45.3336C110.936 45.1033 121.009 44.1191 127.89 43.6585C130.569 43.491 133.193 43.3025 133.725 43.2606C134.697 43.1559 134.716 43.1769 134.973 43.8679C135.119 44.2657 135.229 44.6636 135.229 44.7683C135.229 44.873 134.092 45.0195 132.716 45.1033C124.587 45.564 113.817 46.7575 111.725 47.4485C111.505 47.5113 111.321 47.2391 111.028 46.4644V46.4644Z" fill="white"/>
<path d="M170.734 44.4961C165.431 43.4281 159.688 42.9256 152.899 42.9256C148.33 42.9256 148.073 42.9047 148.073 42.5487C148.073 42.1927 148.294 42.1299 149.872 42.0252C154.385 41.6692 163.064 41.8996 169.009 42.5278C170.954 42.7371 171.633 42.7162 173.413 42.444C175.78 42.0461 178.716 41.753 181.927 41.5436L184.129 41.418L184.349 42.109C184.477 42.4859 184.569 42.8209 184.532 42.8418C184.514 42.8628 182.514 42.9884 180.092 43.1141C174.312 43.4281 174.349 43.4281 174.202 44.3076C174.055 45.1661 174.092 45.1661 170.734 44.4961V44.4961Z" fill="white"/>
<path d="M185.028 40.9573C184.862 40.6432 184.771 40.3501 184.826 40.2873C184.881 40.2035 186.312 40.1616 187.982 40.1616C190.551 40.1616 191.101 40.2035 191.34 40.4966C191.615 40.8107 191.523 40.8317 190.184 40.8317C188.826 40.8317 186.752 41.083 185.761 41.3761C185.45 41.4599 185.266 41.3552 185.028 40.9573Z" fill="white"/>
</g>
</svg>
