<svg width="470" height="294" viewBox="0 0 470 294" fill="none" xmlns="http://www.w3.org/2000/svg">
<g opacity="0.1" clip-path="url(#clip0)">
<path d="M200.936 283.409C199.901 282.92 198.033 282.201 196.768 281.828C186.908 278.752 180.267 274.813 173.455 268.058C166.67 261.331 161.554 253.455 157.299 243.106C156.178 240.433 155.689 239.571 155.028 239.197C154.31 238.737 154.051 238.162 152.987 234.828C150.716 227.526 148.963 219.994 147.612 211.716C147.181 209.186 146.749 207.001 146.634 206.886C146.491 206.742 58.9298 169.143 53.2955 166.843C53.123 166.757 52.8643 167.619 52.6343 169.085C51.4558 176.731 48.0062 185.729 44.9591 189.15C43.9243 190.271 43.4356 190.587 42.4582 190.731C41.797 190.817 39.4398 191.22 37.2264 191.622C33.8056 192.254 33.0295 192.312 31.9946 191.996C31.0172 191.737 30.1261 191.766 27.309 192.168C23.3132 192.743 21.3585 192.628 18.3689 191.593C14.2869 190.213 12.016 188.316 9.48633 184.148C2.9322 173.253 0.115079 158.104 0.948718 137.838C1.32242 128.352 1.32242 127.288 0.891225 122.602C0.345048 116.968 0.40254 107.741 0.977464 103.544C1.20743 101.761 1.8111 98.6569 2.27104 96.6446C2.84597 94.1437 3.21967 91.5278 3.44964 88.3945C4.31202 75.6887 5.92181 68.8183 9.63006 62.0917C10.6074 60.2807 12.8784 56.0838 14.6606 52.7492C19.3175 44.0679 23.1983 37.1113 26.7053 31.2183C29.3787 26.6764 30.0973 25.6991 32.627 23.1407C36.9964 18.685 41.5671 15.5517 45.879 14.0856C47.8337 13.3957 63.2992 10.2624 72.6704 8.62385C88.5383 5.89296 105.355 3.53578 126.253 1.14985C133.124 0.373699 134.82 0.28746 142.495 0.28746C167.562 0.28746 207.432 2.93211 234.281 6.32416C244.055 7.56024 248.913 8.50887 251.96 9.68746C261.102 13.3095 275.532 20.956 288.037 28.8324C296.459 34.1217 301.375 37.485 326.614 55.0777L331.673 58.6422L337.106 59.5046C340.067 59.9645 351.451 61.6605 362.346 63.2416C394.771 67.9847 409.978 70.6868 424.897 74.3951C436.741 77.356 438.695 78.822 445.278 89.6881C451.315 99.6342 454.506 108.229 457.208 121.855L457.984 125.707L459.709 127.288C464.193 131.456 467.269 138.499 469.08 148.905L469.598 151.924L468.534 160.547C467.614 168.165 467.528 169.401 467.787 171.183C468.247 174.116 468.218 185.93 467.758 188.575C466.78 194.008 465.257 198.291 463.618 200.217C463.13 200.763 460.255 202.431 455.656 204.817C448.469 208.554 448.469 208.554 447.923 209.847C445.94 214.533 440.535 218.902 430.158 224.134C425.185 226.635 424.639 226.98 425.012 227.382C425.386 227.785 424.725 228.187 418.516 231.148C414.692 232.93 410.266 234.971 408.656 235.661C403.769 237.76 391.839 242.1 382.899 245.061L374.419 247.878L370.682 251.702L366.945 255.554L364.502 256.272C353.779 259.52 337.106 263.028 324.544 264.724C309.223 266.793 289.905 267.886 276.308 267.483L269.898 267.282L268.346 264.062C267.512 262.309 266.621 260.383 266.362 259.808C265.557 257.853 261.993 255.927 258.716 255.64L257.135 255.525L254.26 259.923C246.499 271.824 240.404 278.234 234.971 280.246C231.321 281.626 214.993 283.955 207.691 284.156L202.804 284.3L200.936 283.409V283.409ZM198.205 274.066C199.154 273.807 200.907 273.117 202.086 272.485C212.032 267.339 218.73 253.8 220.512 235.287C220.943 230.947 220.684 219.851 220.052 215.309C217.034 192.916 208.64 173.742 196.653 161.841C189.61 154.798 181.446 151.061 175.294 152.039C162.876 154.051 154.051 166.929 151.004 187.569C150.601 190.242 150.515 192.829 150.515 199.067C150.515 207.547 150.774 210.365 152.24 218.356C156.121 239.686 166.555 259.405 178.773 268.576C185.844 273.894 191.996 275.618 198.205 274.066ZM335.612 243.854C340.987 242.503 345.817 238.823 348.116 234.253C350.042 230.458 350.301 227.44 348.892 224.421C348.174 222.812 345.73 220.052 344.437 219.362C343.833 219.046 343.833 219.046 344.523 220.081C345.5 221.518 345.845 222.783 346.018 225.801C346.277 230.458 344.782 234.626 341.648 237.99C339.492 240.289 337.078 241.899 334.519 242.646C331.616 243.538 327.333 243.365 325.062 242.244C323.078 241.267 321.612 239.628 320.779 237.472C319.83 235.057 319.83 230.314 320.779 227.411C321.641 224.795 323.768 221.547 325.781 219.765L327.275 218.442L325.579 219.161C321.814 220.828 319.025 222.898 313.995 227.756C310.66 231.004 310.171 231.895 310.746 233.821C311.292 235.632 311.982 236.409 314.57 238.105C319.226 241.18 325.234 243.739 329.086 244.314C331.012 244.601 333.197 244.457 335.612 243.854V243.854ZM325.177 230.889C326.125 228.992 326.528 226.434 326.039 225.686C325.666 225.14 325.263 225.456 324.372 227.009C323.366 228.705 322.762 231.205 322.992 232.815L323.193 234.08L323.711 233.39C324.027 233.017 324.659 231.895 325.177 230.889ZM328.856 213.469C334.146 213.239 340.355 212.952 342.655 212.865C347.34 212.664 349.122 212.348 350.991 211.428C352.572 210.623 352.946 210.221 355.447 206.541C359.356 200.792 363.927 195.934 368.44 192.714C373.212 189.294 373.298 189.236 389.252 185.298C419.177 177.853 431.998 174.202 446.284 169.114C453.414 166.584 464.251 162.243 464.711 161.755C464.883 161.554 465.286 159.196 465.631 156.494L466.234 151.55L465.544 148.158C463.733 138.902 461.06 132.807 457.064 128.927C455.771 127.662 455.627 127.576 455.886 128.294C456.518 129.933 456.288 132.175 455.34 133.842L454.448 135.366L455.052 136.516C455.368 137.148 455.627 138.068 455.627 138.528C455.627 138.988 455.799 139.419 456.001 139.476C456.259 139.563 456.346 140.511 456.346 142.84V146.088L454.19 146.864C453.011 147.324 451.143 148.129 450.021 148.675C436.683 155.402 419.349 159.599 391.81 162.703C388.878 163.048 384.566 163.709 382.181 164.169C377.322 165.118 376.431 165.147 374.362 164.629C371.228 163.796 369.935 162.675 366.456 157.817C360.448 149.423 357.689 146.318 355.734 145.772C355.044 145.599 351.48 145.542 345.845 145.657C327.045 146.002 312.902 144.536 303.79 141.259C300.829 140.195 296.574 138.01 294.131 136.286C293.01 135.481 289.819 132.577 287.088 129.846C281.856 124.586 279.068 122.43 274.612 120.188C269.639 117.687 266.218 116.623 257.796 114.87C249.086 113.059 244.745 111.248 241.267 107.999C238.191 105.125 235.834 101.043 233.735 95.0636C232.7 92.1315 232.585 90.8379 233.362 90.8379C233.62 90.8379 237.156 91.1541 241.181 91.5566C277.286 95.0349 307.584 96.7596 338.486 97.0758C375.138 97.4208 405.292 95.581 435.505 91.0966C438.753 90.6079 441.426 90.1768 441.455 90.148C441.714 89.8893 437.977 85.0599 436.252 83.4214C433.262 80.6043 431.164 79.6269 424.121 77.8734C408.972 74.1076 395.088 71.7792 356.309 66.5186C347.455 65.3401 337.308 63.9027 333.743 63.3566C328.253 62.4942 326.815 62.3792 324.257 62.4942C322.59 62.5804 312.902 62.8104 302.697 62.9541C255.899 63.7015 244.688 63.9602 234.281 64.6789C224.536 65.3401 217.206 66.3174 212.147 67.5823C209.473 68.2434 205.823 68.7034 192.973 69.9969C184.263 70.8593 176.875 71.578 176.559 71.578C176.214 71.578 175.725 71.1755 175.381 70.6581L174.777 69.7095V70.4856C174.777 71.0605 174.604 71.3193 174.144 71.4055C171.471 71.9804 168.539 72.2391 162.531 72.3541C155.057 72.5266 151.147 72.2679 145.542 71.233C142.61 70.7156 141.058 70.6006 134.245 70.6006L126.34 70.5719L124.184 71.5492C121.539 72.7853 119.239 72.929 111.823 72.4691C105.642 72.0667 92.764 70.5144 91.4992 69.9969C90.8668 69.7095 90.5218 69.3645 90.4068 68.7896C90.0619 67.3235 90.0044 67.266 88.9408 67.266C88.3946 67.266 86.0949 67.0648 83.8527 66.8349C81.6105 66.6049 70.9744 66.0875 60.2233 65.685C35.7316 64.7939 36.0478 64.8226 35.1854 63.9315C34.553 63.3278 34.4955 63.0116 34.4955 60.6257C34.4955 58.1248 34.553 57.8373 35.8178 54.9339C37.5426 50.967 40.6184 44.844 42.6882 41.222C47.345 33.1156 54.8191 23.0832 56.8025 22.2495C57.7512 21.8471 89.4582 14.8043 92.2753 14.3443C97.9958 13.4532 131.658 8.6526 132.29 8.62385C132.894 8.62385 133.296 8.91131 133.957 9.83119C134.417 10.4636 134.82 10.8086 134.82 10.5498C134.82 10.2049 135.366 10.0899 137.781 9.94617C149.394 9.25627 193.663 8.79633 204.242 9.25627C210.422 9.51498 208.87 9.31376 199.93 8.6526C180.469 7.18654 170.752 6.69786 154.08 6.29541L140.425 5.95046L132.807 6.7266C128.61 7.12905 118.722 8.07767 110.817 8.76758C86.4973 10.981 75.66 12.2459 62.6668 14.4018C48.6099 16.7303 45.5628 17.5927 40.8197 20.6972C38.7212 22.0771 31.9946 28.085 32.2533 28.315C32.3108 28.3725 33.8343 28.085 35.6454 27.7113C37.4564 27.3376 39.7561 27.0501 40.7622 27.0214H42.5444V28.2862C42.5444 29.4361 42.2857 29.9535 40.1585 32.9719C37.1402 37.255 32.3108 44.8153 27.2227 53.2092C25.0668 56.7737 22.9108 60.1945 22.4509 60.8269C21.1573 62.6379 19.9787 63.0691 15.8392 63.2416L12.246 63.3853L10.7799 66.2599C8.19275 71.348 6.92792 76.6086 6.18052 85.4911C5.89306 88.9119 5.43312 92.0165 5.00193 93.7413C4.34077 96.3284 3.44964 101.531 3.44964 102.768C3.44964 103.228 3.62211 103.113 4.34077 102.25C8.42272 97.3058 14.9481 99.8355 19.145 107.942C21.2435 112.024 22.3071 115.042 25.5554 126.253C28.7175 137.205 29.3787 139.131 30.2698 140.138C30.7872 140.713 41.3083 144.335 83.7665 158.535C114.525 168.826 137.091 176.502 137.723 176.904C138.298 177.306 138.873 177.536 138.959 177.45C139.045 177.335 139.132 176.616 139.132 175.812C139.132 175.007 139.39 172.161 139.707 169.459C142.984 141.805 153.62 127.691 173.282 124.845C177.134 124.298 179.922 124.528 185.097 125.765C211.284 132.117 232.298 158.42 249.028 205.823L251.098 211.716L255.122 212.204C260.297 212.837 269.036 213.555 275.245 213.872C282.489 214.245 317.674 213.958 328.856 213.469V213.469ZM16.0692 185.873C17.1616 185.298 18.8288 183.401 19.6337 181.762C20.2949 180.468 22.1346 175.093 22.1346 174.489C22.1346 174.317 21.7609 174.202 21.301 174.202C20.5249 174.202 20.3811 174.029 19.4038 171.701C14.6894 160.404 13.3383 142.38 16.2704 128.869C16.6729 126.914 16.7591 126.799 17.5353 126.713L18.3689 126.627L17.0466 123.954C15.5805 121.05 12.9934 117.888 11.4986 117.284C8.39398 115.991 4.62823 122.344 3.04719 131.6C1.52364 140.396 1.72486 151.981 3.59337 162.703C5.57685 174.087 9.77379 183.602 13.7695 185.7C15.0343 186.361 15.0631 186.361 16.0692 185.873V185.873ZM418.918 125.908C417.768 125.218 416.647 123.81 416.245 122.574C415.67 120.849 416.043 118.291 417.107 116.738L417.998 115.416L416.561 116.939C414.692 118.923 414.29 120.245 415.037 121.97C415.354 122.631 415.986 123.551 416.503 124.011C417.136 124.615 417.395 125.132 417.395 125.765C417.395 126.627 417.423 126.627 418.573 126.541L419.752 126.426L418.918 125.908V125.908ZM179.664 63.3853C187.166 62.3792 195.992 61.6318 206.771 61.0569C208.784 60.9706 210.422 60.7694 210.422 60.6257C210.422 60.252 208.726 60.3095 198.924 60.9419C189.61 61.5456 181.36 62.2067 177.91 62.6667C176.732 62.8104 175.553 62.9541 175.266 62.9541C174.834 62.9541 174.806 63.0404 175.064 63.529C175.266 63.9027 175.582 64.0752 175.869 63.989C176.128 63.9027 177.853 63.644 179.664 63.3853V63.3853ZM139.62 60.482C143.53 60.252 147.181 60.137 147.698 60.2232C148.992 60.4532 148.848 60.137 147.296 59.4471C146.031 58.9009 145.628 58.8722 139.247 59.0734C133.842 59.2459 132.434 59.2171 132.06 58.9009C131.801 58.6997 131.169 57.6936 130.651 56.6587C129.387 54.1578 126.397 51.1394 123.896 49.9321L122.028 49.0122L110.385 48.926C103.228 48.8685 98.427 48.9547 97.9958 49.1272C97.5359 49.3284 101.043 49.4147 108.919 49.4147L120.533 49.4434L121.74 50.1621C123.321 51.0532 124.069 52.0881 125.995 55.9113C127.691 59.3034 128.093 59.8208 129.645 60.482C130.91 61.0281 131.025 61.0281 139.62 60.482V60.482ZM271.939 60.3957C271.939 60.252 271.996 59.9645 272.083 59.7346C272.198 59.4471 271.307 59.3609 267.483 59.3609L262.74 59.3321L266.247 59.8495C268.202 60.137 269.927 60.4245 270.07 60.482C270.617 60.7119 271.939 60.6544 271.939 60.3957V60.3957ZM261.82 59.0159C261.533 58.9584 261.073 58.9584 260.814 59.0159C260.527 59.1021 260.757 59.1596 261.303 59.1596C261.849 59.1596 262.079 59.1021 261.82 59.0159ZM282.949 58.1535C282.575 58.096 282 58.096 281.655 58.1535C281.281 58.211 281.569 58.2685 282.288 58.2685C283.006 58.2685 283.294 58.211 282.949 58.1535ZM287.261 57.8661C286.887 57.8086 286.312 57.8086 285.967 57.8661C285.593 57.9235 285.881 57.981 286.599 57.981C287.318 57.981 287.606 57.9235 287.261 57.8661Z" fill="black"/>
<path d="M203.092 266.333C188.632 262.079 177.795 250.81 171.097 233.131C168.395 226.031 165.923 215.424 164.831 206.398C164.198 201.309 164.112 189.782 164.658 185.7C166.412 172.621 171.27 162.876 179.462 156.034C181.446 154.396 182.395 154.281 185.212 155.344C199.269 160.634 210.537 177.795 217.407 204.414C219.218 211.428 219.736 216.401 219.765 227.095C219.765 234.713 219.678 237.041 219.247 239.743C217.666 249.833 214.447 257.796 209.071 264.982C207.605 266.908 207.432 267.052 206.455 267.023C205.851 267.023 204.357 266.707 203.092 266.333V266.333Z" fill="black"/>
<path d="M294.504 293.067C291.026 292.837 283.983 292.464 278.838 292.205C257.221 291.141 247.045 290.02 237.156 287.577L232.988 286.542L224.853 288.41L216.689 290.25L208.093 286.513C203.379 284.443 199.527 282.719 199.585 282.69C199.613 282.661 200.562 282.805 201.654 283.064C203.178 283.38 204.644 283.437 207.691 283.322C214.676 283.035 230.832 280.62 234.109 279.384C239.513 277.372 245.464 271.105 253.397 259.089C256.588 254.26 256.531 254.289 259.463 254.72C263.171 255.237 266.419 256.991 267.224 258.946C267.483 259.52 268.374 261.446 269.208 263.2L270.731 266.391L276.452 266.592C289.014 267.023 308.59 265.902 323.682 263.861C336.244 262.165 352.917 258.658 363.639 255.41L366.082 254.691L369.819 250.839L373.556 247.016L382.037 244.199C397.157 239.197 406.787 235.46 415.382 231.349C418.142 229.998 421.333 228.503 422.454 227.986L424.523 227.037L431.882 232.125C438.925 237.012 439.27 237.3 439.989 238.794C440.851 240.519 440.851 242.1 439.96 244.774C439.529 246.125 439.27 246.355 435.993 248.712C406.845 269.409 378.156 282.316 347.484 288.583C329.92 292.176 309.05 293.93 294.504 293.067V293.067Z" fill="white"/>
<path d="M190.156 275.273C179.089 273.06 168.51 262.941 160.519 246.93C155.229 236.294 152.01 225.313 150.141 211.572C149.423 206.081 149.423 191.708 150.141 186.706C152.613 170.034 158.851 158.305 167.878 153.418C177.019 148.445 187.655 151.147 197.515 160.979C209.502 172.88 217.867 191.967 220.943 214.447C221.547 218.902 221.806 231.694 221.374 236.15C219.621 254.634 212.894 268.202 202.948 273.347C199.096 275.36 194.267 276.078 190.156 275.273ZM208.209 264.12C213.584 256.933 216.804 248.971 218.385 238.881C218.787 236.236 218.902 233.879 218.902 227.095C218.873 214.533 217.954 208.784 213.958 196.509C206.8 174.374 196.911 160.921 184.321 156.207C183.257 155.804 182.222 155.574 181.906 155.689C180.641 156.063 174.863 162.215 172.937 165.204C167.504 173.541 165.147 182.653 165.176 195.33C165.204 203.667 166.067 210.48 168.338 220.196C174.116 244.687 186.361 260.268 203.954 265.471C205.219 265.845 206.34 266.161 206.455 266.161C206.541 266.19 207.346 265.241 208.209 264.12V264.12Z" fill="white"/>
<path d="M328.224 245.205C325.809 244.831 321.813 243.423 318.738 241.87C315.288 240.146 311.494 237.645 310.804 236.639C309.596 234.914 309.251 232.24 309.97 230.458C310.401 229.481 315.949 224.019 318.594 221.949C323.854 217.896 331.156 215.568 337.336 215.97C345.012 216.487 350.761 221.691 350.761 228.13C350.79 235.604 344.753 242.589 336.445 244.745C334.232 245.32 330.322 245.521 328.224 245.205V245.205ZM333.801 241.755C341.62 239.341 346.995 229.883 344.58 222.812C343.114 218.615 338.946 216.229 334.232 216.976C327.103 218.069 320.98 225.284 320.98 232.528C321.009 239.829 326.729 243.94 333.801 241.755V241.755Z" fill="white"/>
<path d="M322.417 235.345C321.353 231.062 322.704 225.715 325.205 224.249C325.982 223.818 326.039 223.818 326.556 224.45C328.195 226.434 326.988 231.407 324.056 234.856C322.906 236.179 322.647 236.265 322.417 235.345V235.345Z" fill="white"/>
<path d="M124.184 225.916C91.2405 211.687 85.2325 209.071 70.7157 202.517L61.6607 198.435L52.4619 197.917C46.5689 197.601 42.8894 197.285 42.257 197.026C40.6759 196.423 31.6784 191.91 31.6496 191.708C31.6209 191.593 32.1096 191.45 32.7133 191.363C33.2882 191.277 35.7891 190.875 38.2325 190.443L42.6882 189.696L44.0105 188.316C47.1438 184.982 50.7659 175.467 51.8007 167.82C52.0019 166.44 52.2319 165.291 52.3469 165.291C52.6918 165.291 147.267 205.794 147.497 206.024C147.612 206.139 148.043 208.266 148.445 210.767C149.883 219.535 151.866 227.9 154.252 235.23C154.971 237.415 155.517 239.254 155.459 239.283C155.402 239.341 141.345 233.304 124.184 225.916V225.916Z" fill="white"/>
<path d="M274.382 214.734C268.173 214.418 259.434 213.699 254.26 213.067L250.236 212.578L248.166 206.685C230.487 156.609 208.295 130.335 179.836 125.765C177.22 125.333 176.703 125.333 173.857 125.765C162.646 127.403 154.511 132.779 148.848 142.294C144.565 149.48 141.805 159.11 140.54 171.184C140.224 174.346 139.85 177.536 139.764 178.284L139.563 179.635L137.694 178.37C135.97 177.163 132.06 175.812 82.9328 159.398C40.446 145.197 29.9249 141.575 29.4075 141C28.5163 139.994 27.8552 138.068 24.6931 127.116C23.112 121.683 21.3585 115.991 20.8123 114.467C18.2539 107.568 15.0919 103.055 11.6423 101.417C9.48635 100.41 8.76769 100.41 7.12916 101.445C5.17442 102.681 3.90959 104.579 2.81724 107.798L2.2998 109.379L2.44354 105.355C2.58727 100.784 3.13344 96.8746 4.13956 92.8789C4.57075 91.1541 5.03069 88.0496 5.31815 84.6288C6.06555 75.7462 7.33039 70.4856 9.91754 65.3976L11.3836 62.523L14.9769 62.3792C19.1163 62.2067 20.2949 61.7756 21.5885 59.9645C22.0484 59.3321 24.2044 55.9113 26.3604 52.3468C31.4484 43.9529 36.2778 36.3927 39.2961 32.1095C40.5897 30.241 41.6821 28.5162 41.6821 28.2863C41.6821 28.0275 41.3659 27.8838 40.8484 27.8838C40.0435 27.8838 34.7542 28.8899 31.2472 29.7236C30.3561 29.9248 29.6087 30.0398 29.6087 29.9823C29.6087 29.4649 31.7646 26.9639 34.3518 24.4918C39.7848 19.2312 43.9243 16.989 50.8234 15.523C64.3341 12.6771 80.8056 10.5499 110.098 7.90522C118.089 7.18657 127.863 6.26669 131.801 5.86424C138.614 5.14559 139.534 5.11684 149.624 5.28932C177.508 5.778 210.94 8.0777 235 11.211C244.371 12.4184 251.615 13.7982 251.155 14.2869C251.069 14.3444 249.229 14.1431 247.016 13.8269C225.83 10.7223 199.039 9.42877 167.878 10.0324C150.918 10.3774 135.97 10.8086 135.826 10.9811C135.797 11.0386 144.996 24.463 156.293 40.8196L176.847 70.5719L177.91 70.4856C178.485 70.4569 185.47 69.767 193.462 68.9908C205.133 67.8123 208.64 67.3811 211.285 66.7199C216.344 65.4551 223.674 64.4777 233.419 63.8165C243.365 63.1266 259.837 62.6954 293.786 62.2355C300.34 62.1493 310.775 61.948 316.927 61.7756L328.138 61.5168L334.606 62.4942C338.17 63.0404 348.318 64.4777 357.171 65.6563C388.447 69.9107 399.629 71.6355 412.22 74.1652C422.77 76.2924 430.359 78.2471 432.86 79.5119C435.792 80.9493 438.782 83.8526 441.311 87.6759C443.065 90.3205 443.237 90.723 442.778 90.8954C442.145 91.1541 432.63 92.5627 424.725 93.5401C383.33 98.8006 333.571 99.4043 276.538 95.4373C264.177 94.5749 238.277 92.3615 234.655 91.8728L233.735 91.7291L234.598 94.23C236.696 100.18 239.082 104.262 242.129 107.137C245.607 110.385 249.948 112.196 258.658 114.007C267.081 115.761 270.502 116.824 275.475 119.325C279.93 121.568 282.719 123.724 287.951 128.984C290.681 131.715 293.872 134.618 294.993 135.423C297.437 137.148 301.691 139.333 304.652 140.396C313.793 143.673 327.937 145.168 346.478 144.766C352.486 144.622 355.677 144.68 356.481 144.881C358.551 145.456 361.225 148.417 367.319 156.954C370.165 160.95 370.682 161.554 372.292 162.473C375.195 164.198 376.201 164.284 381.289 163.307C383.675 162.847 388.016 162.186 390.948 161.841C418.516 158.708 435.821 154.539 449.159 147.813C450.28 147.267 452.149 146.462 453.327 146.002L455.483 145.226V142.897C455.455 141.632 455.397 140.511 455.311 140.425C455.225 140.339 454.161 140.741 452.925 141.287C444.301 145.283 420.097 151.032 395.548 154.913C385.918 156.437 384.94 156.81 381.232 160.202L379.306 161.985L380.542 160.49C382.382 158.276 384.452 156.494 386.205 155.661C387.786 154.942 388.361 154.827 401.153 152.786C416.733 150.314 434.815 146.261 444.445 143.07C448.268 141.805 454.017 139.476 454.765 138.902C454.851 138.844 454.477 138.01 453.96 137.091L453.04 135.366L454.19 133.411C455.541 131.169 455.598 130.364 454.621 128.237C454.218 127.374 453.931 126.656 453.96 126.627C454.017 126.569 454.477 126.454 454.966 126.339C455.828 126.167 456.058 126.282 457.668 127.806C461.951 131.916 464.711 138.183 466.579 148.043L467.183 151.349L466.551 156.81C466.177 159.829 465.746 162.416 465.573 162.617C465.113 163.106 454.247 167.447 447.147 169.976C432.86 175.064 420.039 178.715 390.114 186.16C374.16 190.098 374.074 190.156 369.302 193.577C364.789 196.796 360.218 201.654 356.309 207.404C353.808 211.083 353.434 211.486 351.853 212.291C349.985 213.21 348.203 213.527 343.517 213.728C341.217 213.814 335.008 214.102 329.719 214.332C318.565 214.82 281.741 215.108 274.382 214.734V214.734ZM123.321 70.7156L125.477 69.7095L134.245 69.7382C141.949 69.7382 143.415 69.8245 146.404 70.3707C151.981 71.4055 155.977 71.6642 162.703 71.463C168.251 71.3193 173.34 70.8019 173.8 70.3707C174.259 69.9107 151.435 36.2489 137.062 16.2416C132.98 10.5211 132.233 9.62999 131.629 9.68748C130.45 9.80247 95.8974 14.6606 95.2362 14.8043C94.69 14.948 94.3451 15.7242 92.8503 20.3523C88.6246 33.3168 85.4912 46.6551 83.249 61.2294C82.8753 63.6728 82.5591 65.7138 82.5879 65.7425C82.6166 65.7713 84.5139 65.9438 86.7848 66.145C89.0845 66.3462 90.953 66.6624 90.9818 66.8349C91.0393 66.9786 91.1542 67.496 91.2692 67.9272C91.3842 68.5022 91.7292 68.8471 92.3616 69.1346C93.4252 69.5658 105.987 71.1756 111.248 71.5493C113.231 71.693 116.278 71.7792 118.003 71.7505C120.935 71.693 121.309 71.6355 123.321 70.7156V70.7156ZM80.8919 64.6214C82.2429 56.285 82.7029 53.7266 83.5365 49.5872C85.3475 40.8771 88.0784 30.4997 91.3842 19.9786C92.1604 17.4777 92.7928 15.3505 92.7353 15.3217C92.5916 15.178 58.6136 22.7095 57.6649 23.1119C55.6815 23.9456 48.2075 33.978 43.5506 42.0844C41.4808 45.7064 38.405 51.8294 36.6802 55.7964C35.6166 58.2685 35.3579 59.1884 35.3579 60.5107C35.3579 62.3217 35.6454 63.0691 36.5652 63.5578C37.1114 63.8453 69.9971 65.3976 78.2472 65.5126L80.7481 65.5413L80.8919 64.6214V64.6214Z" fill="white"/>
<path d="M152.499 63.2416C152.154 62.6954 149.595 61.5743 148.072 61.2869C147.008 61.0856 144.105 61.1431 138.557 61.4593C127.777 62.063 127.777 62.0918 125.132 56.8312C123.206 52.9505 122.459 51.9444 120.878 51.0245L119.67 50.3058H108.057C98.9445 50.3058 96.0986 50.3921 94.8625 50.7083C94.0001 50.9382 93.224 51.082 93.1665 51.0245C92.9653 50.7945 94.7475 49.4147 96.1561 48.7248L97.6509 47.9774L110.27 48.0636L122.89 48.1499L124.759 49.0697C127.173 50.2483 130.278 53.2954 131.428 55.6239C132.951 58.6135 132.233 58.4122 139.994 58.1823C146.491 57.9811 146.836 58.0098 148.129 58.5847C149.48 59.1884 152.24 61.6893 152.901 62.8967C153.217 63.5291 152.872 63.8453 152.499 63.2416V63.2416Z" fill="white"/>
<path d="M12.9071 186.563C8.13523 184.033 3.8808 172.937 1.83982 157.673C1.23615 153.275 1.00618 141 1.40862 136.688C2.44349 125.966 5.17437 118.348 8.65266 116.537C9.68752 116.02 11.5848 116.02 12.6196 116.566C13.7407 117.141 16.1554 119.814 17.219 121.711C24.4631 134.561 26.9352 163.278 22.0771 178.514C20.6398 182.969 18.9725 185.672 16.9316 186.735C15.8392 187.281 14.1432 187.224 12.9071 186.563ZM22.1059 170.752C24.0894 157.472 22.6233 140.224 18.6563 129.875C17.564 127.087 17.5065 127.144 16.6728 132.089C14.8331 142.897 15.4655 155.287 18.3976 165.434C19.375 168.913 21.2722 173.483 21.5597 173.138C21.6747 173.023 21.9047 171.931 22.1059 170.752Z" fill="white"/>
<path d="M353.434 132.405C353.607 132.319 355.849 132.146 358.465 131.945C375.598 130.824 393.938 128.955 410.007 126.713L416.561 125.822L415.555 124.787C413.025 122.2 413.025 118.98 415.555 116.163C419.953 111.276 429.583 110.96 433.866 115.531C435.016 116.767 436.051 118.837 435.706 119.182C435.62 119.268 435.476 118.952 435.361 118.463C435.102 117.227 432.745 115.215 430.877 114.582C427.427 113.49 424.121 113.72 420.93 115.272C414.434 118.463 416.216 125.161 423.863 126.512C427.513 127.144 431.768 125.937 434.01 123.637C435.074 122.516 435.332 122.43 438.983 121.568C441.11 121.108 444.703 120.188 447.003 119.555C452.637 118.032 452.58 118.089 452.35 113.289L452.178 109.667L453.155 112.11C453.701 113.461 454.247 115.013 454.333 115.588C454.592 116.997 453.902 118.549 452.695 119.297C451.286 120.159 443.755 122.516 438.523 123.724C435.993 124.327 433.607 124.988 433.205 125.218C428.634 127.777 425.846 128.467 422.224 127.863C419.349 127.403 419.206 127.432 412.364 128.294C400.118 129.846 387.7 130.881 369.963 131.772C359.758 132.29 353.061 132.549 353.434 132.405V132.405Z" fill="white"/>
<path d="M352.284 108.977C350.876 108.747 350.905 108.747 353.003 108.718C356.108 108.632 371.458 107.884 380.024 107.367C401.527 106.073 419.522 104.09 434.211 101.445C438.897 100.612 445.163 99.3181 446.198 99.0019C447.377 98.6282 446.945 96.5872 445.163 94.1438C444.818 93.6838 444.416 93.1089 444.301 92.9077C443.841 92.1603 445.134 93.0514 446.227 94.2588C447.607 95.811 448.153 96.9034 448.153 98.2832C448.153 100.037 447.463 100.41 442.059 101.445C422.942 105.125 399.974 107.683 377.437 108.632C368.008 109.034 354.009 109.207 352.284 108.977V108.977Z" fill="white"/>
<path d="M173.943 63.7878C173.598 62.9829 173.34 62.293 173.397 62.2355C173.8 61.9193 189.581 60.5682 200.361 59.9358C204.558 59.7058 208.669 59.4471 209.502 59.3896C211.026 59.2459 211.055 59.2746 211.457 60.2233C211.687 60.7694 211.86 61.3156 211.86 61.4593C211.86 61.6031 210.077 61.8043 207.921 61.9193C195.187 62.5517 178.313 64.1902 175.036 65.1389C174.691 65.2251 174.403 64.8514 173.943 63.7878V63.7878Z" fill="white"/>
<path d="M267.483 61.0856C259.176 59.6196 250.178 58.9297 239.542 58.9297C232.384 58.9297 231.982 58.9009 231.982 58.4122C231.982 57.9236 232.327 57.8373 234.799 57.6936C241.87 57.2049 255.467 57.5211 264.781 58.3835C267.828 58.671 268.892 58.6422 271.68 58.2685C275.388 57.7223 279.988 57.3199 285.018 57.0324L288.468 56.86L288.813 57.8086C289.014 58.326 289.158 58.7859 289.1 58.8147C289.072 58.8434 285.938 59.0159 282.144 59.1884C273.089 59.6196 273.146 59.6196 272.916 60.8269C272.686 62.0055 272.744 62.0055 267.483 61.0856V61.0856Z" fill="white"/>
<path d="M289.876 56.2275C289.618 55.7963 289.474 55.3939 289.56 55.3076C289.646 55.1927 291.889 55.1352 294.505 55.1352C298.529 55.1352 299.391 55.1927 299.765 55.5951C300.196 56.0263 300.053 56.0551 297.954 56.0551C295.827 56.0551 292.579 56.4 291.026 56.8025C290.538 56.9174 290.25 56.7737 289.876 56.2275Z" fill="white"/>
</g>
<defs>
<clipPath id="clip0">
<rect width="470" height="293.786" fill="white"/>
</clipPath>
</defs>
</svg>
