<svg width="15" height="15" viewBox="0 0 15 15" fill="none" xmlns="http://www.w3.org/2000/svg">
<g clip-path="url(#clip0)">
<path d="M9.15207 7.50049L14.7604 1.89195C14.9146 1.73756 14.9998 1.53159 15 1.31195C15 1.0922 14.9149 0.885977 14.7604 0.73183L14.2689 0.240489C14.1144 0.0857327 13.9084 0.000976562 13.6885 0.000976562C13.469 0.000976562 13.263 0.0857327 13.1085 0.240489L7.50024 5.84866L1.89171 0.240489C1.73744 0.0857327 1.53134 0.000976562 1.31159 0.000976562C1.09207 0.000976562 0.885976 0.0857327 0.731707 0.240489L0.24 0.73183C-0.08 1.05183 -0.08 1.57232 0.24 1.89195L5.84841 7.50049L0.24 13.1088C0.0856098 13.2634 0.000609756 13.4694 0.000609756 13.689C0.000609756 13.9087 0.0856098 14.1146 0.24 14.2691L0.731585 14.7605C0.885854 14.9151 1.09207 15 1.31146 15C1.53122 15 1.73732 14.9151 1.89159 14.7605L7.50012 9.1522L13.1084 14.7605C13.2629 14.9151 13.4689 15 13.6884 15H13.6887C13.9083 15 14.1143 14.9151 14.2688 14.7605L14.7602 14.2691C14.9145 14.1148 14.9996 13.9087 14.9996 13.689C14.9996 13.4694 14.9145 13.2634 14.7602 13.1089L9.15207 7.50049Z" fill="white" fill-opacity="0.99"/>
</g>
<defs>
<clipPath id="clip0">
<rect width="15" height="15" fill="white"/>
</clipPath>
</defs>
</svg>
