<svg width="23" height="22" viewBox="0 0 23 22" fill="none" xmlns="http://www.w3.org/2000/svg">
<g clip-path="url(#clip0)">
<path d="M10.2722 5.77645C10.6288 5.77645 10.9178 5.48787 10.9178 5.13192V4.09637C10.9178 3.74042 10.6288 3.45184 10.2722 3.45184C9.91562 3.45184 9.62654 3.74042 9.62654 4.09637V5.13192C9.62654 5.48787 9.91562 5.77645 10.2722 5.77645Z" fill="#FCDB50"/>
<path d="M10.2722 16.2236C9.91562 16.2236 9.62654 16.5122 9.62654 16.8682V17.9037C9.62654 18.2597 9.91562 18.5482 10.2722 18.5482C10.6288 18.5482 10.9178 18.2597 10.9178 17.9037V16.8682C10.9178 16.5122 10.6288 16.2236 10.2722 16.2236Z" fill="#FCDB50"/>
<path d="M4.39387 10.3555H3.35652C2.99995 10.3555 2.71087 10.644 2.71087 11C2.71087 11.356 2.99995 11.6445 3.35652 11.6445H4.39387C4.75044 11.6445 5.03952 11.356 5.03952 11C5.03952 10.644 4.75044 10.3555 4.39387 10.3555Z" fill="#FCDB50"/>
<path d="M12.6778 10.3556H10.9178V7.89343C10.9178 7.53748 10.6288 7.2489 10.2722 7.2489C9.91562 7.2489 9.62654 7.53748 9.62654 7.89343V11.0001C9.62654 11.356 9.91562 11.6446 10.2722 11.6446H12.6778C13.0344 11.6446 13.3235 11.356 13.3235 11.0001C13.3235 10.6441 13.0344 10.3556 12.6778 10.3556Z" fill="#FCDB50"/>
<path d="M6.23355 6.05686L5.8397 5.6637C5.58759 5.41199 5.17877 5.41199 4.92662 5.6637C4.67447 5.91541 4.67447 6.32349 4.92662 6.5752L5.32047 6.96836C5.57253 7.22003 5.9814 7.22012 6.23355 6.96836C6.48574 6.71665 6.48574 6.30858 6.23355 6.05686Z" fill="#FCDB50"/>
<path d="M15.2239 15.0317C14.9718 14.78 14.563 14.78 14.3108 15.0317C14.0587 15.2834 14.0587 15.6915 14.3108 15.9432L14.7047 16.3363C14.9567 16.588 15.3656 16.5881 15.6178 16.3363C15.8699 16.0846 15.8699 15.6766 15.6178 15.4248L15.2239 15.0317Z" fill="#FCDB50"/>
<path d="M14.7047 5.6637L14.3109 6.05686C14.0587 6.30858 14.0587 6.71665 14.3109 6.96836C14.5629 7.22003 14.9718 7.22012 15.224 6.96836L15.6178 6.5752C15.87 6.32349 15.87 5.91541 15.6178 5.6637C15.3657 5.41199 14.9568 5.41199 14.7047 5.6637Z" fill="#FCDB50"/>
<path d="M5.83971 16.3363L6.23355 15.9432C6.4857 15.6915 6.4857 15.2834 6.23355 15.0317C5.98145 14.78 5.57262 14.78 5.32047 15.0317L4.92662 15.4248C4.67447 15.6766 4.67447 16.0846 4.92662 16.3363C5.17869 16.588 5.58756 16.5881 5.83971 16.3363Z" fill="#FCDB50"/>
<path d="M20.0647 9.06644C19.1604 4.49435 15.1136 1.03558 10.2722 1.03558C4.76825 1.03558 0.290436 5.50562 0.290436 11C0.290436 16.4945 4.76825 20.9645 10.2722 20.9645C10.6288 20.9645 10.9179 20.6759 10.9179 20.32C10.9179 19.964 10.6288 19.6754 10.2722 19.6754C5.48027 19.6754 1.58174 15.7837 1.58174 11C1.58174 6.21641 5.48027 2.32465 10.2722 2.32465C14.3986 2.32465 17.8622 5.21043 18.7448 9.06644H20.0647Z" fill="#FCDB50"/>
<path d="M22.2449 10.6824C22.1303 10.4804 21.9157 10.3555 21.6831 10.3555H17.5337C17.301 10.3555 17.0864 10.4804 16.9718 10.6824C16.8572 10.8845 16.8603 11.1325 16.98 11.3316L19.0547 14.7834C19.1714 14.9775 19.3816 15.0963 19.6083 15.0963C19.8351 15.0963 20.0452 14.9775 20.1619 14.7834L22.2366 11.3316C22.3564 11.1325 22.3595 10.8845 22.2449 10.6824Z" fill="#FCDB50"/>
</g>
<defs>
<clipPath id="clip0">
<rect width="22.0383" height="22" fill="white" transform="translate(0.290436)"/>
</clipPath>
</defs>
</svg>
