<svg width="30" height="30" viewBox="0 0 30 30" fill="none" xmlns="http://www.w3.org/2000/svg">
<path d="M4.60547 10.9605C4.31719 11.9748 4.1373 13.0295 4.07402 14.1105H0C0.0791016 13.0137 0.329883 11.9578 0.680859 10.9605H4.60547Z" fill="white"/>
<path d="M4.6002 19.0189H0.673242C0.324609 18.0217 0.0767578 16.9652 0 15.8684H4.07285C4.13496 16.95 4.31309 18.0041 4.6002 19.0189Z" fill="white"/>
<path d="M10.302 27.0305C6.46879 26.441 3.22504 24.0639 1.44965 20.7768H5.22074C6.2766 23.2477 8.0139 25.4057 10.302 27.0305Z" fill="white"/>
<path d="M14.2681 27.0305C18.1013 26.441 21.3451 24.0639 23.1205 20.7768H19.3494C18.2935 23.2477 16.5562 25.4057 14.2681 27.0305Z" fill="white"/>
<path d="M10.3019 2.96954C8.02026 4.58965 6.28589 6.74062 5.22886 9.20273H1.46069C3.23843 5.92617 6.4769 3.55782 10.3019 2.96954Z" fill="white"/>
<path d="M14.0315 2.96954C16.3131 4.58965 18.0475 6.74062 19.1045 9.20273H22.8727C21.095 5.92617 17.8565 3.55782 14.0315 2.96954Z" fill="white"/>
<path d="M11.2875 4.42558V9.20273H7.17126C8.11052 7.33535 9.50916 5.69824 11.2875 4.42558Z" fill="white"/>
<path d="M13.0453 4.42558V9.20273H17.1615C16.2223 7.33535 14.8236 5.69824 13.0453 4.42558Z" fill="white"/>
<path d="M11.2876 10.9605V14.1105H5.83484C5.90867 13.0236 6.11492 11.9678 6.44597 10.9605H11.2876Z" fill="white"/>
<path d="M11.2875 15.8684V19.0189H6.43883C6.11012 18.0111 5.90504 16.9553 5.83356 15.8684H11.2875Z" fill="white"/>
<path d="M11.2875 20.7768V25.7033C9.50218 24.4266 8.09944 22.6529 7.16077 20.7768H11.2875Z" fill="white"/>
<path d="M13.0453 20.7768V25.7033C14.8306 24.4266 16.2334 22.6529 17.1721 20.7768H13.0453Z" fill="white"/>
<path d="M13.0453 10.9605H15.0176V14.1105H13.0453V10.9605Z" fill="white"/>
<path d="M13.0453 15.8684H15.0176V19.0189H13.0453V15.8684Z" fill="white"/>
<path d="M28.2879 10.9605L23.3713 13.96L18.4547 10.9605H28.2879Z" fill="#C4A106"/>
<path d="M30 11.99V19.0189H16.7678V11.99L23.3713 16.0195L30 11.99Z" fill="#C4A106"/>
</svg>
