<svg width="120" height="120" viewBox="0 0 120 120" fill="none" xmlns="http://www.w3.org/2000/svg">
<path d="M60 0C26.8378 0 0 26.8352 0 60C0 93.1624 26.8352 120 60 120C93.1622 120 120 93.1648 120 60C120 26.8376 93.1648 0 60 0ZM60 110.625C32.0194 110.625 9.375 87.9827 9.375 60C9.375 32.0191 32.0173 9.375 60 9.375C87.9806 9.375 110.625 32.0173 110.625 60C110.625 87.9809 87.9827 110.625 60 110.625Z" fill="url(#paint0_linear)"/>
<path d="M80.5279 73.8989L66.629 60L80.5279 46.1011C82.3584 44.2706 82.3586 41.3027 80.5282 39.472C78.6972 37.6413 75.7294 37.6415 73.8991 39.472L60 53.3709L46.1008 39.472C44.2706 37.6413 41.3023 37.6413 39.4718 39.472C37.6413 41.3027 37.6413 44.2706 39.472 46.1011L53.3709 60L39.472 73.8989C37.6413 75.7296 37.6411 78.6975 39.4718 80.5279C41.303 82.3589 44.2708 82.3582 46.1008 80.5279L60 66.629L73.8991 80.5279C75.7291 82.3584 78.6975 82.3587 80.5282 80.5279C82.3589 78.6972 82.3586 75.7294 80.5279 73.8989Z" fill="url(#paint1_linear)"/>
<defs>
<linearGradient id="paint0_linear" x1="60" y1="0" x2="60" y2="120" gradientUnits="userSpaceOnUse">
<stop stop-color="#F44336"/>
<stop offset="1" stop-color="#AB170C"/>
</linearGradient>
<linearGradient id="paint1_linear" x1="60" y1="38.099" x2="60" y2="81.9009" gradientUnits="userSpaceOnUse">
<stop stop-color="#F44336"/>
<stop offset="1" stop-color="#AB170C"/>
</linearGradient>
</defs>
</svg>
