<svg width="100" height="100" viewBox="0 0 100 100" fill="none" xmlns="http://www.w3.org/2000/svg">
<g clip-path="url(#clip0)">
<path d="M41.1792 85.6196C40.9721 85.5048 40.596 85.3314 40.34 85.2373C38.3457 84.4702 37.0277 83.5679 35.7116 82.0814C34.4011 80.6011 33.4502 78.9057 32.7103 76.711C32.5146 76.1437 32.4252 75.959 32.2938 75.873C32.1516 75.7684 32.1058 75.6462 31.9309 74.9431C31.5597 73.4044 31.2984 71.8251 31.1301 70.0967C31.0749 69.5684 31.0151 69.1113 30.9929 69.086C30.9652 69.0544 13.3931 60.1174 12.2608 59.5671C12.2264 59.5469 12.1614 59.7216 12.0944 60.0214C11.7489 61.5853 10.9166 63.398 10.2418 64.064C10.0132 64.2818 9.90813 64.3406 9.70446 64.3572C9.56683 64.3662 9.07487 64.4179 8.61258 64.4714C7.89799 64.5564 7.73701 64.5579 7.52762 64.4788C7.32932 64.4123 7.14499 64.4063 6.55809 64.4518C5.72559 64.5172 5.32363 64.4674 4.72034 64.2136C3.89617 63.8741 3.45275 63.4518 2.98628 62.5569C1.77897 60.2187 1.39994 57.0515 1.8429 52.876C2.04683 50.9212 2.06105 50.7015 2.03467 49.7278C1.99724 48.5565 2.13244 46.651 2.30721 45.7917C2.37851 45.4266 2.54461 44.7933 2.66645 44.3837C2.81856 43.8748 2.93066 43.3393 3.02001 42.6951C3.36786 40.0818 3.79199 38.684 4.64737 37.3439C4.87332 36.9829 5.3982 36.1462 5.81067 35.4811C6.88799 33.7499 7.78205 32.3646 8.58475 31.194C9.19731 30.2914 9.35872 30.0991 9.9151 29.6044C10.8766 28.7423 11.862 28.156 12.7717 27.9107C13.1844 27.7943 16.4187 27.3536 18.375 27.1402C21.687 26.788 25.1899 26.5256 29.5357 26.3119C30.9643 26.2433 31.3155 26.2481 32.8999 26.3506C38.0742 26.6854 46.2692 27.7643 51.7661 28.8236C53.7671 29.2095 54.7572 29.4703 55.3705 29.7545C57.209 30.6248 60.0856 32.3972 62.5616 34.1914C64.2295 35.3966 65.1993 36.157 70.1741 40.1285L71.1708 40.9324L72.2808 41.1831C72.8858 41.3177 75.213 41.8201 77.4408 42.2922C84.0708 43.7051 87.1737 44.4665 90.2038 45.4318C92.609 46.2016 92.9929 46.5306 94.2066 48.8633C95.3197 50.9986 95.8635 52.8169 96.2392 55.6678L96.3479 56.4739L96.6828 56.8236C97.5528 57.7446 98.0936 59.2406 98.3283 61.4145L98.3948 62.045L98.06 63.8123C97.7683 65.3737 97.7339 65.6279 97.7635 65.9996C97.8193 66.6115 97.6554 69.0518 97.5251 69.592C97.2507 70.7013 96.879 71.5658 96.515 71.9418C96.4069 72.0481 95.7912 72.3542 94.8099 72.7856C93.2764 73.4617 93.2764 73.4617 93.1464 73.7216C92.6743 74.6631 91.5004 75.4936 89.2883 76.4358C88.2283 76.886 88.111 76.95 88.1827 77.0381C88.2545 77.1262 88.1126 77.2005 86.7913 77.7293C85.9783 78.0464 85.0372 78.4089 84.6957 78.5299C83.6589 78.8982 81.1383 79.6356 79.2533 80.1278L77.4651 80.5965L76.6426 81.3365L75.8197 82.0823L75.3058 82.1981C73.049 82.726 69.5605 83.2278 66.9447 83.4104C63.7543 83.6333 59.7521 83.601 56.9507 83.3363L55.6302 83.2091L55.3528 82.5232C55.2041 82.1499 55.0459 81.7401 55.0002 81.6179C54.8602 81.2033 54.1501 80.7578 53.4775 80.6546L53.1527 80.6098L52.5005 81.48C50.7393 83.8349 49.3956 85.0778 48.2472 85.4209C47.4752 85.6572 44.0736 85.9201 42.5637 85.8642L41.553 85.8286L41.1792 85.6196V85.6196ZM40.7404 83.6531C40.9397 83.6123 41.3109 83.4932 41.5626 83.3783C43.6845 82.4481 45.2481 79.7405 45.8634 75.9399C46.0104 75.049 46.1053 72.7533 46.0355 71.8065C45.7117 67.1401 44.2353 63.067 41.92 60.4484C40.5603 58.8994 38.925 58.0183 37.6421 58.1381C35.0518 58.3879 33.0579 60.9305 32.1531 65.1537C32.0343 65.7006 31.9819 66.2339 31.8985 67.5226C31.7852 69.2744 31.8009 69.8598 31.9967 71.5303C32.5127 75.9885 34.4031 80.2017 36.8025 82.2593C38.1911 83.4524 39.4379 83.8908 40.7404 83.6531ZM69.5082 79.2469C70.6359 79.0395 71.682 78.3439 72.2178 77.4304C72.666 76.6722 72.7598 76.0522 72.5094 75.4098C72.3825 75.0676 71.915 74.4649 71.6572 74.3051C71.5369 74.2317 71.5369 74.2317 71.6654 74.4547C71.848 74.7647 71.9023 75.0306 71.8975 75.6564C71.8887 76.6219 71.5244 77.4631 70.8327 78.116C70.3569 78.5623 69.8369 78.8626 69.2988 78.9828C68.6876 79.1282 67.8058 79.0353 67.352 78.7734C66.9556 78.545 66.6749 78.1869 66.5316 77.7304C66.3681 77.2189 66.4314 76.239 66.6661 75.6519C66.8791 75.123 67.3616 74.4804 67.8008 74.1391L68.127 73.8859L67.7673 74.0117C66.9677 74.3058 66.3644 74.6962 65.2611 75.6326C64.5293 76.2591 64.4165 76.4367 64.5095 76.8422C64.598 77.2236 64.73 77.3932 65.2414 77.7781C66.1616 78.4757 67.3676 79.0845 68.155 79.2547C68.5488 79.3398 69.0017 79.3393 69.5082 79.2469V79.2469ZM67.5275 76.4292C67.7486 76.0499 67.8659 75.5268 67.775 75.3659C67.7052 75.248 67.6179 75.308 67.4132 75.6168C67.1828 75.9537 67.0248 76.4623 67.0507 76.7979L67.0754 77.0619L67.1914 76.9263C67.2617 76.8533 67.4072 76.6302 67.5275 76.4292ZM68.5198 72.8796C69.6148 72.9028 70.9003 72.9263 71.3762 72.9392C72.3461 72.9602 72.7182 72.9187 73.1162 72.7536C73.4533 72.6084 73.5359 72.5303 74.1013 71.8036C74.9851 70.6681 75.9936 69.7255 76.9682 69.1207C77.999 68.4777 78.0175 68.467 81.3635 67.8665C87.6402 66.7281 90.3355 66.1451 93.3526 65.2848C94.858 64.8575 97.1531 64.1055 97.2546 64.0107C97.2929 63.9714 97.4075 63.4898 97.5148 62.9362L97.7055 61.9228L97.6084 61.2129C97.3583 59.2765 96.8879 57.9818 96.115 57.1268C95.8649 56.8482 95.8363 56.8285 95.8801 56.9804C95.9888 57.3273 95.9113 57.7874 95.6932 58.1192L95.4889 58.4221L95.5982 58.6677C95.655 58.8025 95.6961 58.996 95.69 59.091C95.6838 59.186 95.7136 59.2774 95.7544 59.292C95.8067 59.3133 95.8118 59.5104 95.7807 59.9914L95.7373 60.6625L95.2818 60.794C95.0324 60.8733 94.6359 61.0146 94.3972 61.1125C91.554 62.3239 87.9198 62.9594 82.1936 63.233C81.5837 63.2651 80.6848 63.3441 80.1861 63.4073C79.1706 63.5383 78.9863 63.5324 78.566 63.3978C77.9303 63.1838 77.6783 62.9349 77.0252 61.8848C75.8972 60.0706 75.3691 59.3923 74.9729 59.2534C74.8328 59.2086 74.0977 59.1491 72.9332 59.0976C69.0478 58.9177 66.1479 58.426 64.3107 57.6273C63.7137 57.368 62.8647 56.8599 62.3834 56.4709C62.1627 56.2897 61.5428 55.6473 61.0156 55.0466C60.006 53.89 59.4592 53.4074 58.5694 52.8847C57.5763 52.3016 56.8844 52.0362 55.1692 51.5615C53.3954 51.071 52.5236 50.6389 51.849 49.9214C51.2525 49.2865 50.8205 48.4117 50.4672 47.1485C50.2928 46.5289 50.2864 46.2602 50.4466 46.2705C50.5 46.274 51.2256 46.3865 52.051 46.5234C59.4575 47.7242 65.6887 48.4852 72.0634 48.9632C79.6245 49.524 85.8738 49.5466 92.1702 49.0237C92.8473 48.9662 93.4049 48.9128 93.4112 48.9072C93.4681 48.8572 92.7612 47.8097 92.4271 47.4481C91.8476 46.8262 91.4275 46.5963 89.9971 46.14C86.9203 45.1597 84.0854 44.4933 76.1509 42.8886C74.339 42.5269 72.2635 42.0944 71.535 41.934C70.4132 41.6825 70.118 41.6395 69.5884 41.6291C69.2431 41.6247 67.2403 41.5428 65.1318 41.4362C55.4615 40.9656 53.1438 40.8693 50.9861 40.8788C48.9657 40.8852 47.4395 40.9892 46.3782 41.1829C45.8175 41.2838 45.0578 41.3301 42.388 41.4257C40.5785 41.4875 39.0439 41.5373 38.9786 41.5331C38.9074 41.5285 38.8119 41.4388 38.7477 41.3273L38.6357 41.1233L38.6253 41.2836C38.6177 41.4024 38.5786 41.4535 38.4825 41.4652C37.923 41.5483 37.3143 41.5626 36.0725 41.5061C34.5274 41.4419 33.7239 41.3362 32.5806 41.0476C31.9823 40.9015 31.6634 40.857 30.257 40.766L28.6256 40.6545L28.1675 40.8276C27.6051 41.0477 27.1284 41.0467 25.6036 40.8526C24.3332 40.6869 21.6956 40.1942 21.4414 40.0704C21.3147 40.0026 21.2481 39.9267 21.2321 39.8064C21.1805 39.499 21.1694 39.4863 20.9498 39.4721C20.8371 39.4648 20.365 39.3925 19.9053 39.3151C19.4455 39.2376 17.2569 38.9887 15.043 38.7619C9.99922 38.2507 10.0641 38.2609 9.898 38.0653C9.77552 37.9321 9.76788 37.8661 9.79977 37.3732C9.8332 36.8565 9.84891 36.7979 10.1488 36.215C10.5579 35.4185 11.2746 34.1947 11.7503 33.4741C12.8199 31.8616 14.4968 29.8889 14.9174 29.7432C15.1186 29.6727 21.7578 28.6412 22.3455 28.5838C23.5382 28.4761 30.551 27.934 30.6819 27.9365C30.8065 27.9446 30.8858 28.0093 31.0099 28.2082C31.0964 28.345 31.1749 28.4216 31.1784 28.3682C31.183 28.2969 31.2972 28.2804 31.7976 28.283C34.2041 28.2956 43.3485 28.7918 45.526 29.0281C46.7983 29.1641 46.4806 29.1018 44.644 28.8458C40.6463 28.283 38.6472 28.0523 35.2109 27.7465L32.3969 27.4929L30.8141 27.5515C29.9424 27.5786 27.8884 27.6425 26.2474 27.6794C21.1977 27.8119 18.9437 27.9284 16.2328 28.2003C13.3 28.4936 12.6595 28.631 11.6389 29.209C11.1873 29.466 9.71847 30.6174 9.7688 30.6683C9.7799 30.681 10.0982 30.6419 10.4771 30.5889C10.8559 30.5359 11.3344 30.5072 11.5425 30.5147L11.9104 30.5385L11.8935 30.7998C11.8781 31.0374 11.8178 31.1408 11.3384 31.7359C10.6581 32.5805 9.56012 34.0778 8.39763 35.7439C7.90494 36.4515 7.41418 37.1294 7.31078 37.2539C7.01955 37.6107 6.7705 37.684 5.91372 37.6644L5.17006 37.6461L4.82901 38.2204C4.22695 39.2369 3.89555 40.3068 3.62254 42.1318C3.51748 42.8346 3.38104 43.4699 3.26898 43.8204C3.09792 44.3461 2.84442 45.409 2.8279 45.6644C2.82175 45.7594 2.85889 45.7379 3.01877 45.5694C3.92747 44.6025 5.24065 45.2122 5.99864 46.9429C6.37726 47.8142 6.55647 48.452 7.07715 50.8114C7.58349 53.1162 7.69422 53.5229 7.86473 53.7426C7.96385 53.8683 10.0872 54.7571 18.6618 58.2578C24.8735 60.7946 29.429 62.6815 29.5542 62.7731C29.6675 62.8639 29.7831 62.9191 29.802 62.9025C29.8214 62.8799 29.8488 62.7325 29.8595 62.5663C29.8703 62.4 29.9617 61.8155 30.0631 61.2615C31.1092 55.5925 33.4934 52.8187 37.5902 52.4934C38.3927 52.432 38.9652 52.5167 40.0168 52.8412C45.3376 54.5034 49.3237 60.2178 52.1436 70.2338L52.4921 71.4789L53.3163 71.6336C54.376 71.8333 56.1703 72.0985 57.4478 72.2467C58.9381 72.4207 66.205 72.8312 68.5198 72.8796V72.8796ZM4.32209 63.0012C4.55526 62.897 4.92478 62.5273 5.11283 62.1996C5.2666 61.9412 5.71822 60.8552 5.72629 60.7305C5.72859 60.6949 5.65299 60.6661 5.55805 60.66C5.39783 60.6496 5.37047 60.6121 5.19984 60.118C4.37768 57.7212 4.3397 53.9797 5.12554 51.2278C5.23474 50.8293 5.25408 50.8067 5.41545 50.7993L5.58868 50.7926L5.35146 50.2227C5.08764 49.6033 4.59585 48.9155 4.29536 48.7708C3.67179 48.4621 2.80953 49.7242 2.35945 51.6153C1.92738 53.4122 1.81408 55.8081 2.05646 58.0481C2.31375 60.4262 3.05292 62.4479 3.84968 62.9348C4.10193 63.0883 4.10787 63.0887 4.32209 63.0012V63.0012ZM88.2811 55.9938C88.0529 55.8359 87.8403 55.5299 87.7738 55.2692C87.6782 54.9052 87.7895 54.3817 88.0298 54.0752L88.2314 53.8139L87.9144 54.1095C87.5021 54.4943 87.4014 54.7621 87.5326 55.1283C87.5891 55.2692 87.7073 55.4676 87.808 55.5696C87.9304 55.7027 87.9769 55.8131 87.9685 55.9437C87.957 56.1219 87.9629 56.1222 88.2014 56.1198L88.4462 56.1118L88.2811 55.9938V55.9938ZM39.729 39.8821C41.2912 39.7744 43.1229 39.7379 45.3558 39.7631C45.7723 39.7722 46.1132 39.7525 46.1152 39.7228C46.1202 39.6456 45.7693 39.6348 43.7374 39.6345C41.8067 39.6348 40.0949 39.6612 39.3767 39.7102C39.1314 39.7241 38.8862 39.7381 38.8269 39.7343C38.7379 39.7285 38.7308 39.7459 38.7777 39.8503C38.8142 39.9302 38.8772 39.9701 38.9377 39.9561C38.9922 39.9417 39.3517 39.9113 39.729 39.8821V39.8821ZM31.5019 38.7475C32.312 38.7522 33.0671 38.7772 33.1728 38.8019C33.4367 38.8667 33.4113 38.7995 33.1001 38.6362C32.8463 38.5065 32.7636 38.4952 31.4436 38.4515C30.3257 38.415 30.0353 38.3902 29.9624 38.3199C29.9117 38.2749 29.7946 38.0586 29.7016 37.8379C29.474 37.3043 28.8972 36.6409 28.3971 36.358L28.0237 36.143L25.6216 35.9697C24.1448 35.8623 23.1527 35.816 23.0614 35.8458C22.9638 35.8813 23.6866 35.9459 25.3125 36.0511L27.7094 36.2122L27.949 36.3767C28.2634 36.582 28.4039 36.8057 28.7503 37.6213C29.0551 38.3447 29.1313 38.4569 29.4429 38.6143C29.6966 38.744 29.7204 38.7455 31.5019 38.7475V38.7475ZM58.8167 40.4969C58.8187 40.4672 58.8344 40.4086 58.8553 40.3622C58.8828 40.3044 58.7 40.2746 57.9108 40.2236L56.9321 40.1543L57.6491 40.308C58.0488 40.3935 58.401 40.4759 58.4299 40.4897C58.5396 40.5445 58.8133 40.5503 58.8167 40.4969V40.4969ZM56.7465 40.0767C56.6879 40.061 56.5929 40.0548 56.5388 40.0632C56.4783 40.0772 56.525 40.0922 56.6377 40.0995C56.7505 40.1068 56.7987 40.098 56.7465 40.0767ZM61.1194 40.1807C61.043 40.1638 60.9243 40.1562 60.8524 40.1634C60.7745 40.1703 60.833 40.186 60.9814 40.1956C61.1297 40.2052 61.1898 40.1972 61.1194 40.1807ZM62.0133 40.1789C61.9369 40.162 61.8183 40.1544 61.7463 40.1616C61.6684 40.1685 61.727 40.1842 61.8753 40.1938C62.0236 40.2034 62.0838 40.1954 62.0133 40.1789Z" fill="black"/>
<path d="M41.8525 82.1209C38.9246 81.0488 36.8382 78.5762 35.6919 74.8346C35.229 73.3317 34.8605 71.1073 34.7556 69.228C34.6931 68.1685 34.8293 65.786 34.9966 64.95C35.5334 62.2714 36.6665 60.3231 38.4491 59.0192C38.8805 58.7072 39.0778 58.6961 39.6451 58.9534C42.4761 60.2339 44.5728 63.9297 45.6352 69.5205C45.9153 70.9937 45.9556 72.0279 45.8186 74.2375C45.7168 75.8112 45.6679 76.291 45.5428 76.8435C45.0815 78.9068 44.3105 80.5088 43.1048 81.9216C42.7764 82.2999 42.7389 82.3273 42.5376 82.3083C42.4129 82.3002 42.1086 82.2149 41.8525 82.1209V82.1209Z" fill="black"/>
<path d="M60.365 88.8646C59.65 88.7707 58.2012 88.5994 57.1425 88.4772C52.6944 87.9688 50.6088 87.6013 48.6002 86.9644L47.7537 86.695L46.0494 86.9723L44.3396 87.2434L42.6153 86.3566C41.6698 85.866 40.8977 85.4583 40.91 85.4531C40.9163 85.4475 41.1102 85.4899 41.3322 85.5579C41.6425 85.6436 41.9443 85.6751 42.5749 85.692C44.0206 85.7259 47.3878 85.4428 48.0807 85.2313C49.2232 84.8877 50.5353 83.6726 52.3336 81.2963C53.0569 80.3412 53.0446 80.3464 53.6441 80.4746C54.4027 80.631 55.0497 81.0367 55.1898 81.4513C55.2355 81.5735 55.3937 81.9833 55.5423 82.3566L55.8142 83.0362L56.9923 83.1541C59.5797 83.411 63.6357 83.4408 66.7782 83.2208C69.394 83.0382 72.8825 82.5363 75.1393 82.0085L75.6533 81.8927L76.4762 81.1468L77.2987 80.4069L79.0868 79.9382C82.2749 79.1068 84.3127 78.4634 86.1419 77.729C86.7296 77.4868 87.4082 77.2206 87.6466 77.1287L88.0865 76.9603L89.5376 78.1097C90.9261 79.2134 90.9934 79.2773 91.1218 79.5957C91.2767 79.9636 91.2556 80.2902 91.0359 80.8306C90.9289 81.1039 90.8724 81.148 90.1644 81.5912C83.8708 85.4776 77.7763 87.7608 71.3611 88.6458C67.6874 89.1535 63.356 89.237 60.365 88.8646V88.8646Z" fill="#999999"/>
<path d="M39.0628 83.7951C36.8078 83.19 34.7594 80.9583 33.3238 77.5439C32.3741 75.276 31.8563 72.9644 31.6543 70.1009C31.5793 68.957 31.7714 65.9878 31.9866 64.9641C32.7198 61.5527 34.1642 59.2131 36.0928 58.3241C38.0462 57.4189 40.2056 58.1191 42.1095 60.2818C44.4249 62.9004 45.8965 66.9553 46.231 71.6403C46.296 72.5689 46.1785 75.215 46.0299 76.1297C45.4209 79.9247 43.851 82.6379 41.7291 83.568C40.9071 83.9323 39.9006 84.0162 39.0628 83.7951ZM42.9383 81.732C44.144 80.3192 44.9151 78.7172 45.3763 76.6539C45.4947 76.1129 45.5499 75.6275 45.6406 74.226C45.8026 71.6305 45.6896 70.4305 45.0288 67.8414C43.8471 63.1732 41.9857 60.2619 39.4497 59.1198C39.2355 59.0224 39.0249 58.9611 38.9581 58.9806C38.692 59.0409 37.4171 60.2346 36.9796 60.8265C35.7467 62.4761 35.1383 64.3271 34.9748 66.9464C34.8693 68.669 34.9562 70.0879 35.2951 72.1255C36.1605 77.2622 38.4801 80.6445 42.0421 81.9543C42.2982 82.0484 42.5254 82.1287 42.5491 82.1302C42.5665 82.1373 42.7453 81.9521 42.9383 81.732V81.732Z" fill="white"/>
<path d="M67.9651 79.4274C67.4717 79.3179 66.6657 78.9736 66.0515 78.6118C65.3625 78.2094 64.6126 77.6421 64.4837 77.4251C64.2575 77.0526 64.222 76.4957 64.3942 76.1371C64.4963 75.941 65.7145 74.8868 66.2881 74.4945C67.4282 73.7274 68.9665 73.3439 70.2369 73.5096C71.8143 73.719 72.9316 74.8707 72.8455 76.2009C72.7515 77.7453 71.4121 79.1077 69.6684 79.4422C69.2038 79.5314 68.3941 79.5207 67.9651 79.4274V79.4274ZM69.1624 78.7892C70.8087 78.3948 72.0447 76.5129 71.6408 75.0197C71.3943 74.1331 70.5657 73.5846 69.5826 73.676C68.0964 73.8065 66.736 75.2153 66.6392 76.7118C66.5476 78.2205 67.6735 79.1461 69.1624 78.7892V78.7892Z" fill="white"/>
<path d="M66.8983 77.3129C66.736 76.4138 67.0863 75.3273 67.6222 75.0579C67.7882 74.9791 67.8 74.9799 67.8984 75.1175C68.2101 75.5491 67.8944 76.5604 67.2431 77.2338C66.988 77.4916 66.9335 77.506 66.8983 77.3129V77.3129Z" fill="white"/>
<path d="M26.1042 72.7175C19.4942 69.3379 18.289 68.7173 15.3799 67.1694L13.5653 66.2052L11.6734 65.9755C10.4612 65.8314 9.70587 65.717 9.57878 65.6551C9.26049 65.5092 7.4635 64.4567 7.46026 64.4148C7.45586 64.3906 7.55866 64.3675 7.68442 64.3577C7.80425 64.3476 8.32588 64.2978 8.83602 64.2414L9.76577 64.1465L10.0572 63.8791C10.7485 63.2321 11.6234 61.3148 11.9392 59.749C11.9992 59.4667 12.062 59.2322 12.0858 59.2337C12.157 59.2383 31.1381 68.8688 31.1825 68.9194C31.2047 68.9447 31.2653 69.3899 31.3149 69.9119C31.4944 71.7423 31.792 73.4969 32.1866 75.0431C32.3057 75.504 32.3939 75.8914 32.3816 75.8966C32.369 75.9077 29.548 74.4729 26.1042 72.7175V72.7175Z" fill="#999999"/>
<path d="M57.2582 72.4134C55.9808 72.2652 54.1865 72 53.1268 71.8002L52.3026 71.6455L51.9541 70.4005C48.9741 59.8195 44.7443 54.0953 38.9309 52.771C38.3967 52.647 38.2898 52.6401 37.6966 52.6911C35.3605 52.8799 33.6094 53.8817 32.3132 55.7718C31.333 57.1992 30.6346 59.1517 30.2122 61.629C30.1046 62.278 29.9848 62.9322 29.9571 63.0855L29.8975 63.3619L29.5287 63.0756C29.1888 62.8032 28.3998 62.4719 18.4782 58.4248C9.89772 54.9238 7.77433 54.035 7.67521 53.9093C7.50471 53.6896 7.39397 53.2829 6.88763 50.9781C6.63389 49.8346 6.348 48.6353 6.25562 48.3133C5.81971 46.8539 5.22731 45.8793 4.53715 45.4947C4.10555 45.2581 3.9572 45.2485 3.60514 45.4404C3.18512 45.6696 2.89867 46.0447 2.63014 46.6952L2.5022 47.0149L2.58566 46.1854C2.67642 45.2431 2.84142 44.4428 3.10252 43.6308C3.21458 43.2802 3.35102 42.645 3.45608 41.9422C3.72908 40.1171 4.06049 39.0473 4.66255 38.0307L5.0036 37.4565L5.74725 37.4748C6.60404 37.4944 6.85309 37.4211 7.14432 37.0642C7.24772 36.9397 7.73848 36.2618 8.23117 35.5542C9.39366 33.8882 10.4916 32.3908 11.1719 31.5463C11.4639 31.1776 11.7124 30.8358 11.7155 30.7883C11.719 30.7349 11.6556 30.701 11.5488 30.6941C11.3827 30.6833 10.2774 30.8205 9.54231 30.9459C9.35567 30.9756 9.19985 30.9893 9.20062 30.9775C9.20754 30.8706 9.68601 30.3827 10.2531 29.9066C11.4449 28.8924 12.3294 28.4845 13.7731 28.2737C16.6001 27.8663 20.0286 27.6468 26.1106 27.4917C27.7698 27.4499 29.7996 27.3904 30.6179 27.3599C32.0339 27.3024 32.2242 27.3088 34.3046 27.4792C40.054 27.9525 46.9244 28.8741 51.8491 29.8428C53.7674 30.2173 55.2443 30.5991 55.1429 30.6939C55.1243 30.7047 54.7472 30.6385 54.2945 30.5436C49.9628 29.6193 44.4497 28.9943 38.0093 28.7028C34.5037 28.5476 31.4123 28.437 31.3803 28.4707C31.3736 28.4822 33.093 31.3783 35.2064 34.9082L39.0515 41.3291L39.2722 41.3255C39.3912 41.3272 40.8424 41.278 42.5024 41.2244C44.9273 41.1368 45.657 41.0946 46.2117 40.9933C47.273 40.7996 48.7992 40.6956 50.8196 40.6891C52.882 40.6794 56.2879 40.8103 63.3019 41.1687C64.656 41.2385 66.8127 41.3363 68.0849 41.3828L70.4025 41.4791L71.7246 41.7674C72.4531 41.9278 74.5285 42.3603 76.3404 42.722C82.7396 44.0186 85.0249 44.5243 87.5901 45.215C89.7394 45.7954 91.2798 46.3005 91.7792 46.5952C92.3652 46.9313 92.9435 47.571 93.4146 48.3946C93.7412 48.9644 93.7714 49.0498 93.6742 49.0793C93.5402 49.1243 91.5572 49.2882 89.9124 49.3846C81.2973 49.9185 71.0176 49.3786 59.2978 47.7974C56.7578 47.4541 51.4409 46.651 50.6998 46.5016L50.5118 46.4596L50.6564 46.9878C51.0101 48.2451 51.448 49.1202 52.0386 49.7548C52.7132 50.4723 53.585 50.9044 55.3587 51.3949C57.0739 51.8696 57.7658 52.135 58.759 52.7181C59.6488 53.2408 60.1955 53.7234 61.2052 54.88C61.7324 55.4807 62.3523 56.1231 62.5729 56.3043C63.0542 56.6933 63.9033 57.2014 64.5002 57.4607C66.3434 58.2598 69.2429 58.7575 73.0756 58.922C74.3177 58.9725 74.9756 59.027 75.1391 59.0793C75.5586 59.2257 76.0709 59.8731 77.2148 61.7182C77.7488 62.5817 77.8476 62.7133 78.1676 62.9248C78.7438 63.3199 78.9504 63.3512 80.0137 63.2172C80.5124 63.1541 81.4173 63.0755 82.0271 63.0434C87.7596 62.7643 91.3875 62.1343 94.2307 60.9228C94.4695 60.825 94.8659 60.6836 95.1154 60.6044L95.5708 60.4728L95.6019 59.9918C95.6129 59.7301 95.616 59.4977 95.5993 59.4788C95.5827 59.4598 95.3578 59.5287 95.0953 59.6251C93.2617 60.3353 88.1886 61.1998 83.0691 61.6736C81.0609 61.8597 80.8542 61.9239 80.0434 62.5751L79.622 62.9176L79.8971 62.6253C80.3065 62.1926 80.7575 61.852 81.1306 61.7032C81.4666 61.5759 81.5868 61.5598 84.2547 61.309C87.5039 61.0064 91.2905 60.4106 93.321 59.88C94.1271 59.6698 95.345 59.2655 95.507 59.1567C95.5255 59.146 95.4595 58.9688 95.365 58.7719L95.1982 58.4033L95.4617 58.0148C95.7705 57.5697 95.7932 57.4041 95.6198 56.9516C95.5483 56.7681 95.4986 56.6158 95.5049 56.6102C95.5175 56.5991 95.614 56.5815 95.7164 56.5643C95.8967 56.5402 95.9427 56.567 96.2546 56.9033C97.0838 57.8097 97.5697 59.1411 97.8236 61.203L97.904 61.894L97.7005 63.0138C97.583 63.6324 97.4594 64.1611 97.4211 64.2004C97.3196 64.2952 95.0186 65.0468 93.5191 65.4745C90.502 66.3348 87.8067 66.9178 81.53 68.0562C78.184 68.6567 78.1655 68.6674 77.1347 69.3104C76.1601 69.9152 75.1517 70.8578 74.2678 71.9933C73.7024 72.72 73.6198 72.7982 73.2827 72.9433C72.8847 73.1084 72.5126 73.1499 71.5427 73.1289C71.0668 73.116 69.7813 73.0925 68.6864 73.0693C66.3775 73.0213 58.7723 72.5889 57.2582 72.4134V72.4134ZM28.0006 40.6439L28.4591 40.4649L30.2686 40.5879C31.8589 40.6908 32.1603 40.7282 32.7702 40.881C33.9075 41.1692 34.7289 41.276 36.1201 41.3243C37.2672 41.3687 38.3244 41.3298 38.4252 41.2468C38.5262 41.158 34.2647 33.8991 31.5651 29.574C30.799 28.3377 30.6566 28.1436 30.5312 28.1474C30.2864 28.1554 23.089 28.6976 22.9506 28.7184C22.8359 28.7408 22.7543 28.8966 22.3839 29.8327C21.3383 32.4545 20.5132 35.1682 19.8556 38.149C19.7458 38.6488 19.6532 39.0662 19.6588 39.0725C19.6643 39.0789 20.0537 39.1398 20.5198 39.2117C20.9918 39.284 21.3733 39.3743 21.3769 39.4103C21.3868 39.4408 21.4037 39.5492 21.4216 39.6398C21.4377 39.7601 21.5043 39.836 21.631 39.9038C21.8448 40.0071 24.4164 40.5074 25.4973 40.6549C25.9048 40.7111 26.5326 40.7696 26.889 40.7867C27.4951 40.814 27.573 40.8071 28.0006 40.6439V40.6439ZM19.3237 38.8183C19.714 37.1142 19.8431 36.5918 20.0706 35.7478C20.5608 33.9726 21.2632 31.8653 22.0863 29.7359C22.2799 29.2296 22.4389 28.7986 22.4274 28.7919C22.3996 28.7603 15.2851 29.8624 15.0839 29.9329C14.6633 30.0786 12.9864 32.0513 11.9168 33.6638C11.4411 34.3844 10.7244 35.6082 10.3153 36.4047C10.0627 36.9012 9.99703 37.0878 9.97935 37.361C9.95515 37.7351 10.0045 37.8933 10.1878 38.0066C10.2967 38.0732 17.0644 38.8331 18.7659 38.9671L19.2817 39.0064L19.3237 38.8183V38.8183Z" fill="white"/>
<path d="M34.1235 39.4896C34.0596 39.3722 33.5464 39.1064 33.2358 39.0267C33.0189 38.9709 32.4188 38.944 31.2694 38.9352C29.0361 38.916 29.0357 38.9219 28.5601 37.7998C28.2144 36.9724 28.0736 36.7546 27.7595 36.5434L27.5199 36.3788L25.1226 36.2237C23.2415 36.102 22.6529 36.0818 22.3935 36.1307C22.2125 36.1666 22.0503 36.186 22.0392 36.1733C22.0008 36.1231 22.3871 35.8619 22.6871 35.7382L23.0056 35.6037L25.6095 35.7901L28.2133 35.9765L28.5867 36.1914C29.0694 36.4672 29.6695 37.1381 29.8758 37.6345C30.1503 38.2725 30.0046 38.2213 31.6099 38.2774C32.9536 38.3226 33.0244 38.3332 33.2838 38.4692C33.5546 38.612 34.0908 39.1655 34.2112 39.4237C34.268 39.5586 34.1925 39.6193 34.1235 39.4896V39.4896Z" fill="white"/>
<path d="M3.66016 63.1015C2.70895 62.5151 1.97905 60.166 1.76176 56.9854C1.69594 56.0688 1.81253 53.53 1.95324 52.6446C2.31017 50.4433 2.97571 48.9061 3.71792 48.5784C3.93846 48.4853 4.33009 48.5107 4.53641 48.6373C4.76015 48.7711 5.22286 49.3556 5.41706 49.7618C6.74065 52.513 6.86712 58.4786 5.66066 61.5611C5.30441 62.4624 4.92412 62.9984 4.4886 63.1908C4.25581 63.2891 3.90648 63.2546 3.66016 63.1015ZM5.77033 59.9581C6.35728 57.241 6.28519 53.6583 5.60463 51.4675C5.41641 50.8769 5.40378 50.888 5.16561 51.8983C4.64137 54.1066 4.60632 56.6745 5.07594 58.81C5.2312 59.5416 5.56175 60.5112 5.6257 60.4437C5.65097 60.4215 5.71304 60.1989 5.77033 59.9581Z" fill="white"/>
<path d="M74.6769 56.4613C74.7136 56.4458 75.1788 56.4401 75.7214 56.4335C79.273 56.4307 83.0838 56.2896 86.4308 56.041L87.7957 55.9445L87.6018 55.7173C87.1142 55.149 87.1573 54.4839 87.7171 53.9357C88.6903 52.9849 90.6824 53.0482 91.5054 54.0496C91.7263 54.3203 91.9122 54.7617 91.8364 54.8284C91.8174 54.845 91.792 54.7778 91.7748 54.6753C91.7379 54.4165 91.2782 53.9693 90.901 53.8137C90.2035 53.542 89.5181 53.5453 88.8386 53.8234C87.4549 54.3958 87.7333 55.8033 89.2937 56.1845C90.0388 56.3639 90.9332 56.1713 91.4267 55.7262C91.6613 55.5088 91.7158 55.4944 92.481 55.365C92.9262 55.2984 93.6803 55.1564 94.1634 55.0565C95.3468 54.817 95.3342 54.8281 95.3509 53.8333L95.3637 53.0827L95.5328 53.6005C95.6275 53.8869 95.7195 54.2149 95.7296 54.3348C95.7642 54.6293 95.601 54.9408 95.3418 55.079C95.0395 55.2384 93.4533 55.6247 92.3572 55.8043C91.827 55.8952 91.3256 55.9999 91.2395 56.0421C90.2618 56.5095 89.677 56.6148 88.9374 56.4417C88.3501 56.3083 88.3201 56.3124 86.8963 56.3991C84.3477 56.5563 81.7704 56.6042 78.0973 56.5514C75.9839 56.522 74.5978 56.486 74.6769 56.4613V56.4613Z" fill="white"/>
<path d="M74.7526 51.6061C74.4649 51.5398 74.4708 51.5402 74.9044 51.5623C75.5464 51.5859 78.7251 51.6365 80.5003 51.6441C84.9561 51.664 88.6973 51.4946 91.7648 51.1444C92.7432 51.0348 94.0541 50.8513 94.2719 50.7997C94.5202 50.7383 94.4585 50.3109 94.1232 49.7823C94.0582 49.6827 93.9828 49.5586 93.9617 49.5154C93.8768 49.3549 94.1319 49.5563 94.3413 49.8203C94.6053 50.1594 94.7035 50.3923 94.685 50.6774C94.6616 51.0396 94.5142 51.1076 93.3848 51.2492C89.3896 51.7541 84.6142 51.9758 79.9494 51.8708C77.9977 51.828 75.1055 51.6767 74.7526 51.6061V51.6061Z" fill="white"/>
<path d="M38.5429 39.8889C38.4824 39.718 38.4382 39.572 38.4509 39.5609C38.5382 39.501 41.8139 39.4326 44.0476 39.4459C44.917 39.4545 45.769 39.4559 45.9418 39.4552C46.2583 39.4459 46.2638 39.4522 46.3342 39.6535C46.3744 39.7694 46.4027 39.8846 46.4008 39.9143C46.3988 39.9439 46.0282 39.9617 45.5817 39.9567C42.9445 39.9172 39.4394 40.0304 38.7503 40.1826C38.6779 40.1958 38.6236 40.1147 38.5429 39.8889V39.8889Z" fill="white"/>
<path d="M57.8878 40.5799C56.1925 40.1661 54.3445 39.9034 52.1489 39.7613C50.6714 39.6657 50.5887 39.6544 50.5952 39.5535C50.6018 39.4525 50.6741 39.4393 51.1863 39.4426C52.6526 39.4361 55.4551 39.683 57.3662 39.9856C57.9913 40.0857 58.2113 40.0939 58.7918 40.054C59.5646 39.9907 60.5194 39.969 61.5617 39.9768L62.276 39.9872L62.3346 40.1878C62.3692 40.2974 62.3927 40.3943 62.3805 40.3995C62.3741 40.405 61.725 40.3988 60.9395 40.3838C59.0645 40.3519 59.0764 40.3527 59.0128 40.599C58.9496 40.8394 58.9614 40.8402 57.8878 40.5799V40.5799Z" fill="white"/>
<path d="M62.5752 39.8754C62.5276 39.7829 62.5033 39.6978 62.5222 39.6812C62.5416 39.6586 63.0052 39.6766 63.5452 39.7116C64.3759 39.7653 64.5532 39.7887 64.6249 39.8768C64.7082 39.9717 64.6781 39.9757 64.2449 39.9477C63.8058 39.9193 63.1307 39.9471 62.8049 40.0096C62.7025 40.0268 62.645 39.9932 62.5752 39.8754Z" fill="white"/>
<path d="M35.4275 73.1337L35.373 72.6953H34.9313H26.1088H25.6682L25.6128 73.1324L22.2696 99.5H3.57989L18.309 0.5H42.6711L57.42 99.5H38.7015L35.4275 73.1337ZM33.3272 59.7781H33.8773L33.8249 59.2306L30.9677 29.3368L29.972 29.3393L27.2651 59.233L27.2157 59.7781H27.763H33.3272Z" fill="url(#paint0_linear)" stroke="black" stroke-miterlimit="10"/>
</g>
<defs>
<linearGradient id="paint0_linear" x1="3" y1="50" x2="58" y2="50" gradientUnits="userSpaceOnUse">
<stop offset="0.15" stop-color="#FCDB50"/>
<stop offset="0.21" stop-color="#FCDA46"/>
<stop offset="0.46" stop-color="#FED61B"/>
<stop offset="0.59" stop-color="#FFD40B"/>
</linearGradient>
<clipPath id="clip0">
<rect width="100" height="100" fill="white"/>
</clipPath>
</defs>
</svg>
