<svg width="60" height="60" viewBox="0 0 60 60" fill="none" xmlns="http://www.w3.org/2000/svg">
<g clip-path="url(#clip0)">
<path d="M35.8446 39.5055L40.9787 36.7148L49.9115 53.1485C50.1802 53.6428 49.8311 54.2464 49.2686 54.26L44.3203 54.3798C44.0782 54.3857 43.8538 54.5076 43.7172 54.7077L40.9255 58.7949C40.6082 59.2596 39.9118 59.2242 39.6431 58.7299L30.7104 42.2962L35.8446 39.5055Z" fill="#FEE45A"/>
<path d="M24.1554 39.5055L19.0213 36.7148L10.0886 53.1485C9.81984 53.6428 10.1689 54.2464 10.7314 54.26L15.6797 54.3798C15.9218 54.3857 16.1462 54.5076 16.2828 54.7077L19.0745 58.7949C19.3918 59.2596 20.0882 59.2242 20.3569 58.7299L29.2896 42.2962L24.1554 39.5055Z" fill="#FEE45A"/>
<path d="M49.2687 54.2603L47.5254 54.3023L38.6522 37.9801L40.9789 36.715L49.9118 53.1483C50.1806 53.6429 49.831 54.2462 49.2687 54.2603Z" fill="#FED402"/>
<path d="M29.2891 42.2957L20.3564 58.7302C20.0886 59.2247 19.3918 59.2598 19.075 58.7945L18.0005 57.2208C18.0566 57.1682 18.1045 57.105 18.1443 57.0326L26.869 40.9805L29.2891 42.2957Z" fill="#FED402"/>
<path d="M52.8505 23.7274C52.8505 25.6895 50.7537 27.3499 50.2699 29.1595C49.7694 31.032 50.7405 33.5155 49.792 35.1548C48.8299 36.8177 46.1845 37.2128 44.8349 38.5623C43.4854 39.9118 43.0903 42.5573 41.4274 43.5195C39.7881 44.468 37.3045 43.4968 35.4321 43.9973C33.6225 44.481 31.9621 46.5779 30 46.5779C28.0379 46.5779 26.3775 44.4811 24.5679 43.9973C22.6955 43.4968 20.2119 44.468 18.5726 43.5195C16.9097 42.5573 16.5146 39.912 15.1651 38.5623C13.8156 37.2128 11.1701 36.8177 10.208 35.1548C9.25945 33.5155 10.2306 31.032 9.73008 29.1595C9.24644 27.3499 7.14949 25.6895 7.14949 23.7274C7.14949 21.7654 9.24633 20.1049 9.73008 18.2953C10.2306 16.4229 9.25945 13.9393 10.208 12.3C11.1701 10.6371 13.8155 10.2421 15.1651 8.89254C16.5146 7.54301 16.9097 4.8975 18.5726 3.93539C20.2119 2.98688 22.6955 3.95801 24.5679 3.4575C26.3775 2.97375 28.0379 0.876915 30 0.876915C31.9621 0.876915 33.6225 2.97375 35.4321 3.4575C37.3045 3.95801 39.7881 2.98688 41.4274 3.93539C43.0903 4.8975 43.4854 7.54289 44.8349 8.89254C46.1844 10.2421 48.8299 10.6371 49.792 12.3C50.7405 13.9393 49.7694 16.4229 50.2699 18.2953C50.7536 20.1049 52.8505 21.7652 52.8505 23.7274Z" fill="#FCDB50"/>
<path d="M50.2694 29.1595C49.7691 31.0315 50.7407 33.516 49.7924 35.1553C48.8301 36.818 46.1842 37.2131 44.8349 38.5624C43.4856 39.9117 43.0904 42.5576 41.4278 43.5199C39.7874 44.4682 37.3039 43.4965 35.432 43.997C33.622 44.4811 31.9617 46.5775 29.9999 46.5775C29.0388 46.5775 28.1502 46.0747 27.2816 45.5053C27.7413 45.8067 29.2995 45.0381 29.73 44.8372C30.896 44.2931 31.9211 43.5091 33.0213 42.8512C34.1332 42.1863 35.4231 41.7939 36.7164 41.7347C37.9535 41.6781 39.2414 41.7623 40.357 41.1166C41.1641 40.6495 41.5244 39.84 41.8365 39.004C42.3048 37.7496 42.9734 36.8778 44.0381 36.0833C44.9831 35.3781 46.3101 35.183 46.9452 34.0856C47.5575 33.0277 47.4985 31.5327 47.447 30.3512C47.419 29.7095 47.3552 29.0639 47.4411 28.4272C47.6985 26.5192 49.5317 25.3053 49.837 23.4286C50.0504 22.1143 49.0933 21.2421 48.4308 20.2713C47.5869 19.0351 47.2868 17.2679 47.2554 15.812C47.2236 14.3402 46.9885 12.7864 45.6279 11.9483C45.0172 11.5723 44.291 11.5359 43.7526 11.0034C41.6603 8.93403 41.2773 5.68043 39.3396 3.49887C40.1019 3.49653 40.8221 3.58535 41.4278 3.93504C43.0904 4.89727 43.4856 7.54324 44.8349 8.89254C46.1842 10.2418 48.83 10.637 49.7924 12.2996C50.7407 13.9389 49.7691 16.4235 50.2694 18.2954C50.7535 20.1054 52.8499 21.7657 52.8499 23.7275C52.8499 25.6894 50.7535 27.3497 50.2694 29.1595Z" fill="#FCDB50"/>
<path d="M30 41.0357C39.5591 41.0357 47.3082 33.2865 47.3082 23.7274C47.3082 14.1683 39.5591 6.41918 30 6.41918C20.4409 6.41918 12.6918 14.1683 12.6918 23.7274C12.6918 33.2865 20.4409 41.0357 30 41.0357Z" fill="#FAF7F7"/>
<path d="M47.3079 23.7274C47.3079 33.2869 39.5595 41.0353 30 41.0353C26.5906 41.0353 23.4115 40.0496 20.7328 38.3484C22.9602 39.3914 25.4447 39.9736 28.0662 39.9736C37.6256 39.9736 45.3741 32.2253 45.3741 22.6657C45.3741 16.5156 42.1669 11.115 37.3334 8.04469C43.2261 10.8053 47.3079 16.7893 47.3079 23.7274Z" fill="#EDE1DD"/>
<path d="M31.1488 13.1389L33.8084 18.5278C33.9949 18.9059 34.3556 19.168 34.7729 19.2286L40.72 20.0927C41.7707 20.2454 42.1903 21.5367 41.43 22.2778L37.1267 26.4727C36.8248 26.7669 36.687 27.191 36.7582 27.6066L37.7741 33.5296C37.9536 34.5761 36.8551 35.3741 35.9154 34.8801L30.5963 32.0836C30.223 31.8874 29.7772 31.8874 29.404 32.0836L24.0849 34.8801C23.145 35.3741 22.0466 34.5761 22.2261 33.5296L23.242 27.6066C23.3133 27.191 23.1756 26.7669 22.8736 26.4727L18.5704 22.2779C17.81 21.5368 18.2296 20.2456 19.2804 20.0929L25.2274 19.2287C25.6447 19.1681 26.0054 18.906 26.192 18.5279L28.8516 13.1391C29.3211 12.1868 30.6789 12.1868 31.1488 13.1389Z" fill="#FEE45A"/>
<path d="M37.1264 26.4728C36.8248 26.7674 36.6868 27.1907 36.7581 27.6069L37.7741 33.529C37.9531 34.5767 36.8551 35.374 35.915 34.8806L34.519 34.1463C34.9071 33.8633 35.1492 33.3782 35.0545 32.8263L33.9836 26.5815C33.9087 26.1442 34.0538 25.6964 34.3717 25.3866L38.9094 20.9634C39.2228 20.6583 39.3468 20.2643 39.314 19.8878L40.7206 20.0924C41.7706 20.2455 42.1903 21.5364 41.4302 22.2777L37.1264 26.4728Z" fill="#FED402"/>
<path d="M30 5.54227C25.0826 5.54227 20.4759 7.4741 17.0271 10.9836L16.9754 11.0365C16.637 11.3829 16.6433 11.938 16.9896 12.2766C17.3359 12.615 17.8911 12.6087 18.2297 12.2624L18.2796 12.2113C21.3945 9.0416 25.5568 7.29609 30 7.29609C39.0602 7.29609 46.4313 14.6671 46.4313 23.7274C46.4313 32.7878 39.0602 40.1587 30 40.1587C20.9398 40.1587 13.5687 32.7877 13.5687 23.7274C13.5687 20.7675 14.3641 17.8663 15.8691 15.3374C16.1167 14.9211 15.9802 14.383 15.5639 14.1354C15.1475 13.8878 14.6095 14.0244 14.3619 14.4405C12.6956 17.2406 11.8148 20.452 11.8148 23.7275C11.8148 33.7548 19.9726 41.9127 29.9999 41.9127C40.0271 41.9127 48.1849 33.7548 48.1849 23.7275C48.1849 13.7003 40.0273 5.54227 30 5.54227Z" fill="black"/>
<path d="M52.211 20.078C51.7352 19.3696 51.2859 18.7004 51.1171 18.0689C50.937 17.395 50.9907 16.5647 51.0478 15.6857C51.1329 14.3745 51.2209 13.0185 50.5511 11.8609C49.8709 10.6853 48.6422 10.0819 47.4539 9.49828C46.6726 9.11461 45.9346 8.75215 45.4549 8.2725C44.9753 7.79273 44.6128 7.0548 44.229 6.2734C43.6455 5.08523 43.0422 3.85652 41.8664 3.17637C40.7088 2.50664 39.353 2.59465 38.0416 2.67961C37.1626 2.73668 36.3325 2.79059 35.6583 2.61035C35.0268 2.44148 34.3576 1.99219 33.6492 1.51641C32.5911 0.805664 31.3915 0 30 0C28.6085 0 27.4089 0.805664 26.3504 1.51652C25.642 1.9923 24.973 2.4416 24.3415 2.61035C23.6675 2.79059 22.8373 2.73668 21.9582 2.67961C20.6469 2.59465 19.2912 2.50664 18.1335 3.17637C16.9579 3.85652 16.3545 5.08523 15.7709 6.2734C15.3872 7.0548 15.0247 7.79285 14.545 8.2725C14.0653 8.75215 13.3274 9.11461 12.546 9.49828C11.3577 10.0818 10.1291 10.6853 9.44883 11.8609C8.77898 13.0185 8.86699 14.3745 8.95207 15.6858C9.00914 16.5647 9.06293 17.395 8.88281 18.0689C8.71395 18.7004 8.26465 19.3696 7.78887 20.078C7.07812 21.1364 6.27246 22.3359 6.27246 23.7274C6.27246 25.1189 7.07801 26.3186 7.78887 27.377C8.26453 28.0854 8.71395 28.7545 8.8827 29.3861C9.06281 30.06 9.00902 30.8903 8.95195 31.7693C8.86688 33.0805 8.77887 34.4364 9.44871 35.5941C10.1289 36.7697 11.3576 37.3732 12.5459 37.9567C13.3271 38.3404 14.0652 38.7028 14.5448 39.1825C14.9896 39.6272 15.3336 40.2947 15.6872 41.0121L9.31793 52.7297C9.04465 53.2324 9.0525 53.8283 9.33902 54.3236C9.62555 54.8189 10.138 55.1228 10.71 55.1366L15.5945 55.2548L18.3502 59.2895C18.6568 59.7386 19.1542 60 19.6932 60C19.7214 60 19.7497 59.9993 19.7781 59.9979C20.3495 59.9689 20.8538 59.6515 21.127 59.1488L27.8149 46.8451C28.4881 47.1974 29.2132 47.455 29.9999 47.455C30.7864 47.455 31.5117 47.1974 32.1848 46.8451L38.8727 59.1489C39.146 59.6516 39.6503 59.9691 40.2217 59.998C40.2502 59.9994 40.2784 60.0001 40.3065 60.0001C40.8456 60.0001 41.3429 59.7387 41.6496 59.2896L44.4053 55.255L49.2897 55.1367C49.8616 55.1229 50.3742 54.8189 50.6606 54.3237C50.9472 53.8283 50.955 53.2325 50.6817 52.7298L48.3526 48.4448C48.1213 48.0192 47.5889 47.8616 47.1634 48.0932C46.7379 48.3245 46.5805 48.8569 46.8117 49.2824L49.0436 53.3883L44.2989 53.5031C43.776 53.5158 43.2878 53.7812 42.9929 54.213L40.3161 58.1321L33.6777 45.9193C34.3756 45.4507 35.0353 45.011 35.6583 44.8445C36.3322 44.6644 37.1625 44.7182 38.0415 44.7752C39.353 44.8603 40.7087 44.9483 41.8663 44.2785C42.4791 43.924 42.9356 43.4198 43.3157 42.8507L44.8824 45.733C45.1136 46.1585 45.6457 46.3159 46.0716 46.0847C46.4971 45.8534 46.6545 45.321 46.4232 44.8955L44.3123 41.012C44.6659 40.2946 45.01 39.6272 45.4547 39.1825C45.9343 38.7028 46.6723 38.3404 47.4537 37.9567C48.642 37.3732 49.8706 36.7697 50.5508 35.5941C51.2207 34.4365 51.1327 33.0805 51.0476 31.7692C50.9905 30.8903 50.9367 30.06 51.1168 29.3859C51.2857 28.7544 51.735 28.0854 52.2107 27.377C52.9214 26.3186 53.7271 25.1189 53.7271 23.7274C53.7274 22.3359 52.9218 21.1363 52.211 20.078ZM19.6836 58.1321L17.007 54.2132C16.712 53.7813 16.2238 53.5159 15.7009 53.5032L10.9563 53.3884L16.6841 42.8509C17.0641 43.42 17.5207 43.9241 18.1335 44.2786C19.2912 44.9483 20.6473 44.8604 21.9582 44.7754C22.8373 44.7183 23.6675 44.6645 24.3415 44.8446C24.9646 45.0111 25.6243 45.4509 26.3221 45.9195L19.6836 58.1321ZM50.755 26.3992C50.2201 27.1957 49.667 28.0193 49.4228 28.9331C49.1681 29.8856 49.234 30.9009 49.2977 31.8827C49.369 32.9813 49.4363 34.0188 49.033 34.7157C48.6196 35.4302 47.6779 35.8928 46.6808 36.3825C45.8054 36.8123 44.9003 37.2568 44.2148 37.9424C43.5293 38.6278 43.0848 39.5331 42.6549 40.4085C42.1652 41.4055 41.7027 42.3471 40.9883 42.7605C40.2913 43.1638 39.254 43.0964 38.1553 43.0253C37.1734 42.9615 36.1582 42.8958 35.2057 43.1503C34.292 43.3946 33.4684 43.9477 32.6719 44.4826C31.7387 45.1093 30.8573 45.7013 30 45.7013C29.1428 45.7013 28.2614 45.1093 27.3282 44.4826C26.5317 43.9478 25.7082 43.3946 24.7943 43.1503C24.2714 43.0105 23.7298 42.9674 23.185 42.9674C22.7373 42.9674 22.2875 42.9966 21.8447 43.0254C20.7461 43.0965 19.7086 43.164 19.0117 42.7607C18.2972 42.3472 17.8347 41.4055 17.345 40.4085C16.9152 39.5331 16.4706 38.6279 15.785 37.9424C15.0996 37.257 14.1945 36.8123 13.3191 36.3825C12.322 35.8929 11.3803 35.4304 10.9669 34.7157C10.5636 34.0188 10.6309 32.9812 10.7021 31.8829C10.7659 30.9011 10.8318 29.8857 10.5771 28.9332C10.3329 28.0194 9.77977 27.1957 9.2448 26.3993C8.6182 25.4661 8.02629 24.5848 8.02629 23.7275C8.02629 22.8703 8.6182 21.9889 9.2448 21.0558C9.77977 20.2593 10.3328 19.4357 10.5771 18.5218C10.8318 17.5693 10.7659 16.554 10.7021 15.5722C10.6309 14.4737 10.5636 13.4361 10.9669 12.7392C11.3803 12.0247 12.322 11.5622 13.3191 11.0725C14.1945 10.6426 15.0996 10.198 15.785 9.51258C16.4705 8.82715 16.9151 7.92188 17.345 7.04648C17.8347 6.04957 18.2972 5.10785 19.0117 4.69441C19.7086 4.29129 20.7461 4.35855 21.8447 4.42969C22.8265 4.49344 23.8417 4.5593 24.7943 4.30465C25.708 4.06031 26.5316 3.5073 27.3281 2.97234C28.2613 2.34562 29.1427 1.75371 30 1.75371C30.8572 1.75371 31.7386 2.34563 32.6718 2.97223C33.4683 3.50719 34.2919 4.06031 35.2057 4.30453C36.1582 4.55918 37.1736 4.49332 38.1554 4.42957C39.2539 4.35844 40.2915 4.29105 40.9883 4.6943C41.7028 5.10773 42.1654 6.04945 42.655 7.04637C43.0848 7.92176 43.5294 8.82691 44.215 9.51246C44.9004 10.1979 45.8057 10.6425 46.6809 11.0723C47.678 11.562 48.6196 12.0245 49.033 12.739C49.4363 13.4359 49.369 14.4735 49.2977 15.5719C49.234 16.5537 49.1681 17.569 49.4228 18.5215C49.667 19.4353 50.2201 20.259 50.7551 21.0554C51.3817 21.9886 51.9736 22.87 51.9736 23.7272C51.9736 24.5846 51.3817 25.466 50.755 26.3992Z" fill="black"/>
<path d="M42.0421 22.9058C42.6346 22.3282 42.8438 21.4806 42.5881 20.6937C42.3324 19.9068 41.6649 19.3439 40.8461 19.225L34.899 18.3608C34.7673 18.3417 34.6535 18.259 34.5947 18.1397L31.9351 12.7508C31.5689 12.0088 30.8274 11.5479 30 11.5479C29.1727 11.5479 28.4311 12.0088 28.0649 12.7508L25.4053 18.1397C25.3465 18.259 25.2327 18.3417 25.101 18.3608L19.1541 19.225C18.3353 19.3439 17.6677 19.9066 17.412 20.6937C17.1563 21.4806 17.3654 22.3282 17.9581 22.9058L22.2613 27.1004C22.3567 27.1934 22.4 27.3271 22.3775 27.4582L21.3616 33.3812C21.2217 34.1968 21.5508 35.0056 22.2202 35.4919C22.5984 35.7667 23.0409 35.9063 23.4865 35.9063C23.8294 35.9063 24.1741 35.8235 24.4928 35.6561L29.8118 32.8596C29.9297 32.7977 30.0703 32.7977 30.188 32.8596L35.5071 35.6561C36.2394 36.041 37.1102 35.9781 37.7797 35.4919C38.4492 35.0056 38.7782 34.1967 38.6383 33.3812L37.6224 27.4582C37.5999 27.3271 37.6433 27.1934 37.7385 27.1006L42.0421 22.9058ZM35.894 27.7547L36.9099 33.6777C36.9482 33.9012 36.8101 34.0286 36.7491 34.073C36.6879 34.1174 36.5242 34.2091 36.3234 34.1037L31.0042 31.3072C30.3754 30.9766 29.6247 30.9768 28.9958 31.3072L23.6767 34.1038C23.4762 34.2093 23.3122 34.1174 23.2511 34.073C23.19 34.0286 23.052 33.9012 23.0903 33.6777L24.1062 27.7548C24.2263 27.0547 23.9944 26.3407 23.4856 25.8447L19.1823 21.65C19.0199 21.4917 19.0567 21.3075 19.08 21.2358C19.1033 21.1639 19.1818 20.9933 19.4063 20.9607L25.3533 20.0966C26.0563 19.9944 26.6637 19.5532 26.9781 18.9162L29.6377 13.5273C29.738 13.324 29.9245 13.3021 30.0001 13.3021C30.0757 13.3021 30.2622 13.324 30.3626 13.5273L33.0222 18.9162C33.3366 19.5532 33.944 19.9945 34.647 20.0966L40.594 20.9607C40.8184 20.9933 40.8968 21.1639 40.9202 21.2358C40.9436 21.3076 40.9804 21.4918 40.8181 21.65L36.5146 25.8448C36.0058 26.3407 35.7738 27.0547 35.894 27.7547Z" fill="black"/>
</g>
<defs>
<clipPath id="clip0">
<rect width="60" height="60" fill="white"/>
</clipPath>
</defs>
</svg>
