<svg width="62" height="62" viewBox="0 0 62 62" fill="none" xmlns="http://www.w3.org/2000/svg">
<path d="M59.4783 31L39.2007 15.579L40.7905 26.3897H16.9883V35.9282H40.7905L39.2007 46.4211L59.4783 31Z" fill="#FCDA46"/>
<path d="M47.3522 7.94872H8.88048V54.0513H47.3523V60.4103H5.65709C3.90111 60.4103 2.52148 58.9868 2.52148 57.2308V4.76928C2.52148 3.0133 3.90111 1.58984 5.65709 1.58984H47.3522V7.94872Z" fill="white"/>
<path d="M60.4407 29.7347L40.1632 14.3135C39.6488 13.9222 38.949 13.8814 38.3926 14.2098C37.8361 14.5382 37.5339 15.1708 37.6279 15.8101L38.9498 24.8H16.9443C16.0665 24.8 15.3984 25.5118 15.3984 26.3897V35.9281C15.3984 36.8062 16.0664 37.5178 16.9443 37.5178H38.9417L37.629 46.1827C37.532 46.8227 37.8328 47.4578 38.3895 47.788C38.6406 47.937 38.921 48.0106 39.2006 48.0106C39.5411 48.0106 39.8801 47.9014 40.1632 47.6862L60.4407 32.2652C60.836 31.9645 61.068 31.4965 61.068 30.9998C61.068 30.5034 60.836 30.0353 60.4407 29.7347ZM41.3601 42.7815L42.3623 36.1663C42.4318 35.7083 42.2978 35.2429 41.9958 34.8917C41.6939 34.5405 41.2538 34.3384 40.7905 34.3384H18.578V27.9794H40.7906C41.2526 27.9794 41.6916 27.7785 41.9937 27.4289C42.2955 27.0793 42.4306 26.6156 42.3632 26.1584L41.3404 19.2034L56.852 31L41.3601 42.7815Z" fill="black"/>
<path d="M47.3087 52.4616H10.4706V9.53843H47.3087C48.1865 9.53843 48.9424 8.82664 48.9424 7.94871V1.58972C48.9424 0.711668 48.1868 0 47.3087 0H5.65745C3.02766 0 0.932129 2.13948 0.932129 4.76928V57.2308C0.932129 59.8605 3.02766 62 5.65745 62H47.3087C48.1865 62 48.9424 61.2883 48.9424 60.4103V54.0513C48.9424 53.1732 48.1868 52.4616 47.3087 52.4616ZM45.7628 58.8206H5.65745C4.78085 58.8206 4.11157 58.1074 4.11157 57.2308V4.76928C4.11157 3.89268 4.78085 3.17956 5.65745 3.17956H45.7628V6.359H8.83689C7.95908 6.359 7.291 7.07066 7.291 7.94871V54.0513C7.291 54.9293 7.95896 55.641 8.83689 55.641H45.7628V58.8206Z" fill="black"/>
</svg>
