<svg width="19" height="19" viewBox="0 0 19 19" fill="none" xmlns="http://www.w3.org/2000/svg">
<g clip-path="url(#clip0)">
<path d="M0.0559101 17.554C0.129673 17.6818 0.266047 17.7605 0.413572 17.7605L18.5865 17.7605C18.8146 17.7608 18.9998 17.5761 19 17.348C19.0001 17.275 18.9808 17.2033 18.9442 17.1402L9.85772 1.44532C9.74326 1.248 9.49053 1.18085 9.29321 1.29531C9.23099 1.3314 9.1793 1.38313 9.14321 1.44532L0.0567227 17.1402C-0.017622 17.268 -0.017931 17.4258 0.0559101 17.554Z" fill="#FEE45A"/>
<path d="M9.49998 1.23963C9.64736 1.23948 9.78369 1.31785 9.85765 1.44532L18.9441 17.1402C19.0586 17.3374 18.9915 17.5902 18.7942 17.7047C18.7311 17.7413 18.6594 17.7606 18.5864 17.7605L0.4135 17.7605C0.185396 17.7608 0.000272767 17.576 1.94342e-06 17.3479C-7.62515e-05 17.2749 0.0191689 17.2032 0.0557976 17.1401L9.14228 1.44532C9.21628 1.31785 9.35257 1.23948 9.49998 1.23963ZM17.8703 16.9345L9.49998 2.47874L1.12968 16.9345L17.8703 16.9345Z" fill="black"/>
</g>
<defs>
<clipPath id="clip0">
<rect width="19" height="19" fill="white" transform="translate(19 19) rotate(-180)"/>
</clipPath>
</defs>
</svg>
