<svg width="19" height="19" viewBox="0 0 19 19" fill="none" xmlns="http://www.w3.org/2000/svg">
<g clip-path="url(#clip0)">
<path d="M18.9441 1.446C18.8703 1.31822 18.734 1.2395 18.5864 1.2395L0.41346 1.2395C0.185356 1.23923 0.000232557 1.42393 2.32806e-07 1.65203C-7.72087e-05 1.72502 0.019167 1.79673 0.0557968 1.85985L9.14228 17.5547C9.25674 17.752 9.50947 17.8191 9.70679 17.7047C9.76901 17.6686 9.82071 17.6169 9.85679 17.5547L18.9433 1.85985C19.0176 1.73199 19.0179 1.57417 18.9441 1.446Z" fill="#FEE45A"/>
<path d="M9.50002 17.7604C9.35265 17.7605 9.21631 17.6821 9.14235 17.5547L0.0558716 1.85985C-0.0586256 1.66257 0.00847746 1.4098 0.20576 1.2953C0.268874 1.25867 0.340585 1.23939 0.413574 1.2395L18.5865 1.2395C18.8146 1.23923 18.9997 1.42397 19 1.65207C19.0001 1.72506 18.9808 1.79677 18.9442 1.85989L9.85772 17.5547C9.78372 17.6821 9.64743 17.7605 9.50002 17.7604ZM1.12971 2.06553L9.50002 16.5213L17.8703 2.06553L1.12971 2.06553Z" fill="black"/>
</g>
<defs>
<clipPath id="clip0">
<rect width="19" height="19" fill="white"/>
</clipPath>
</defs>
</svg>
