<svg width="22" height="22" viewBox="0 0 22 22" fill="none" xmlns="http://www.w3.org/2000/svg">
<g clip-path="url(#clip0)">
<path d="M16.7099 13.027C16.2186 12.9019 15.7236 13.2242 15.6072 13.7409C15.4898 14.2575 15.7951 14.7762 16.2873 14.8983C19.1345 15.6075 20.1667 16.6562 20.1667 17.1892C20.1667 18.339 16.511 20.0757 11 20.0757C5.4899 20.0757 1.83335 18.339 1.83335 17.1892C1.83335 16.6562 2.86644 15.6075 5.71175 14.8983C6.2049 14.7762 6.50925 14.2575 6.3919 13.7409C6.2755 13.2242 5.7805 12.9019 5.28915 13.027C1.87825 13.8756 0 15.3535 0 17.1892C0 20.347 5.53485 22 11 22C16.4661 22 22 20.347 22 17.1892C22 15.3535 20.1218 13.8756 16.7099 13.027Z" fill="#FCDB50"/>
<path d="M11.5006 7.33388C12.0296 7.33388 12.4589 6.92324 12.4589 6.41724C12.4589 5.91125 12.0296 5.50061 11.5006 5.50061C10.9716 5.50061 10.5423 5.91125 10.5423 6.41724C10.5423 6.92324 10.9716 7.33388 11.5006 7.33388Z" fill="#FCDB50"/>
<path d="M10.2529 17.0806L10.6429 17.8267C10.8058 18.1374 11.1374 18.3336 11.5006 18.3336C11.8638 18.3336 12.1954 18.1374 12.3583 17.8267L13.1844 16.2464C14.1897 14.3223 15.4297 12.4588 16.6286 10.6566L17.1749 9.83441C17.8514 8.81143 18.2089 7.62985 18.2089 6.41713C18.2089 4.59116 17.3915 2.84585 15.9664 1.62857C14.5424 0.41219 12.6267 -0.170756 10.7167 0.0437398C7.73436 0.368234 5.27147 2.66534 4.85842 5.50513C4.61404 7.1881 5.05392 8.85917 6.09561 10.2121C7.72097 12.3186 8.98979 14.6625 10.2529 17.0806ZM11.5006 3.66722C13.0857 3.66722 14.3756 4.90105 14.3756 6.41717C14.3756 7.93329 13.0857 9.16712 11.5006 9.16712C9.91554 9.16712 8.62561 7.93329 8.62561 6.41717C8.62561 4.90105 9.91554 3.66722 11.5006 3.66722Z" fill="#FCDB50"/>
</g>
<defs>
<clipPath id="clip0">
<rect width="22" height="22" fill="white"/>
</clipPath>
</defs>
</svg>
