-<svg width="30" height="30" viewBox="0 0 30 30" fill="none" xmlns="http://www.w3.org/2000/svg">
<g clip-path="url(#clip0)">
<path d="M22.7862 19.033C22.1162 18.8801 21.4412 19.274 21.2825 19.9055C21.1225 20.537 21.5387 21.1709 22.21 21.3202C26.0924 22.1869 27.5 23.4687 27.5 24.1202C27.5 25.5254 22.515 27.6481 15 27.6481C7.48623 27.6481 2.50002 25.5254 2.50002 24.1202C2.50002 23.4687 3.90879 22.1869 7.78875 21.3202C8.46123 21.1709 8.87625 20.537 8.71623 19.9055C8.5575 19.274 7.8825 18.8801 7.21248 19.033C2.56125 20.0702 0 21.8764 0 24.1202C0 27.9797 7.54752 30 15 30C22.4538 30 30 27.9797 30 24.1202C30 21.8764 27.4388 20.0702 22.7862 19.033Z" fill="white"/>
<path d="M14.6827 10.0007C15.404 10.0007 15.9894 9.44077 15.9894 8.75078C15.9894 8.06079 15.404 7.50082 14.6827 7.50082C13.9613 7.50082 13.3759 8.06079 13.3759 8.75078C13.3759 9.44077 13.9613 10.0007 14.6827 10.0007Z" fill="white"/>
<path d="M13.446 23.2916L13.9779 24.309C14.2 24.7328 14.6522 25.0003 15.1474 25.0003C15.6427 25.0003 16.0949 24.7328 16.317 24.309L17.4435 22.1541C18.8144 19.5304 20.5054 16.9892 22.1402 14.5317L22.8851 13.4105C23.8077 12.0155 24.2952 10.4043 24.2952 8.75054C24.2952 6.26059 23.1805 3.88062 21.2372 2.22069C19.2953 0.561994 16.683 -0.232932 14.0785 0.059562C10.0117 0.502053 6.65317 3.63447 6.08991 7.50692C5.75667 9.80187 6.3565 12.0806 7.77699 13.9256C9.9934 16.7979 11.7236 19.9942 13.446 23.2916ZM15.1474 5.00068C17.3089 5.00068 19.0679 6.68316 19.0679 8.7506C19.0679 10.818 17.3089 12.5005 15.1474 12.5005C12.986 12.5005 11.227 10.818 11.227 8.7506C11.227 6.68316 12.986 5.00068 15.1474 5.00068Z" fill="#C4A106"/>
</g>
<defs>
<clipPath id="clip0">
<rect width="30" height="30" fill="white"/>
</clipPath>
</defs>
</svg>
