<svg width="80" height="50" viewBox="0 0 80 50" fill="none" xmlns="http://www.w3.org/2000/svg">
<g clip-path="url(#clip0)">
<path d="M71.9906 -0.00512695H0.628601V45.5318H71.9906V-0.00512695Z" stroke="url(#paint0_linear)" stroke-miterlimit="10"/>
<path d="M51.6291 34.196C51.5137 34.1488 51.3063 34.0813 51.1665 34.0478C50.076 33.7696 49.3308 33.3789 48.5507 32.6825C47.7738 31.989 47.1717 31.1608 46.6493 30.0584C46.5119 29.7737 46.4538 29.6826 46.3797 29.6457C46.2989 29.5998 46.2674 29.5387 46.1325 29.1817C45.8434 28.3997 45.6093 27.5896 45.4146 26.6959C45.3531 26.4229 45.2937 26.1875 45.2805 26.1757C45.264 26.1608 35.5205 22.57 34.8942 22.3519C34.875 22.3435 34.8518 22.4389 34.8352 22.5999C34.751 23.4393 34.4274 24.4389 34.1155 24.8289C34.0094 24.9569 33.958 24.9942 33.8525 25.0154C33.7811 25.0286 33.5269 25.086 33.2884 25.1425C32.9198 25.2311 32.8357 25.2418 32.7213 25.2133C32.6135 25.1908 32.5167 25.199 32.2125 25.259C31.781 25.3446 31.5677 25.3433 31.2364 25.2478C30.7843 25.1211 30.5263 24.9275 30.2271 24.4882C29.4513 23.3395 29.0576 21.7061 29.0317 19.4945C29.0178 18.4594 29.0117 18.3436 28.9378 17.8359C28.8459 17.2255 28.7991 16.2204 28.8375 15.76C28.8523 15.5646 28.9001 15.2231 28.9386 15.0014C28.9867 14.7257 29.0123 14.4387 29.0193 14.0962C29.04 12.7077 29.1757 11.9503 29.5404 11.1965C29.6364 10.9937 29.8593 10.5237 30.034 10.1503C30.4908 9.17821 30.873 8.39839 31.2207 7.73654C31.4854 7.2266 31.558 7.11604 31.8185 6.82291C32.2683 6.31261 32.7476 5.94514 33.2083 5.7607C33.417 5.67434 35.0817 5.24423 36.092 5.01193C37.8028 4.62333 39.619 4.26997 41.8791 3.89001C42.6222 3.76599 42.8062 3.74685 43.6413 3.70272C46.3687 3.5586 50.7221 3.61734 53.663 3.83234C54.7335 3.91075 55.2676 3.98611 55.6059 4.09693C56.6214 4.43878 58.2355 5.18844 59.6414 5.97422C60.5883 6.50175 61.1425 6.83973 63.9899 8.61029L64.5609 8.96935L65.157 9.03202C65.4818 9.06508 66.7301 9.18431 67.9247 9.29383C71.4801 9.62389 73.1502 9.8307 74.7948 10.1487C76.1005 10.403 76.3216 10.5514 77.1004 11.6968C77.8145 12.7451 78.2111 13.6627 78.5835 15.1309L78.6901 15.5459L78.8869 15.7081C79.3988 16.1362 79.774 16.8854 80.0309 18.0082L80.1046 18.3339L80.0385 19.279C79.9822 20.1138 79.98 20.2489 80.0184 20.4415C80.0853 20.7581 80.1501 22.0448 80.1153 22.3354C80.0402 22.9327 79.8991 23.4078 79.7319 23.627C79.6819 23.6892 79.3787 23.8873 78.892 24.1736C78.1315 24.6218 78.1315 24.6218 78.0795 24.7658C77.8907 25.2874 77.3278 25.7943 76.2288 26.4237C75.7021 26.7246 75.6446 26.7653 75.6876 26.807C75.7306 26.8486 75.661 26.8963 75.0024 27.2544C74.5967 27.4704 74.1267 27.7181 73.9556 27.8025C73.4359 28.0591 72.1629 28.6003 71.2072 28.9742L70.3007 29.3297L69.9161 29.7675L69.5316 30.2084L69.2699 30.3007C68.122 30.7161 66.328 31.1938 64.971 31.4507C63.3158 31.7642 61.2202 31.9942 59.7385 32.0286L59.0398 32.0435L58.8524 31.7018C58.7516 31.5157 58.6436 31.3111 58.6121 31.25C58.5133 31.0417 58.1144 30.8525 57.7561 30.8401L57.5834 30.8366L57.296 31.3321C56.52 32.6726 55.8938 33.4057 55.3142 33.656C54.9249 33.8273 53.1617 34.1747 52.3684 34.2386L51.8375 34.2823L51.6291 34.196ZM51.2782 33.1944C51.38 33.1608 51.5668 33.0756 51.6914 32.9999C52.744 32.3825 53.3948 30.8696 53.4822 28.8435C53.5042 28.3684 53.4122 27.1616 53.3172 26.6707C52.86 24.2496 51.8363 22.21 50.4636 20.9831C49.6568 20.2566 48.747 19.8967 48.0833 20.0385C46.7436 20.329 45.8575 21.782 45.6447 24.047C45.6163 24.3405 45.6218 24.6227 45.6577 25.3019C45.7065 26.2253 45.7509 26.5306 45.9564 27.3924C46.5014 29.6927 47.7502 31.78 49.1323 32.7083C49.9323 33.2467 50.6116 33.3991 51.2782 33.1944ZM66.0551 29.1146C66.6322 28.9365 67.1365 28.5081 67.3604 27.9972C67.5481 27.5729 67.5589 27.2428 67.3883 26.9222C67.3008 26.751 67.0191 26.4646 66.8744 26.3969C66.8069 26.3659 66.8069 26.3659 66.8879 26.4747C67.0025 26.6255 67.0473 26.7613 67.0834 27.089C67.1384 27.5946 66.9997 28.0571 66.6782 28.4413C66.4568 28.7041 66.2033 28.8933 65.9293 28.9894C65.6185 29.1031 65.1515 29.109 64.8979 28.9999C64.6765 28.9049 64.5075 28.7349 64.4044 28.5049C64.2873 28.2475 64.26 27.731 64.3465 27.4094C64.4253 27.1196 64.6381 26.7536 64.8468 26.548L65.0018 26.3954L64.8214 26.4834C64.4213 26.6866 64.1298 26.928 63.6104 27.4859C63.2662 27.8588 63.2182 27.9587 63.2918 28.1651C63.3617 28.3592 63.4412 28.4397 63.7325 28.6095C64.2569 28.9177 64.9253 29.1617 65.3477 29.2022C65.5589 29.2224 65.7958 29.1942 66.0551 29.1146ZM64.8451 27.7628C64.9374 27.5508 64.9665 27.2699 64.909 27.1913C64.8652 27.134 64.8232 27.1707 64.7352 27.3449C64.6355 27.5354 64.5842 27.8112 64.6185 27.9851L64.6476 28.1217L64.7 28.0436C64.7322 28.0011 64.7946 27.8754 64.8451 27.7628ZM65.1452 25.8448C65.7194 25.7893 66.3933 25.7223 66.6431 25.6997C67.1517 25.6509 67.3438 25.6062 67.5418 25.4953C67.7092 25.3985 67.7476 25.3526 67.9985 24.9375C68.3908 24.289 68.8602 23.7337 69.3327 23.3572C69.8322 22.9573 69.8413 22.9505 71.5545 22.43C74.7677 21.4472 76.1417 20.9759 77.6669 20.3397C78.428 20.0233 79.5822 19.4883 79.6294 19.4325C79.647 19.4096 79.6773 19.1506 79.6993 18.8544L79.7365 18.3125L79.6419 17.9471C79.3916 16.9496 79.0657 16.3014 78.6086 15.9018C78.4605 15.7715 78.4444 15.7629 78.4767 15.8397C78.5549 16.0145 78.5428 16.2599 78.4492 16.4469L78.361 16.618L78.4333 16.7397C78.4713 16.8067 78.5048 16.9054 78.5074 16.9555C78.5101 17.0056 78.5313 17.0515 78.5535 17.0567C78.5822 17.0646 78.597 17.1674 78.6104 17.4209L78.6291 17.7746L78.399 17.8715C78.2734 17.9284 78.0747 18.0268 77.9559 18.0927C76.5433 18.9018 74.6814 19.4585 71.7029 19.9549C71.3859 20.0093 70.9205 20.1061 70.6635 20.1699C70.1404 20.3011 70.0436 20.3094 69.8154 20.265C69.4697 20.1922 69.3225 20.0776 68.9161 19.5685C68.2141 18.6891 67.896 18.3669 67.6801 18.3186C67.6041 18.3038 67.2159 18.3181 66.6035 18.363C64.56 18.5086 63.0127 18.4303 62.0023 18.1259C61.674 18.0271 61.1986 17.8136 60.9228 17.6399C60.7962 17.5587 60.4323 17.2609 60.1194 16.9792C59.5199 16.4364 59.2041 16.2177 58.7064 15.9992C58.1509 15.7554 57.7726 15.6593 56.8461 15.5168C55.8879 15.3696 55.4052 15.1974 55.0081 14.8637C54.6569 14.5684 54.3769 14.1374 54.1142 13.4984C53.9847 13.1851 53.9647 13.0449 54.0492 13.0404C54.0773 13.0389 54.4639 13.053 54.9041 13.0737C58.8526 13.2449 62.1591 13.2585 65.5233 13.1153C69.5132 12.9421 72.7836 12.5684 76.0451 11.9064C76.3957 11.8345 76.6841 11.7722 76.6871 11.7689C76.7137 11.7392 76.2793 11.2348 76.0822 11.0663C75.7407 10.7767 75.5068 10.6824 74.7304 10.5319C73.0604 10.209 71.5363 10.0353 67.2867 9.68538C66.3165 9.60795 65.2042 9.50978 64.8132 9.4708C64.2108 9.40846 64.0538 9.40421 63.7761 9.43144C63.5952 9.45041 62.5424 9.53115 61.4329 9.60548C56.3452 9.95593 55.1269 10.0486 53.9988 10.1866C52.9423 10.3147 52.1503 10.4632 51.6071 10.6301C51.32 10.7174 50.9254 10.7885 49.5348 11.0032C48.592 11.1472 47.7923 11.2679 47.7579 11.2698C47.7204 11.2717 47.6649 11.2307 47.6244 11.1764L47.5532 11.0765L47.5577 11.1611C47.561 11.2237 47.5437 11.2528 47.4942 11.2649C47.2066 11.3428 46.8891 11.3879 46.236 11.4349C45.4238 11.4967 44.997 11.491 44.3811 11.4105C44.0591 11.371 43.8895 11.3674 43.1482 11.4066L42.2879 11.4489L42.059 11.5678C41.7783 11.7176 41.5289 11.7464 40.7193 11.739C40.0446 11.7307 38.6344 11.6357 38.4938 11.5866C38.4233 11.559 38.3838 11.5234 38.368 11.4615C38.322 11.3038 38.3154 11.2979 38.1997 11.304C38.1403 11.3071 37.8889 11.2984 37.6436 11.2863C37.3983 11.2741 36.2381 11.2789 35.066 11.2969C32.396 11.3407 32.4306 11.342 32.3316 11.2499C32.2593 11.1878 32.2512 11.1537 32.2375 10.8939C32.2231 10.6216 32.2277 10.59 32.3486 10.2666C32.5135 9.82468 32.8129 9.14026 33.0173 8.73396C33.4773 7.82447 34.2328 6.68906 34.4438 6.58688C34.5447 6.5376 37.9541 5.5884 38.258 5.52212C38.8753 5.3922 42.5103 4.67592 42.5789 4.66915C42.6446 4.66568 42.6901 4.69467 42.7673 4.79103C42.821 4.85725 42.8668 4.8925 42.8653 4.86433C42.8633 4.82677 42.922 4.81111 43.1839 4.78157C44.4436 4.63968 49.2577 4.33507 50.4114 4.32433C51.0853 4.31697 50.9153 4.30398 49.9387 4.28339C47.8128 4.23564 46.7528 4.23829 44.9364 4.29033L43.4487 4.33127L42.6243 4.45958C42.17 4.52754 41.0995 4.68769 40.2433 4.80826C37.61 5.18911 36.4381 5.38915 35.0368 5.69862C33.5207 6.03298 33.1941 6.14441 32.6959 6.50974C32.4755 6.67205 31.7782 7.36494 31.8076 7.38849C31.8142 7.39442 31.9783 7.35436 32.1732 7.30326C32.3681 7.25215 32.6167 7.20763 32.726 7.19871L32.9199 7.18846L32.9272 7.32619C32.9338 7.4514 32.9087 7.50923 32.6946 7.85013C32.3908 8.33389 31.9088 9.18489 31.4035 10.1282C31.1895 10.5287 30.9746 10.9136 30.9281 10.9851C30.7978 11.1897 30.6721 11.2435 30.2227 11.2861L29.8325 11.3224L29.6895 11.6438C29.4373 12.2127 29.33 12.7928 29.2998 13.7644C29.2882 14.1385 29.256 14.4792 29.219 14.6695C29.1619 14.955 29.0949 15.5267 29.102 15.6613C29.1047 15.7114 29.1228 15.6979 29.196 15.5998C29.6117 15.038 30.3363 15.2759 30.8396 16.1345C31.0914 16.5669 31.2245 16.8895 31.6424 18.0916C32.0495 19.266 32.1325 19.4719 32.2352 19.5764C32.2949 19.636 33.4605 19.9699 38.1619 21.2721C41.5678 22.2159 44.0672 22.9219 44.1384 22.9621C44.2032 23.0026 44.2671 23.0243 44.276 23.0145C44.2847 23.0014 44.29 22.9227 44.2853 22.835C44.2807 22.7474 44.2925 22.436 44.3113 22.14C44.5088 19.1099 45.5848 17.5118 47.7078 17.0889C48.1238 17.0072 48.4285 17.0162 48.9987 17.1211C51.8846 17.6623 54.3223 20.4056 56.4154 25.4711L56.6745 26.1009L57.1152 26.131C57.6819 26.1701 58.6368 26.1981 59.3143 26.1968C60.1046 26.1959 63.9313 25.9623 65.1452 25.8448ZM30.9533 24.6382C31.0688 24.5693 31.2393 24.3531 31.3175 24.17C31.382 24.0254 31.5512 23.4295 31.5477 23.3637C31.5468 23.3449 31.5054 23.3346 31.4554 23.3372C31.3709 23.3417 31.3543 23.3237 31.2346 23.0758C30.6566 21.8727 30.4059 19.9179 30.6472 18.4298C30.6797 18.2146 30.6885 18.2016 30.7724 18.1878L30.8626 18.1736L30.7034 17.8901C30.5271 17.5824 30.2274 17.2529 30.0613 17.1958C29.7161 17.0728 29.3429 17.7862 29.2241 18.8032C29.109 19.7698 29.1975 21.0301 29.4625 22.1869C29.7438 23.4151 30.2552 24.4271 30.7021 24.6326C30.8435 24.6973 30.8466 24.6971 30.9533 24.6382ZM74.4407 15.7924C74.3116 15.7239 74.1815 15.577 74.1306 15.4447C74.0581 15.2602 74.0841 14.9794 74.1909 14.8043L74.2802 14.6552L74.1326 14.8293C73.9407 15.0561 73.9045 15.2024 73.9958 15.3859C74.034 15.4561 74.1081 15.5526 74.167 15.5997C74.2393 15.6618 74.2704 15.7166 74.2741 15.7855C74.279 15.8794 74.2822 15.8793 74.4068 15.8633L74.5343 15.844L74.4407 15.7924ZM48.0486 10.3598C48.8591 10.2071 49.8151 10.075 50.9847 9.9504C51.2031 9.92944 51.3802 9.89811 51.3794 9.88246C51.3773 9.84177 51.193 9.85778 50.1301 9.983C49.1202 10.1023 48.2263 10.2217 47.8537 10.2916C47.7262 10.3141 47.5988 10.3365 47.5676 10.3381C47.5206 10.3406 47.518 10.3502 47.549 10.4019C47.573 10.4414 47.6084 10.4584 47.6392 10.4474C47.6668 10.4365 47.853 10.3984 48.0486 10.3598ZM43.6749 10.2739C44.099 10.2264 44.4955 10.1929 44.5523 10.1993C44.6944 10.2169 44.6769 10.1833 44.5041 10.1171C44.3633 10.0649 44.3193 10.064 43.6261 10.1227C43.0391 10.1725 42.8857 10.1775 42.8432 10.1452C42.8139 10.1248 42.7393 10.0188 42.677 9.90913C42.525 9.64408 42.1824 9.33259 41.9033 9.2155L41.6947 9.12608L40.4275 9.18363C39.6483 9.21852 39.1265 9.25551 39.0806 9.27677C39.0317 9.30133 39.4138 9.29055 40.2708 9.24527L41.5346 9.18163L41.6701 9.25294C41.8472 9.34089 41.9345 9.44928 42.166 9.85452C42.3701 10.2141 42.4169 10.2682 42.5896 10.3312C42.7303 10.3834 42.7428 10.3828 43.6749 10.2739ZM58.0715 9.50373C58.0707 9.48808 58.0753 9.45645 58.0833 9.43091C58.0942 9.39895 57.9967 9.39468 57.5807 9.41666L57.0645 9.4408L57.449 9.47698C57.6634 9.49705 57.8527 9.51843 57.8687 9.52387C57.9294 9.54577 58.073 9.53191 58.0715 9.50373ZM56.9626 9.41166C56.931 9.40705 56.8809 9.4097 56.8531 9.41744C56.8223 9.42849 56.8477 9.43343 56.9071 9.43029C56.9665 9.42715 56.9912 9.41956 56.9626 9.41166ZM59.2565 9.19628C59.2155 9.19217 59.153 9.19547 59.1158 9.20371C59.0754 9.21212 59.107 9.21673 59.1852 9.2126C59.2634 9.20847 59.2944 9.20055 59.2565 9.19628ZM59.724 9.14018C59.683 9.13607 59.6205 9.13938 59.5833 9.14762C59.5429 9.15603 59.5745 9.16064 59.6527 9.15651C59.7309 9.15237 59.7619 9.14446 59.724 9.14018Z" fill="black"/>
<path d="M51.7655 32.3244C50.1677 31.9442 48.9237 30.7795 48.0933 28.8929C47.7584 28.1353 47.4284 26.9945 47.2576 26.0179C47.1595 25.4675 47.0838 24.2128 47.1197 23.7651C47.2353 22.3308 47.7078 21.2417 48.5598 20.4496C48.7662 20.2598 48.8688 20.2418 49.1814 20.3415C50.7413 20.8366 52.0661 22.6405 52.9668 25.4996C53.2042 26.253 53.2892 26.7915 53.3538 27.9558C53.3976 28.7853 53.4017 29.0393 53.3703 29.336C53.2563 30.4438 52.9518 31.3294 52.4083 32.1429C52.2599 32.361 52.2419 32.3777 52.1354 32.3802C52.0697 32.3836 51.9053 32.3578 51.7655 32.3244Z" fill="black"/>
<path d="M61.8655 34.7098C61.4857 34.7047 60.7173 34.7045 60.1559 34.7059C57.7977 34.7144 56.6841 34.6508 55.594 34.4416L55.1346 34.3529L54.2602 34.6031L53.3825 34.8504L52.4258 34.4929C51.9009 34.2946 51.4719 34.129 51.4779 34.1255C51.4809 34.1222 51.5849 34.1324 51.7053 34.1543C51.8729 34.18 52.0327 34.1778 52.3636 34.1477C53.122 34.0763 54.8659 33.7205 55.2154 33.567C55.7918 33.3168 56.4032 32.6002 57.1973 31.2462C57.5167 30.702 57.5106 30.7054 57.8321 30.7355C58.2386 30.7706 58.6021 30.9428 58.7009 31.1511C58.7324 31.2122 58.8404 31.4168 58.9412 31.6029L59.1254 31.9416L59.749 31.9306C61.1183 31.9054 63.2418 31.6707 64.8721 31.3617C66.2292 31.1048 68.0231 30.6271 69.1711 30.2117L69.4328 30.1194L69.8173 29.6785L70.2019 29.2407L71.1084 28.8852C72.7248 28.2536 73.7511 27.7913 74.6626 27.2942C74.9551 27.1313 75.2937 26.9501 75.4127 26.8873L75.6325 26.7722L76.4624 27.2839C77.2569 27.7755 77.296 27.8048 77.3828 27.9635C77.4866 28.1463 77.4957 28.3185 77.4141 28.6147C77.375 28.7643 77.3481 28.7909 77.0051 29.0664C73.9527 31.4877 70.9054 33.0581 67.6042 33.9168C65.7138 34.4091 63.4531 34.72 61.8655 34.7098Z" fill="#999999"/>
<path d="M50.4094 33.372C49.1925 33.1946 47.9832 32.1536 47.0216 30.456C46.3849 29.3283 45.9714 28.151 45.689 26.6656C45.5792 26.0718 45.4965 24.5067 45.5459 23.9579C45.719 22.1282 46.3302 20.8152 47.2842 20.2312C48.2502 19.6371 49.423 19.8702 50.5524 20.884C51.9252 22.111 52.9452 24.1414 53.4092 26.5715C53.5005 27.0532 53.6023 28.4447 53.581 28.9323C53.4966 30.9551 52.8427 32.4713 51.7901 33.0887C51.3826 33.33 50.8613 33.436 50.4094 33.372ZM52.3094 32.0537C52.853 31.2402 53.1575 30.3547 53.2714 29.2469C53.3 28.9566 53.299 28.6993 53.2599 27.9605C53.1845 26.5928 53.0513 25.972 52.546 24.6584C51.6398 22.2893 50.4864 20.8812 49.0893 20.4403C48.9713 20.4026 48.8574 20.3835 48.8236 20.3978C48.6882 20.4458 48.0949 21.1489 47.9025 21.4855C47.3593 22.4245 47.1553 23.4303 47.2314 24.8106C47.2825 25.7181 47.4155 26.455 47.7185 27.5C48.4881 30.1337 49.9102 31.7599 51.8543 32.2253C51.9941 32.2587 52.1179 32.2867 52.1304 32.286C52.1399 32.2887 52.222 32.1807 52.3094 32.0537Z" fill="white"/>
<path d="M65.259 29.3041C64.9941 29.2773 64.5513 29.1469 64.2077 28.9955C63.8224 28.8276 63.3952 28.5771 63.3143 28.4715C63.173 28.2906 63.1201 28.0015 63.188 27.8033C63.2293 27.6944 63.8016 27.0677 64.0774 26.8271C64.6265 26.3555 65.4075 26.06 66.0823 26.0683C66.9204 26.0805 67.5759 26.614 67.6129 27.3152C67.6591 28.1289 67.0424 28.9242 66.1509 29.2068C65.9134 29.2821 65.4892 29.3265 65.259 29.3041ZM65.846 28.8964C66.6828 28.5885 67.2133 27.5278 66.9099 26.7716C66.7262 26.3231 66.2589 26.0872 65.7503 26.1957C64.9809 26.3556 64.3562 27.1765 64.3979 27.9653C64.443 28.7602 65.0891 29.175 65.846 28.8964Z" fill="white"/>
<path d="M64.5705 28.2639C64.4301 27.8036 64.5463 27.2137 64.81 27.0396C64.892 26.9882 64.8982 26.9879 64.9582 27.0538C65.1479 27.2603 65.0451 27.8088 64.7459 28.2013C64.6284 28.3519 64.6008 28.3628 64.5705 28.2639Z" fill="white"/>
<path d="M42.9472 28.3769C39.2809 27.0169 38.6122 26.7666 36.9949 26.1364L35.9862 25.7439L34.9823 25.7405C34.3393 25.7399 33.9371 25.7267 33.8668 25.7021C33.6913 25.6455 32.6864 25.2058 32.6821 25.184C32.6783 25.1717 32.7307 25.1532 32.7958 25.1403C32.8579 25.1276 33.1277 25.0694 33.3911 25.0084L33.8716 24.9014L34.0075 24.7436C34.3293 24.3625 34.6686 23.3055 34.7372 22.467C34.7512 22.3156 34.7696 22.189 34.7821 22.1884C34.8196 22.1864 45.343 26.0531 45.3694 26.0768C45.3825 26.0887 45.4417 26.3178 45.4999 26.5878C45.7067 27.5343 45.9706 28.4338 46.2724 29.2182C46.3632 29.452 46.4332 29.6492 46.4271 29.6527C46.4212 29.6592 44.857 29.0827 42.9472 28.3769Z" fill="#999999"/>
<path d="M59.2254 26.2956C58.548 26.2968 57.593 26.2688 57.0264 26.2297L56.5857 26.1996L56.3266 25.5698C54.1149 20.2187 51.5491 17.4853 48.4263 17.1512C48.1392 17.1193 48.0829 17.1223 47.7757 17.1856C46.5653 17.4284 45.7111 18.0606 45.1497 19.1292C44.725 19.9364 44.4801 21.0009 44.412 22.3228C44.3958 22.669 44.3735 23.0186 44.3684 23.1005L44.3543 23.2487L44.1437 23.1217C43.9491 23.0002 43.5159 22.8756 38.0761 21.3707C33.3716 20.0686 32.206 19.7347 32.1464 19.6751C32.0436 19.5706 31.9606 19.3647 31.5535 18.1903C31.3502 17.6078 31.1267 16.9981 31.0585 16.8353C30.7404 16.0988 30.3704 15.6255 29.9857 15.4669C29.7453 15.3698 29.6671 15.3739 29.4948 15.496C29.2892 15.6418 29.1625 15.8557 29.0622 16.2126L29.015 16.3877L29.0074 15.9487C28.9968 15.4501 29.0337 15.0213 29.1202 14.5804C29.1572 14.3901 29.1894 14.0494 29.201 13.6753C29.2312 12.7037 29.3385 12.1236 29.5907 11.5547L29.7337 11.2333L30.1239 11.197C30.5733 11.1544 30.699 11.1006 30.8294 10.896C30.8758 10.8245 31.0907 10.4396 31.3047 10.0391C31.81 9.09579 32.292 8.24479 32.5958 7.76103C32.7258 7.55013 32.8347 7.35604 32.8334 7.331C32.8319 7.30283 32.7967 7.28899 32.7404 7.29197C32.6528 7.2966 32.0831 7.43656 31.7063 7.5475C31.6105 7.57454 31.5298 7.59136 31.5295 7.58509C31.5265 7.52875 31.7467 7.24403 32.014 6.95996C32.5749 6.35589 33.0123 6.08794 33.7546 5.88863C35.2082 5.50106 36.9882 5.17473 40.1602 4.71833C41.0256 4.59413 42.0837 4.43777 42.5099 4.37131C43.247 4.25388 43.347 4.24546 44.4458 4.20623C47.4825 4.09913 51.1333 4.15733 53.7693 4.36019C54.7959 4.43778 55.592 4.54638 55.5448 4.60224C55.5358 4.60899 55.3344 4.59766 55.0918 4.57595C52.7687 4.3597 49.8462 4.37288 46.4592 4.61777C44.6158 4.75284 42.9919 4.88574 42.9772 4.90534C42.9744 4.91177 44.0525 6.32068 45.3759 8.03681L47.7834 11.1584L47.8986 11.1429C47.961 11.1365 48.7171 11.0212 49.5822 10.8907C50.8452 10.6953 51.2244 10.6282 51.5083 10.541C52.0515 10.3741 52.8435 10.2256 53.9 10.0975C54.9782 9.96523 56.7679 9.82358 60.4592 9.5783C61.1718 9.53123 62.306 9.44932 62.9744 9.39517L64.1927 9.30255L64.9021 9.37179C65.2931 9.41077 66.4054 9.50893 67.3756 9.58637C70.803 9.86982 72.0297 9.99334 73.4142 10.1964C74.5743 10.3674 75.4113 10.5366 75.6907 10.66C76.018 10.7996 76.36 11.0986 76.6572 11.5003C76.8632 11.7782 76.8843 11.8211 76.8352 11.8425C76.7679 11.8743 75.7407 12.0824 74.8862 12.2343C70.4125 13.0451 65.0019 13.3969 58.7736 13.2928C57.4237 13.27 54.5928 13.1779 54.1959 13.1455L54.095 13.1351L54.2032 13.4025C54.4658 14.0384 54.7489 14.4692 55.0969 14.7647C55.4941 15.0984 55.9768 15.2706 56.9349 15.4178C57.8615 15.5603 58.2398 15.6564 58.7953 15.9002C59.293 16.1187 59.6088 16.3374 60.2083 16.8802C60.5211 17.1618 60.885 17.4596 61.0116 17.5408C61.2874 17.7146 61.7629 17.928 62.0912 18.0268C63.1047 18.3311 64.6521 18.4126 66.6672 18.2622C67.3201 18.212 67.6676 18.1999 67.7563 18.2172C67.9848 18.2679 68.2928 18.5749 69.005 19.4695C69.3376 19.8883 69.3974 19.951 69.5778 20.0419C69.9037 20.2131 70.0136 20.2167 70.5616 20.081C70.8186 20.0172 71.2871 19.9202 71.6041 19.8658C74.5856 19.3661 76.4445 18.8127 77.8571 18.0036C77.9759 17.9377 78.1746 17.8393 78.3002 17.7824L78.5303 17.6855L78.5169 17.432C78.5065 17.2944 78.4938 17.1727 78.4839 17.1638C78.4741 17.1549 78.3606 17.2048 78.2293 17.2714C77.314 17.7561 74.7135 18.5213 72.0647 19.085C71.0257 19.3063 70.9215 19.3526 70.5375 19.7433L70.3382 19.9484L70.4641 19.7785C70.6515 19.5269 70.8665 19.3209 71.0525 19.2201C71.2204 19.1327 71.2823 19.1169 72.6624 18.8211C74.3434 18.4624 76.2874 17.917 77.3169 17.5142C77.7256 17.3545 78.3377 17.0679 78.4157 17.001C78.4248 16.9942 78.3793 16.9056 78.3177 16.8084L78.2077 16.6259L78.3216 16.4064C78.4557 16.1545 78.4573 16.0665 78.3387 15.8405C78.29 15.7489 78.2546 15.6723 78.2575 15.669C78.2635 15.6624 78.3128 15.6473 78.3654 15.632C78.4582 15.6082 78.4839 15.6194 78.6678 15.7761C79.1575 16.199 79.4938 16.8656 79.7539 17.9285L79.8386 18.285L79.8012 18.8834C79.7779 19.2142 79.7458 19.4984 79.7282 19.5213C79.681 19.5771 78.5237 20.1123 77.7657 20.4285C76.2405 21.0647 74.8665 21.536 71.6533 22.5188C69.9401 23.0393 69.931 23.0461 69.4315 23.446C68.959 23.8225 68.4896 24.3778 68.0973 25.0263C67.8464 25.4414 67.808 25.4873 67.6406 25.5841C67.4426 25.695 67.2505 25.7397 66.7419 25.7885C66.4921 25.8111 65.8182 25.8781 65.244 25.9336C64.0333 26.0509 60.0283 26.2939 59.2254 26.2956ZM41.9604 11.4818L42.1891 11.3598L43.1433 11.3126C43.9815 11.2683 44.1415 11.2692 44.47 11.3115C45.0827 11.3921 45.5189 11.3973 46.2497 11.3367C46.8525 11.2892 47.4031 11.2036 47.4507 11.154C47.4981 11.1013 44.821 7.56704 43.142 5.47106C42.6649 4.87162 42.5785 4.77888 42.5131 4.78862C42.3855 4.80791 38.6539 5.53558 38.5828 5.55503C38.5242 5.57382 38.4912 5.66032 38.3551 6.17287C37.97 7.60889 37.7058 9.07932 37.5457 10.6792C37.5191 10.9474 37.4964 11.1715 37.4997 11.1745C37.503 11.1774 37.7104 11.1853 37.9587 11.1942C38.2101 11.2028 38.4152 11.2265 38.4193 11.2451C38.4264 11.2605 38.4419 11.3162 38.4569 11.3624C38.4727 11.4244 38.5122 11.46 38.5827 11.4876C38.7009 11.5285 40.077 11.6315 40.6515 11.642C40.8681 11.6462 41.2002 11.6381 41.3877 11.6251C41.7064 11.6019 41.7467 11.5935 41.9604 11.4818ZM37.3087 11.0621C37.4078 10.1466 37.4431 9.86538 37.51 9.40983C37.6569 8.45097 37.8943 7.30527 38.1935 6.14061C38.2635 5.86382 38.3201 5.62855 38.3137 5.62575C38.2972 5.61093 34.6435 6.62639 34.5426 6.67567C34.3316 6.77785 33.5761 7.91326 33.1161 8.82275C32.9117 9.22905 32.6123 9.91347 32.4474 10.3554C32.3459 10.6307 32.3231 10.7323 32.3307 10.8763C32.3411 11.0735 32.3767 11.1532 32.4796 11.2012C32.5407 11.2293 36.1278 11.2093 37.0261 11.1744L37.2984 11.1631L37.3087 11.0621Z" fill="white"/>
<path d="M45.092 10.5001C45.0513 10.4426 44.7665 10.3353 44.5991 10.3127C44.4822 10.2969 44.1666 10.3199 43.5648 10.3862C42.3953 10.5139 42.3955 10.517 42.0775 9.95942C41.8456 9.54792 41.7585 9.44266 41.5811 9.35159L41.4456 9.28027L40.182 9.34704C39.1905 9.39944 38.8814 9.42519 38.7487 9.46673C38.6562 9.49673 38.5726 9.51684 38.566 9.51091C38.5428 9.48703 38.7288 9.32653 38.878 9.24331L39.0364 9.15333L40.41 9.09016L41.7836 9.027L41.9921 9.11642C42.2617 9.23088 42.617 9.54483 42.7555 9.79176C42.9385 10.1085 42.8591 10.0908 43.7023 10.0211C44.408 9.96183 44.4457 9.96298 44.5898 10.0181C44.7402 10.0761 45.0549 10.3326 45.1338 10.4602C45.1718 10.5273 45.1361 10.5637 45.092 10.5001Z" fill="white"/>
<path d="M30.6131 24.7314C30.0794 24.4833 29.5526 23.2995 29.2427 21.6491C29.1517 21.1737 29.0561 19.8384 29.0751 19.3666C29.126 18.1931 29.3793 17.3479 29.7473 17.1307C29.8569 17.0684 30.0634 17.0575 30.1791 17.111C30.3044 17.1671 30.5825 17.4444 30.7092 17.6448C31.5713 19.0024 32.0055 22.1152 31.5646 23.8022C31.4338 24.2956 31.268 24.5995 31.052 24.727C30.9363 24.7928 30.7514 24.7962 30.6131 24.7314ZM31.5231 22.9569C31.6625 21.4993 31.4037 19.6296 30.9125 18.5256C30.7776 18.2282 30.7717 18.2348 30.7094 18.778C30.5715 19.9655 30.7116 21.311 31.089 22.3991C31.2153 22.7722 31.4481 23.259 31.4774 23.2198C31.4892 23.2066 31.5079 23.0864 31.5231 22.9569Z" fill="white"/>
<path d="M67.353 16.8763C67.3712 16.8659 67.6142 16.8342 67.8977 16.7973C69.7554 16.5767 71.7401 16.2678 73.4757 15.9313L74.1837 15.7965L74.0682 15.6896C73.7781 15.4225 73.7596 15.0719 74.0186 14.7506C74.469 14.1932 75.515 14.1034 76.0074 14.5764C76.1396 14.7044 76.2641 14.9238 76.2285 14.9634C76.2197 14.9733 76.2022 14.9397 76.1869 14.8871C76.1516 14.754 75.8836 14.5484 75.6766 14.4903C75.295 14.3912 74.9366 14.4353 74.5984 14.6226C73.9099 15.0074 74.1423 15.7265 74.9821 15.8297C75.3829 15.8776 75.8389 15.7216 76.0696 15.4583C76.1789 15.3301 76.2066 15.3192 76.5988 15.2043C76.8276 15.142 77.2133 15.0212 77.4599 14.9391C78.0642 14.7408 78.0583 14.7474 78.0056 14.226L77.966 13.8326L78.0864 14.093C78.1536 14.237 78.222 14.4029 78.2347 14.465C78.2709 14.6169 78.2048 14.7899 78.0777 14.8782C77.9294 14.9802 77.1235 15.2802 76.5612 15.4418C76.2894 15.522 76.0336 15.6077 75.9912 15.6351C75.5086 15.94 75.2091 16.0311 74.8116 15.9862C74.4962 15.9527 74.4807 15.9566 73.7412 16.0899C72.4177 16.3293 71.0725 16.5134 69.1478 16.7124C68.0404 16.8274 67.3131 16.8941 67.353 16.8763Z" fill="white"/>
<path d="M67.093 14.3317C66.9385 14.3147 66.9416 14.3145 67.1697 14.2994C67.507 14.2721 69.173 14.1025 70.1021 13.9969C72.4342 13.7324 74.3807 13.4129 75.9638 13.0405C76.4688 12.9228 77.1432 12.7459 77.254 12.7055C77.3801 12.6581 77.3215 12.4383 77.1135 12.1825C77.0733 12.1344 77.0262 12.0741 77.0125 12.0528C76.9582 11.9741 77.1041 12.0637 77.2299 12.1889C77.3889 12.35 77.4546 12.4658 77.4626 12.616C77.4727 12.807 77.3998 12.8516 76.8177 12.9954C74.7589 13.506 72.2745 13.9166 69.8278 14.1495C68.8043 14.2475 67.282 14.3468 67.093 14.3317Z" fill="white"/>
<path d="M47.4284 10.4363C47.3863 10.3507 47.3542 10.277 47.3601 10.2704C47.4021 10.2337 49.1114 9.99583 50.2807 9.86498C50.736 9.81581 51.1818 9.76401 51.2722 9.75295C51.4371 9.72854 51.4404 9.73151 51.4896 9.83249C51.5178 9.89064 51.5397 9.94912 51.5405 9.96478C51.5414 9.98043 51.3486 10.0126 51.1147 10.0375C49.7327 10.1796 47.9062 10.455 47.5551 10.5772C47.518 10.5885 47.4846 10.5495 47.4284 10.4363Z" fill="white"/>
<path d="M57.5907 9.60441C56.6783 9.49254 55.6953 9.46914 54.5381 9.5303C53.7592 9.57145 53.7153 9.57063 53.7125 9.51742C53.7097 9.46421 53.7467 9.45283 54.0149 9.42297C54.7815 9.3291 56.2627 9.28535 57.2811 9.32571C57.6143 9.33949 57.7299 9.33025 58.0311 9.27352C58.4314 9.19273 58.9296 9.12246 59.4753 9.06224L59.8496 9.02362L59.8926 9.12494C59.9175 9.18012 59.9358 9.22938 59.9297 9.23284C59.9267 9.23614 59.5868 9.27293 59.1749 9.31353C58.1921 9.41255 58.1984 9.41222 58.1803 9.54501C58.1621 9.67467 58.1683 9.67434 57.5907 9.60441Z" fill="white"/>
<path d="M59.9992 8.94658C59.9685 8.90111 59.9506 8.85811 59.9595 8.84823C59.9682 8.83521 60.2118 8.81606 60.4965 8.80102C60.9343 8.77788 61.0285 8.77918 61.0715 8.82086C61.1209 8.86533 61.1054 8.86929 60.8771 8.88135C60.6456 8.89358 60.2942 8.94982 60.1276 9.00257C60.0751 9.0179 60.043 9.0039 59.9992 8.94658Z" fill="white"/>
<path d="M33.3631 49.4289H23.0487L21.3096 36.7469H16.6999L14.9241 49.4289H4.62549L12.3992 2.11621H25.5789L33.3631 49.4289ZM20.4715 30.1623L18.9786 16.0188L17.5642 30.1623H20.4715Z" fill="url(#paint1_linear)" stroke="black" stroke-width="0.5" stroke-miterlimit="10"/>
<path d="M38.7638 47.9989C38.7638 48.3781 38.6131 48.7419 38.3449 49.0101C38.0767 49.2783 37.713 49.4289 37.3337 49.4289H34.4264C34.3817 49.435 34.3361 49.4306 34.2933 49.4162C34.2505 49.4017 34.2116 49.3776 34.1797 49.3457C34.1477 49.3137 34.1236 49.2748 34.1092 49.232C34.0947 49.1892 34.0903 49.1437 34.0964 49.0989V42.1005C34.0903 42.0557 34.0947 42.0102 34.1092 41.9674C34.1236 41.9246 34.1477 41.8857 34.1797 41.8537C34.2116 41.8218 34.2505 41.7977 34.2933 41.7832C34.3361 41.7688 34.3817 41.7644 34.4264 41.7705H37.3232C37.5119 41.7676 37.6991 41.8038 37.8731 41.8768C38.0471 41.9499 38.2041 42.0581 38.3342 42.1948C38.4687 42.3263 38.5751 42.4837 38.6472 42.6574C38.7192 42.8312 38.7553 43.0177 38.7533 43.2058V44.7773C38.7541 44.8859 38.7326 44.9935 38.6903 45.0935C38.6479 45.1934 38.5856 45.2837 38.5071 45.3587C38.3699 45.5034 38.1824 45.5897 37.9833 45.5997C38.1823 45.6141 38.3689 45.7019 38.5071 45.8459C38.5883 45.9194 38.6531 46.0091 38.6973 46.1093C38.7415 46.2095 38.7642 46.3179 38.7638 46.4274V47.9989ZM36.8256 44.7563V43.9182C36.83 43.8883 36.8273 43.8577 36.8178 43.829C36.8083 43.8003 36.7923 43.7743 36.7709 43.7529C36.7495 43.7315 36.7234 43.7154 36.6947 43.7059C36.666 43.6964 36.6355 43.6938 36.6056 43.6982H36.2441C36.2142 43.6938 36.1837 43.6964 36.155 43.7059C36.1263 43.7154 36.1002 43.7315 36.0788 43.7529C36.0574 43.7743 36.0413 43.8003 36.0318 43.829C36.0224 43.8577 36.0197 43.8883 36.0241 43.9182V44.7563C36.0197 44.7862 36.0224 44.8168 36.0318 44.8455C36.0413 44.8742 36.0574 44.9003 36.0788 44.9216C36.1002 44.943 36.1263 44.9591 36.155 44.9686C36.1837 44.9781 36.2142 44.9807 36.2441 44.9763H36.6056C36.6355 44.9807 36.666 44.9781 36.6947 44.9686C36.7234 44.9591 36.7495 44.943 36.7709 44.9216C36.7923 44.9003 36.8083 44.8742 36.8178 44.8455C36.8273 44.8168 36.83 44.7862 36.8256 44.7563ZM36.8256 47.2864V46.4483C36.83 46.4184 36.8273 46.3879 36.8178 46.3592C36.8083 46.3305 36.7923 46.3044 36.7709 46.283C36.7495 46.2616 36.7234 46.2455 36.6947 46.236C36.666 46.2265 36.6355 46.2239 36.6056 46.2283H36.2441C36.2142 46.2239 36.1837 46.2265 36.155 46.236C36.1263 46.2455 36.1002 46.2616 36.0788 46.283C36.0574 46.3044 36.0413 46.3305 36.0318 46.3592C36.0224 46.3879 36.0197 46.4184 36.0241 46.4483V47.2864C36.0197 47.3164 36.0224 47.3469 36.0318 47.3756C36.0413 47.4043 36.0574 47.4304 36.0788 47.4518C36.1002 47.4731 36.1263 47.4892 36.155 47.4987C36.1837 47.5082 36.2142 47.5109 36.2441 47.5065H36.6056C36.6355 47.5109 36.666 47.5082 36.6947 47.4987C36.7234 47.4892 36.7495 47.4731 36.7709 47.4518C36.7923 47.4304 36.8083 47.4043 36.8178 47.3756C36.8273 47.3469 36.83 47.3164 36.8256 47.2864Z" fill="white" stroke="black" stroke-width="0.5" stroke-miterlimit="10"/>
<path d="M43.8554 43.3682C43.8615 43.4129 43.8571 43.4585 43.8427 43.5013C43.8282 43.5441 43.8041 43.583 43.7722 43.6149C43.7402 43.6468 43.7013 43.671 43.6585 43.6854C43.6157 43.6999 43.5702 43.7042 43.5254 43.6982H42.7449C42.715 43.6938 42.6845 43.6964 42.6558 43.7059C42.6271 43.7154 42.601 43.7315 42.5796 43.7529C42.5582 43.7743 42.5421 43.8003 42.5326 43.829C42.5231 43.8577 42.5205 43.8883 42.5249 43.9182V49.0989C42.531 49.1437 42.5266 49.1892 42.5121 49.232C42.4977 49.2748 42.4736 49.3137 42.4416 49.3457C42.4097 49.3776 42.3708 49.4017 42.328 49.4162C42.2852 49.4306 42.2396 49.435 42.1949 49.4289H40.9272C40.8824 49.435 40.8369 49.4306 40.7941 49.4162C40.7513 49.4017 40.7124 49.3776 40.6805 49.3457C40.6485 49.3137 40.6244 49.2748 40.6099 49.232C40.5955 49.1892 40.5911 49.1437 40.5972 49.0989V43.9287C40.6016 43.8988 40.5989 43.8682 40.5894 43.8395C40.58 43.8108 40.5639 43.7847 40.5425 43.7634C40.5211 43.742 40.495 43.7259 40.4663 43.7164C40.4376 43.7069 40.4071 43.7042 40.3772 43.7087H39.6071C39.5618 43.7129 39.5161 43.707 39.4734 43.6912C39.4307 43.6755 39.3921 43.6503 39.3604 43.6176C39.3287 43.5849 39.3048 43.5456 39.2904 43.5024C39.2759 43.4592 39.2714 43.4133 39.2771 43.3682V42.1005C39.2711 42.0557 39.2754 42.0102 39.2899 41.9674C39.3043 41.9246 39.3285 41.8857 39.3604 41.8537C39.3923 41.8218 39.4312 41.7977 39.474 41.7832C39.5168 41.7688 39.5624 41.7644 39.6071 41.7705H43.5254C43.5702 41.7644 43.6157 41.7688 43.6585 41.7832C43.7013 41.7977 43.7402 41.8218 43.7722 41.8537C43.8041 41.8857 43.8282 41.9246 43.8427 41.9674C43.8571 42.0102 43.8615 42.0557 43.8554 42.1005V43.3682Z" fill="white" stroke="black" stroke-width="0.5" stroke-miterlimit="10"/>
<path d="M49.0361 47.9989C49.0391 48.1871 49.0034 48.3739 48.9313 48.5477C48.8592 48.7216 48.7523 48.8789 48.6171 49.0099C48.4869 49.1461 48.3298 49.2537 48.1557 49.3258C47.9816 49.398 47.7945 49.4331 47.6061 49.4289H45.8146C45.6264 49.4303 45.4398 49.3943 45.2657 49.3229C45.0915 49.2515 44.9333 49.1462 44.8002 49.0132C44.6672 48.8801 44.5619 48.7219 44.4905 48.5478C44.4191 48.3736 44.3831 48.187 44.3845 47.9989V43.2058C44.3838 43.0175 44.4203 42.831 44.4918 42.6569C44.5634 42.4828 44.6686 42.3245 44.8015 42.1912C44.9344 42.0578 45.0922 41.952 45.2661 41.8798C45.4399 41.8076 45.6263 41.7705 45.8146 41.7705H47.6061C47.7948 41.7673 47.9821 41.8033 48.1562 41.8764C48.3302 41.9494 48.4872 42.0578 48.6171 42.1948C48.7515 42.3263 48.858 42.4836 48.93 42.6574C49.002 42.8312 49.0381 43.0177 49.0361 43.2058V47.9989ZM47.1137 47.2864V43.9182C47.117 43.8885 47.1136 43.8584 47.1037 43.8302C47.0938 43.802 47.0777 43.7764 47.0566 43.7552C47.0355 43.7341 47.0099 43.718 46.9816 43.7081C46.9534 43.6982 46.9234 43.6948 46.8937 43.6982H46.527C46.4971 43.6938 46.4665 43.6964 46.4378 43.7059C46.4091 43.7154 46.383 43.7315 46.3617 43.7529C46.3403 43.7742 46.3242 43.8003 46.3147 43.829C46.3052 43.8577 46.3026 43.8883 46.307 43.9182V47.2864C46.3026 47.3163 46.3052 47.3469 46.3147 47.3756C46.3242 47.4043 46.3403 47.4304 46.3617 47.4517C46.383 47.4731 46.4091 47.4892 46.4378 47.4987C46.4665 47.5082 46.4971 47.5109 46.527 47.5064H46.8937C46.9234 47.5098 46.9534 47.5064 46.9816 47.4965C47.0099 47.4866 47.0355 47.4705 47.0566 47.4494C47.0777 47.4282 47.0938 47.4026 47.1037 47.3744C47.1136 47.3462 47.117 47.3161 47.1137 47.2864Z" fill="white" stroke="black" stroke-width="0.5" stroke-miterlimit="10"/>
<path d="M45.2803 41.2728H33.7874V13.3943H39.911V37.695H45.2803V41.2728Z" fill="url(#paint2_linear)" stroke="black" stroke-width="0.5" stroke-miterlimit="10"/>
<path d="M50.55 40.9377C50.5561 40.9824 50.5517 41.028 50.5373 41.0708C50.5228 41.1136 50.4987 41.1525 50.4668 41.1844C50.4348 41.2163 50.3959 41.2405 50.3531 41.2549C50.3103 41.2694 50.2648 41.2737 50.22 41.2677H48.9523C48.9076 41.2737 48.862 41.2694 48.8192 41.2549C48.7764 41.2405 48.7375 41.2163 48.7056 41.1844C48.6736 41.1525 48.6495 41.1136 48.6351 41.0708C48.6206 41.028 48.6163 40.9824 48.6223 40.9377V38.6747L47.8208 40.9377C47.7475 41.1577 47.6375 41.2677 47.4908 41.2677H46.2284C46.1832 41.2746 46.1371 41.2709 46.0936 41.2569C46.0501 41.2429 46.0105 41.2189 45.9779 41.1868C45.9454 41.1547 45.9208 41.1155 45.906 41.0723C45.8913 41.029 45.8869 40.9829 45.8931 40.9377V33.9445C45.8869 33.8992 45.8913 33.8531 45.906 33.8098C45.9208 33.7666 45.9454 33.7274 45.9779 33.6953C46.0105 33.6633 46.0501 33.6393 46.0936 33.6252C46.1371 33.6112 46.1832 33.6075 46.2284 33.6144H47.4908C47.5356 33.6084 47.5811 33.6128 47.6239 33.6272C47.6667 33.6416 47.7056 33.6658 47.7376 33.6977C47.7695 33.7297 47.7936 33.7685 47.8081 33.8113C47.8225 33.8541 47.8269 33.8997 47.8208 33.9445V36.3122L48.6223 33.9445C48.6852 33.7175 48.7952 33.604 48.9523 33.604H50.22C50.2648 33.5979 50.3103 33.6023 50.3531 33.6167C50.3959 33.6312 50.4348 33.6553 50.4668 33.6872C50.4987 33.7192 50.5228 33.7581 50.5373 33.8009C50.5517 33.8437 50.5561 33.8892 50.55 33.934V40.9377Z" fill="white" stroke="black" stroke-width="0.5" stroke-miterlimit="10"/>
<path d="M54.6831 41.2729H53.2216C53.1917 41.2685 53.1612 41.2711 53.1324 41.2806C53.1037 41.2901 53.0777 41.3062 53.0563 41.3276C53.0349 41.349 53.0188 41.3751 53.0093 41.4038C52.9998 41.4325 52.9972 41.463 53.0016 41.4929V41.7444C53.0076 41.7891 53.0033 41.8347 52.9888 41.8775C52.9744 41.9203 52.9502 41.9592 52.9183 41.9911C52.8864 42.023 52.8475 42.0472 52.8047 42.0616C52.7619 42.0761 52.7163 42.0804 52.6716 42.0744H51.4091C51.3644 42.0804 51.3188 42.0761 51.276 42.0616C51.2332 42.0472 51.1943 42.023 51.1624 41.9911C51.1304 41.9592 51.1063 41.9203 51.0919 41.8775C51.0774 41.8347 51.0731 41.7891 51.0791 41.7444V39.649C51.0728 39.6044 51.0771 39.559 51.0915 39.5164C51.106 39.4737 51.1302 39.4351 51.1623 39.4035C51.1944 39.3719 51.2334 39.3483 51.2763 39.3345C51.3192 39.3208 51.3646 39.3172 51.4091 39.3242C51.5558 39.3242 51.6291 39.2509 51.6291 39.1042V35.0183C51.6333 34.6418 51.7858 34.2821 52.0535 34.0173C52.3212 33.7525 52.6826 33.6039 53.0592 33.604H55.9508C55.9955 33.5979 56.0411 33.6023 56.0839 33.6167C56.1267 33.6312 56.1656 33.6553 56.1975 33.6872C56.2295 33.7192 56.2536 33.7581 56.268 33.8009C56.2825 33.8437 56.2868 33.8892 56.2808 33.934V39.3661H56.5008C56.5453 39.3592 56.5908 39.3627 56.6336 39.3765C56.6765 39.3902 56.7155 39.4138 56.7476 39.4454C56.7797 39.477 56.8039 39.5156 56.8184 39.5583C56.8328 39.6009 56.8371 39.6463 56.8308 39.6909V41.7863C56.8369 41.831 56.8325 41.8766 56.8181 41.9194C56.8036 41.9622 56.7795 42.0011 56.7475 42.033C56.7156 42.0649 56.6767 42.0891 56.6339 42.1035C56.5911 42.118 56.5456 42.1223 56.5008 42.1163H55.2331C55.1884 42.1223 55.1428 42.118 55.1 42.1035C55.0572 42.0891 55.0183 42.0649 54.9864 42.033C54.9544 42.0011 54.9303 41.9622 54.9159 41.9194C54.9014 41.8766 54.897 41.831 54.9031 41.7863V41.5348C54.9162 41.5022 54.9202 41.4667 54.9147 41.432C54.9091 41.3973 54.8943 41.3647 54.8717 41.3378C54.8491 41.3109 54.8196 41.2907 54.7864 41.2793C54.7532 41.2678 54.7175 41.2656 54.6831 41.2729ZM53.5516 35.7622V39.3661H54.3531V35.7622C54.3575 35.7323 54.3548 35.7017 54.3453 35.673C54.3358 35.6443 54.3198 35.6182 54.2984 35.5968C54.277 35.5755 54.2509 35.5594 54.2222 35.5499C54.1935 35.5404 54.163 35.5377 54.1331 35.5422H53.7716C53.7417 35.5377 53.7112 35.5404 53.6825 35.5499C53.6538 35.5594 53.6277 35.5755 53.6063 35.5968C53.5849 35.6182 53.5688 35.6443 53.5593 35.673C53.5498 35.7017 53.5472 35.7323 53.5516 35.7622Z" fill="white" stroke="black" stroke-width="0.5" stroke-miterlimit="10"/>
<path d="M61.6815 40.9376C61.6876 40.9824 61.6832 41.028 61.6688 41.0708C61.6543 41.1136 61.6302 41.1525 61.5983 41.1844C61.5663 41.2163 61.5274 41.2405 61.4846 41.2549C61.4418 41.2694 61.3963 41.2737 61.3515 41.2677H58.79C58.6018 41.2706 58.4149 41.2349 58.2411 41.1628C58.0672 41.0907 57.9099 40.9838 57.779 40.8486C57.6427 40.7184 57.5351 40.5613 57.463 40.3872C57.3908 40.2132 57.3557 40.026 57.3599 39.8376V35.0445C57.3599 34.6643 57.5102 34.2994 57.7781 34.0296C58.046 33.7597 58.4097 33.6067 58.79 33.604H61.3515C61.3963 33.5979 61.4418 33.6023 61.4846 33.6167C61.5274 33.6312 61.5663 33.6553 61.5983 33.6872C61.6302 33.7192 61.6543 33.7581 61.6688 33.8009C61.6832 33.8437 61.6876 33.8892 61.6815 33.934V35.2017C61.6876 35.2464 61.6832 35.292 61.6688 35.3348C61.6543 35.3776 61.6302 35.4165 61.5983 35.4484C61.5663 35.4803 61.5274 35.5045 61.4846 35.5189C61.4418 35.5334 61.3963 35.5377 61.3515 35.5317H59.5024C59.4725 35.5273 59.4419 35.5299 59.4132 35.5394C59.3845 35.5489 59.3584 35.565 59.3371 35.5864C59.3157 35.6078 59.2996 35.6338 59.2901 35.6625C59.2806 35.6912 59.278 35.7218 59.2824 35.7517V36.2755C59.278 36.3054 59.2806 36.336 59.2901 36.3647C59.2996 36.3934 59.3157 36.4195 59.3371 36.4408C59.3584 36.4622 59.3845 36.4783 59.4132 36.4878C59.4419 36.4973 59.4725 36.4999 59.5024 36.4955H61.3515C61.3963 36.4895 61.4418 36.4938 61.4846 36.5083C61.5274 36.5227 61.5663 36.5469 61.5983 36.5788C61.6302 36.6107 61.6543 36.6496 61.6688 36.6924C61.6832 36.7352 61.6876 36.7808 61.6815 36.8255V38.088C61.6876 38.1328 61.6832 38.1783 61.6688 38.2211C61.6543 38.2639 61.6302 38.3028 61.5983 38.3347C61.5663 38.3667 61.5274 38.3908 61.4846 38.4052C61.4418 38.4197 61.3963 38.4241 61.3515 38.418H59.5024C59.4725 38.4136 59.4419 38.4162 59.4132 38.4257C59.3845 38.4352 59.3584 38.4513 59.3371 38.4727C59.3157 38.4941 59.2996 38.5202 59.2901 38.5489C59.2806 38.5776 59.278 38.6081 59.2824 38.638V39.0938C59.278 39.1237 59.2806 39.1542 59.2901 39.1829C59.2996 39.2116 59.3157 39.2377 59.3371 39.2591C59.3584 39.2804 59.3845 39.2965 59.4132 39.306C59.4419 39.3155 59.4725 39.3182 59.5024 39.3138H61.3515C61.396 39.3068 61.4415 39.3103 61.4843 39.3241C61.5272 39.3378 61.5662 39.3615 61.5983 39.393C61.6304 39.4246 61.6546 39.4633 61.6691 39.5059C61.6835 39.5485 61.6878 39.594 61.6815 39.6385V40.9376Z" fill="white" stroke="black" stroke-width="0.5" stroke-miterlimit="10"/>
<path d="M66.8622 37.9151C66.8642 38.1032 66.8282 38.2898 66.7561 38.4635C66.6841 38.6373 66.5777 38.7946 66.4432 38.9262C66.3133 39.0631 66.1563 39.1715 65.9823 39.2445C65.8082 39.3176 65.6209 39.3536 65.4322 39.3505H64.3531C64.2064 39.3505 64.1331 39.4186 64.1331 39.5652V40.9377C64.1391 40.9824 64.1348 41.028 64.1203 41.0708C64.1059 41.1136 64.0817 41.1525 64.0498 41.1844C64.0179 41.2164 63.979 41.2405 63.9362 41.2549C63.8934 41.2694 63.8478 41.2737 63.8031 41.2677H62.5406C62.4958 41.2737 62.4503 41.2694 62.4075 41.2549C62.3647 41.2405 62.3258 41.2164 62.2939 41.1844C62.2619 41.1525 62.2378 41.1136 62.2233 41.0708C62.2089 41.028 62.2045 40.9824 62.2106 40.9377V33.9445C62.2045 33.8997 62.2089 33.8542 62.2233 33.8114C62.2378 33.7686 62.2619 33.7297 62.2939 33.6977C62.3258 33.6658 62.3647 33.6417 62.4075 33.6272C62.4503 33.6128 62.4958 33.6084 62.5406 33.6145H65.4322C65.6209 33.6113 65.8082 33.6473 65.9823 33.7204C66.1563 33.7934 66.3133 33.9019 66.4432 34.0388C66.5773 34.1695 66.6835 34.326 66.7555 34.4988C66.8275 34.6717 66.8638 34.8573 66.8622 35.0445V37.9151ZM64.9555 37.2027V35.7622C64.9599 35.7323 64.9572 35.7017 64.9478 35.673C64.9383 35.6443 64.9222 35.6183 64.9008 35.5969C64.8794 35.5755 64.8533 35.5594 64.8246 35.5499C64.7959 35.5404 64.7654 35.5378 64.7355 35.5422H64.3688C64.3389 35.5378 64.3084 35.5404 64.2796 35.5499C64.2509 35.5594 64.2249 35.5755 64.2035 35.5969C64.1821 35.6183 64.166 35.6443 64.1565 35.673C64.147 35.7017 64.1444 35.7323 64.1488 35.7622V37.2027C64.1444 37.2326 64.147 37.2632 64.1565 37.2919C64.166 37.3206 64.1821 37.3467 64.2035 37.368C64.2249 37.3894 64.2509 37.4055 64.2796 37.415C64.3084 37.4245 64.3389 37.4272 64.3688 37.4227H64.7355C64.7654 37.4272 64.7959 37.4245 64.8246 37.415C64.8533 37.4055 64.8794 37.3894 64.9008 37.368C64.9222 37.3467 64.9383 37.3206 64.9478 37.2919C64.9572 37.2632 64.9599 37.2326 64.9555 37.2027Z" fill="white" stroke="black" stroke-width="0.5" stroke-miterlimit="10"/>
</g>
<defs>
<linearGradient id="paint0_linear" x1="72.2525" y1="22.766" x2="0.366684" y2="22.766" gradientUnits="userSpaceOnUse">
<stop stop-color="#C4A006"/>
<stop offset="0.01" stop-color="#C4A106" stop-opacity="0.99"/>
<stop offset="0.5" stop-color="#E4CD0E" stop-opacity="0.46"/>
<stop offset="0.84" stop-color="#F7E813" stop-opacity="0.13"/>
<stop offset="1" stop-color="#FFF315" stop-opacity="0"/>
</linearGradient>
<linearGradient id="paint1_linear" x1="4.62549" y1="25.7726" x2="33.3631" y2="25.7726" gradientUnits="userSpaceOnUse">
<stop offset="0.15" stop-color="#FCDB50"/>
<stop offset="0.21" stop-color="#FCDA46"/>
<stop offset="0.46" stop-color="#D0AD16"/>
<stop offset="0.59" stop-color="#C4A006"/>
</linearGradient>
<linearGradient id="paint2_linear" x1="33.7874" y1="27.3335" x2="45.2803" y2="27.3335" gradientUnits="userSpaceOnUse">
<stop stop-color="#C4A006"/>
<stop offset="1" stop-color="#FCDB50"/>
</linearGradient>
<clipPath id="clip0">
<rect width="80" height="49.8743" fill="white"/>
</clipPath>
</defs>
</svg>
