<svg width="180" height="112" viewBox="0 0 180 112" fill="none" xmlns="http://www.w3.org/2000/svg">
<g clip-path="url(#clip0)">
<path d="M161.665 -0.0118713H1.41162V102.248H161.665V-0.0118713Z" stroke="url(#paint0_linear)" stroke-miterlimit="10"/>
<path d="M115.941 76.792C115.682 76.6858 115.216 76.5342 114.902 76.4592C112.453 75.8344 110.78 74.9571 109.028 73.3931C107.283 71.8359 105.931 69.9759 104.758 67.5003C104.449 66.861 104.319 66.6565 104.152 66.5736C103.971 66.4704 103.9 66.3332 103.597 65.5315C102.948 63.7754 102.422 61.9563 101.985 59.9493C101.847 59.3363 101.713 58.8077 101.684 58.781C101.647 58.7477 79.7665 50.6839 78.3601 50.1943C78.3168 50.1755 78.2648 50.3897 78.2275 50.7511C78.0383 52.6362 77.3117 54.8809 76.6114 55.7567C76.373 56.0442 76.2577 56.1278 76.0208 56.1756C75.8603 56.2052 75.2896 56.3341 74.7539 56.4611C73.9263 56.6599 73.7374 56.684 73.4804 56.62C73.2383 56.5693 73.0209 56.5879 72.3378 56.7227C71.3689 56.9148 70.8898 56.912 70.1459 56.6975C69.1307 56.4128 68.5513 55.9782 67.8794 54.9916C66.1372 52.4121 65.2531 48.744 65.1949 43.7776C65.1636 41.4531 65.1499 41.193 64.984 40.0528C64.7777 38.6821 64.6726 36.425 64.7588 35.3913C64.792 34.9525 64.8993 34.1855 64.9857 33.6875C65.0939 33.0685 65.1514 32.424 65.1671 31.6549C65.2136 28.5368 65.5182 26.836 66.3374 25.1433C66.5528 24.6878 67.0534 23.6322 67.4458 22.7938C68.4715 20.6108 69.3298 18.8596 70.1106 17.3733C70.7051 16.2282 70.8681 15.9799 71.4531 15.3216C72.4632 14.1757 73.5395 13.3504 74.5741 12.9363C75.0428 12.7423 78.7812 11.7765 81.0498 11.2548C84.8916 10.3821 88.9701 9.58862 94.0456 8.73536C95.7143 8.45686 96.1276 8.41388 98.003 8.31478C104.128 7.99114 113.904 8.12305 120.508 8.60586C122.912 8.78193 124.111 8.95117 124.871 9.20003C127.152 9.9677 130.776 11.6512 133.933 13.4158C136.06 14.6004 137.304 15.3594 143.699 19.3355L144.981 20.1418L146.32 20.2825C147.049 20.3567 149.852 20.6245 152.535 20.8704C160.519 21.6116 164.269 22.076 167.963 22.7902C170.895 23.3613 171.391 23.6946 173.14 26.2667C174.744 28.6209 175.634 30.6814 176.471 33.9784L176.71 34.9103L177.152 35.2747C178.302 36.236 179.144 37.9185 179.721 40.4397L179.887 41.1711L179.738 43.2937C179.612 45.1683 179.607 45.4717 179.693 45.9042C179.843 46.6152 179.989 49.5046 179.911 50.1573C179.742 51.4984 179.425 52.5655 179.05 53.0576C178.937 53.1975 178.256 53.6423 177.163 54.2851C175.456 55.2917 175.456 55.2917 175.339 55.6151C174.915 56.7864 173.651 57.9247 171.183 59.338C170 60.0138 169.871 60.1052 169.968 60.1987C170.064 60.2923 169.908 60.3993 168.429 61.2035C167.518 61.6886 166.462 62.2449 166.078 62.4344C164.911 63.0106 162.052 64.2261 159.906 65.0655L157.87 65.8639L157.007 66.847L156.143 67.8372L155.556 68.0445C152.978 68.9772 148.949 70.0501 145.902 70.627C142.185 71.3309 137.479 71.8474 134.151 71.9246L132.583 71.9582L132.162 71.1909C131.935 70.7729 131.693 70.3134 131.622 70.1762C131.4 69.7086 130.504 69.2836 129.7 69.2557L129.312 69.248L128.666 70.3606C126.924 73.3709 125.518 75.0171 124.216 75.5793C123.342 75.9639 119.382 76.7441 117.601 76.8875L116.409 76.9858L115.941 76.792ZM115.153 74.5427C115.381 74.4672 115.801 74.2759 116.081 74.106C118.444 72.7193 119.906 69.322 120.102 64.7722C120.151 63.7052 119.945 60.9952 119.732 59.8927C118.705 54.4559 116.406 49.8757 113.323 47.1203C111.512 45.489 109.468 44.6806 107.978 44.9991C104.97 45.6515 102.98 48.9145 102.502 54.0009C102.438 54.6598 102.45 55.2936 102.531 56.819C102.641 58.8926 102.74 59.5781 103.202 61.5134C104.426 66.679 107.23 71.3664 110.334 73.451C112.13 74.6601 113.656 75.0025 115.153 74.5427ZM148.336 65.3808C149.632 64.981 150.765 64.0189 151.268 62.8716C151.689 61.9188 151.713 61.1774 151.33 60.4575C151.134 60.0732 150.501 59.4299 150.176 59.2779C150.025 59.2084 150.025 59.2084 150.207 59.4525C150.464 59.7914 150.565 60.0962 150.646 60.832C150.769 61.9675 150.458 63.006 149.736 63.8689C149.238 64.4591 148.669 64.8839 148.054 65.0997C147.356 65.3551 146.307 65.3682 145.738 65.1234C145.24 64.91 144.861 64.5283 144.63 64.0118C144.367 63.4336 144.305 62.2738 144.5 61.5516C144.676 60.9008 145.154 60.079 145.623 59.6172L145.971 59.2745L145.566 59.4722C144.667 59.9285 144.013 60.4706 142.846 61.7235C142.074 62.5609 141.966 62.7851 142.131 63.2486C142.288 63.6844 142.467 63.8653 143.121 64.2466C144.298 64.9386 145.799 65.4867 146.748 65.5775C147.222 65.623 147.754 65.5596 148.336 65.3808ZM145.619 62.3453C145.826 61.8691 145.892 61.2383 145.763 61.0619C145.664 60.9331 145.57 61.0157 145.372 61.4068C145.148 61.8345 145.033 62.4538 145.11 62.8445L145.176 63.1512L145.293 62.9758C145.366 62.8803 145.506 62.598 145.619 62.3453ZM146.293 58.038C147.583 57.9135 149.096 57.7631 149.657 57.7123C150.799 57.6026 151.23 57.5022 151.675 57.2532C152.051 57.0359 152.137 56.9327 152.701 56.0007C153.582 54.5443 154.636 53.2974 155.697 52.4518C156.819 51.5537 156.839 51.5385 160.686 50.3695C167.902 48.1626 170.987 47.1043 174.412 45.6757C176.122 44.965 178.713 43.7637 178.82 43.6383C178.859 43.5868 178.927 43.0052 178.976 42.34L179.06 41.1232L178.848 40.3026C178.285 38.0626 177.553 36.6069 176.527 35.7095C176.195 35.4169 176.158 35.3977 176.231 35.5701C176.407 35.9626 176.379 36.5138 176.169 36.9338L175.971 37.3178L176.133 37.5912C176.219 37.7418 176.294 37.9634 176.3 38.0759C176.306 38.1883 176.354 38.2915 176.403 38.303C176.468 38.3207 176.501 38.5516 176.531 39.121L176.573 39.9153L176.056 40.1329C175.774 40.2606 175.328 40.4815 175.061 40.6296C171.889 42.4466 167.708 43.6967 161.019 44.8115C160.307 44.9337 159.262 45.151 158.685 45.2943C157.511 45.589 157.293 45.6075 156.781 45.5077C156.004 45.3443 155.674 45.0869 154.761 43.9438C153.185 41.9688 152.47 41.2453 151.986 41.137C151.815 41.1037 150.943 41.1357 149.568 41.2365C144.979 41.5636 141.504 41.3877 139.235 40.704C138.498 40.4822 137.43 40.0029 136.811 39.6127C136.527 39.4303 135.709 38.7616 135.007 38.129C133.661 36.9102 132.951 36.419 131.834 35.9283C130.586 35.3809 129.737 35.165 127.656 34.845C125.505 34.5146 124.421 34.1278 123.529 33.3784C122.74 32.7151 122.111 31.7474 121.521 30.3124C121.231 29.6088 121.186 29.294 121.375 29.2839C121.439 29.2806 122.307 29.3123 123.295 29.3587C132.162 29.7431 139.587 29.7737 147.142 29.452C156.102 29.0631 163.446 28.2239 170.77 26.7373C171.558 26.5758 172.205 26.4359 172.212 26.4285C172.272 26.3619 171.296 25.2292 170.854 24.8508C170.087 24.2005 169.562 23.9886 167.818 23.6508C164.068 22.9255 160.645 22.5354 151.102 21.7497C148.924 21.5758 146.426 21.3554 145.548 21.2679C144.195 21.1279 143.842 21.1183 143.218 21.1795C142.812 21.2221 140.448 21.4034 137.957 21.5703C126.531 22.3573 123.795 22.5653 121.262 22.8754C118.89 23.1629 117.111 23.4965 115.891 23.8711C115.247 24.0673 114.361 24.2269 111.238 24.7091C109.12 25.0325 107.325 25.3036 107.247 25.3077C107.163 25.3121 107.038 25.22 106.948 25.098L106.788 24.8738L106.798 25.0636C106.805 25.2042 106.766 25.2697 106.655 25.2967C106.009 25.4718 105.296 25.5729 103.83 25.6786C102.006 25.8173 101.047 25.8045 99.6642 25.6238C98.9411 25.5351 98.5603 25.527 96.8957 25.615L94.9637 25.71L94.4496 25.9769C93.8193 26.3133 93.2593 26.3781 91.4412 26.3614C89.9259 26.3428 86.7591 26.1295 86.4434 26.0193C86.2852 25.9572 86.1964 25.8773 86.1609 25.7382C86.0577 25.3841 86.0429 25.3708 85.783 25.3845C85.6495 25.3916 85.085 25.3721 84.5342 25.3448C83.9834 25.3175 81.3779 25.3283 78.7457 25.3687C72.7499 25.467 72.8276 25.47 72.6053 25.2632C72.443 25.1237 72.4249 25.0472 72.394 24.4637C72.3617 23.8522 72.3721 23.7811 72.6436 23.0548C73.0138 22.0625 73.6862 20.5256 74.1451 19.6132C75.1782 17.5708 76.8748 15.021 77.3487 14.7916C77.5753 14.6809 85.2316 12.5494 85.9139 12.4005C87.3002 12.1087 95.4631 10.5002 95.6172 10.485C95.7647 10.4772 95.8668 10.5423 96.0402 10.7587C96.1607 10.9075 96.2635 10.9866 96.2602 10.9233C96.2557 10.839 96.3877 10.8038 96.9759 10.7375C99.8046 10.4189 110.615 9.73481 113.206 9.7107C114.72 9.69417 114.338 9.665 112.145 9.61876C107.371 9.51153 104.99 9.51748 100.911 9.63433L97.5704 9.72628L95.7191 10.0144C94.6988 10.167 92.2949 10.5267 90.3723 10.7974C84.4587 11.6527 81.827 12.1019 78.6801 12.7969C75.2756 13.5477 74.5422 13.7979 73.4234 14.6183C72.9284 14.9828 71.3625 16.5388 71.4287 16.5917C71.4435 16.605 71.812 16.5151 72.2497 16.4003C72.6874 16.2855 73.2456 16.1856 73.491 16.1655L73.9265 16.1425L73.9428 16.4518C73.9577 16.733 73.9012 16.8629 73.4204 17.6284C72.7383 18.7147 71.6559 20.6258 70.5212 22.7441C70.0404 23.6435 69.5579 24.5079 69.4537 24.6684C69.161 25.128 68.8786 25.2486 67.8694 25.3443L66.9932 25.4258L66.6722 26.1477C66.1058 27.4253 65.8647 28.728 65.7969 30.9097C65.7708 31.7499 65.6985 32.515 65.6155 32.9423C65.4874 33.5835 65.3368 34.8673 65.3528 35.1695C65.3588 35.282 65.3994 35.2517 65.5639 35.0315C66.4974 33.7698 68.1245 34.3041 69.2547 36.2322C69.8202 37.2032 70.1191 37.9276 71.0576 40.6271C71.9718 43.2644 72.1582 43.7269 72.3889 43.9614C72.5228 44.0953 75.1403 44.8451 85.698 47.7694C93.3465 49.8888 98.9594 51.4743 99.1191 51.5645C99.2648 51.6555 99.4082 51.7043 99.4282 51.6821C99.4478 51.6529 99.4596 51.476 99.4492 51.2792C99.4388 51.0824 99.4652 50.3832 99.5076 49.7183C99.951 42.9138 102.367 39.3251 107.135 38.3753C108.069 38.192 108.753 38.2123 110.034 38.4477C116.514 39.6631 121.989 45.8236 126.689 57.1989L127.271 58.6132L128.261 58.6808C129.533 58.7686 131.678 58.8315 133.199 58.8286C134.974 58.8265 143.567 58.3019 146.293 58.038ZM69.5101 55.3284C69.7696 55.1737 70.1525 54.6882 70.328 54.2771C70.4728 53.9523 70.8529 52.6141 70.8451 52.4664C70.8428 52.4243 70.75 52.401 70.6376 52.4069C70.448 52.4169 70.4107 52.3766 70.1418 51.8199C68.8439 49.1182 68.2809 44.7283 68.8227 41.3866C68.8958 40.9034 68.9154 40.8742 69.1039 40.8431L69.3065 40.8112L68.9488 40.1746C68.5531 39.4836 67.8801 38.7437 67.5071 38.6154C66.7318 38.3392 65.8937 39.9413 65.627 42.2251C65.3684 44.3958 65.5673 47.226 66.1624 49.8238C66.7941 52.5818 67.9425 54.8543 68.946 55.3159C69.2636 55.4612 69.2706 55.4609 69.5101 55.3284ZM167.167 35.4639C166.878 35.3101 166.585 34.9801 166.471 34.6831C166.308 34.2687 166.367 33.6383 166.606 33.245L166.807 32.9101L166.476 33.3012C166.045 33.8104 165.963 34.1389 166.168 34.551C166.254 34.7086 166.421 34.9254 166.553 35.0312C166.715 35.1706 166.785 35.2938 166.793 35.4485C166.804 35.6593 166.811 35.659 167.091 35.623L167.378 35.5797L167.167 35.4639ZM107.9 23.2642C109.72 22.9213 111.867 22.6246 114.493 22.3449C114.984 22.2978 115.382 22.2274 115.38 22.1923C115.375 22.1009 114.961 22.1369 112.574 22.4181C110.307 22.6859 108.299 22.9541 107.462 23.1111C107.176 23.1615 106.89 23.2119 106.82 23.2156C106.715 23.2211 106.709 23.2426 106.778 23.3588C106.832 23.4476 106.912 23.4856 106.981 23.4608C107.043 23.4364 107.461 23.3509 107.9 23.2642ZM98.0784 23.0713C99.0306 22.9646 99.9212 22.8893 100.049 22.9037C100.368 22.9433 100.329 22.8678 99.9404 22.7191C99.6243 22.6019 99.5255 22.6001 97.9689 22.7317C96.6506 22.8436 96.3061 22.8548 96.2107 22.7823C96.1449 22.7364 95.9773 22.4986 95.8375 22.2522C95.4962 21.657 94.7267 20.9575 94.1 20.6945L93.6316 20.4937L90.7858 20.623C89.0361 20.7013 87.8643 20.7844 87.7611 20.8321C87.6513 20.8873 88.5094 20.8631 90.4339 20.7614L93.2719 20.6185L93.5762 20.7786C93.974 20.9761 94.17 21.2195 94.69 22.1295C95.1482 22.9371 95.2533 23.0584 95.6411 23.2001C95.9572 23.3173 95.9853 23.3158 98.0784 23.0713ZM130.408 21.3418C130.406 21.3067 130.416 21.2356 130.435 21.1783C130.459 21.1065 130.24 21.0969 129.306 21.1463L128.147 21.2005L129.01 21.2817C129.492 21.3268 129.917 21.3748 129.953 21.387C130.089 21.4362 130.411 21.4051 130.408 21.3418ZM127.918 21.135C127.847 21.1247 127.734 21.1306 127.672 21.148C127.603 21.1728 127.66 21.1839 127.793 21.1769C127.927 21.1698 127.982 21.1528 127.918 21.135ZM133.069 20.6514C132.977 20.6421 132.837 20.6496 132.753 20.6681C132.663 20.687 132.733 20.6973 132.909 20.688C133.085 20.6787 133.154 20.661 133.069 20.6514ZM134.119 20.5254C134.027 20.5162 133.886 20.5236 133.803 20.5421C133.712 20.561 133.783 20.5713 133.959 20.5621C134.135 20.5528 134.204 20.535 134.119 20.5254Z" fill="black"/>
<path d="M116.247 72.5887C112.659 71.7351 109.865 69.1195 108 64.883C107.248 63.1816 106.507 60.6197 106.124 58.4266C105.903 57.1906 105.733 54.3729 105.814 53.3677C106.074 50.1467 107.135 47.7011 109.048 45.9223C109.512 45.496 109.742 45.4557 110.444 45.6794C113.947 46.7913 116.922 50.8423 118.945 57.2627C119.478 58.9545 119.669 60.1639 119.814 62.7784C119.912 64.6412 119.921 65.2117 119.851 65.878C119.595 68.3657 118.911 70.3544 117.69 72.1812C117.357 72.6711 117.317 72.7084 117.078 72.714C116.93 72.7218 116.561 72.6638 116.247 72.5887Z" fill="black"/>
<path d="M138.928 77.9457C138.075 77.9344 136.35 77.934 135.089 77.9371C129.793 77.9562 127.292 77.8134 124.845 77.3436L123.813 77.1443L121.849 77.7063L119.878 78.2616L117.73 77.4587C116.551 77.0135 115.588 76.6415 115.601 76.6337C115.608 76.6263 115.842 76.6492 116.112 76.6983C116.488 76.756 116.847 76.7511 117.59 76.6837C119.293 76.5232 123.209 75.7241 123.994 75.3796C125.289 74.8177 126.662 73.2085 128.445 70.1678C129.162 68.9457 129.149 68.9535 129.871 69.0211C130.783 69.0997 131.6 69.4866 131.822 69.9542C131.892 70.0914 132.135 70.5509 132.361 70.9689L132.775 71.7295L134.175 71.7048C137.25 71.6481 142.019 71.1212 145.68 70.4272C148.727 69.8503 152.756 68.7775 155.334 67.8447L155.922 67.6374L156.785 66.6473L157.649 65.6641L159.684 64.8657C163.314 63.4474 165.619 62.4093 167.666 61.2931C168.323 60.9271 169.083 60.5204 169.35 60.3794L169.844 60.1207L171.708 61.2699C173.492 62.3739 173.58 62.4398 173.774 62.796C174.007 63.2066 174.028 63.5932 173.845 64.2585C173.757 64.5944 173.697 64.654 172.926 65.2727C166.072 70.7102 159.229 74.2367 151.815 76.1651C147.57 77.2706 142.493 77.9688 138.928 77.9457Z" fill="#999999"/>
<path d="M113.202 74.9418C110.469 74.5435 107.753 72.2057 105.594 68.3936C104.164 65.861 103.235 63.2174 102.601 59.8815C102.355 58.5482 102.169 55.0335 102.28 53.8011C102.669 49.6922 104.041 46.7437 106.184 45.4322C108.353 44.0981 110.987 44.6215 113.523 46.8982C116.606 49.6536 118.896 54.2131 119.938 59.6703C120.143 60.7521 120.372 63.8768 120.324 64.9719C120.134 69.5144 118.666 72.9191 116.302 74.3057C115.387 74.8475 114.216 75.0856 113.202 74.9418ZM117.468 71.9814C118.689 70.1547 119.373 68.166 119.629 65.6783C119.693 65.0264 119.691 64.4485 119.603 62.7896C119.434 59.7181 119.135 58.3241 118 55.3742C115.965 50.054 113.375 46.892 110.237 45.9017C109.972 45.8171 109.716 45.7742 109.641 45.8064C109.336 45.9141 108.004 47.493 107.572 48.2489C106.352 50.3575 105.894 52.6163 106.065 55.7158C106.18 57.754 106.478 59.4088 107.159 61.7554C108.887 67.6697 112.081 71.3215 116.446 72.3667C116.76 72.4417 117.038 72.5046 117.066 72.5031C117.088 72.509 117.272 72.2667 117.468 71.9814Z" fill="white"/>
<path d="M146.549 65.8065C145.954 65.7463 144.959 65.4535 144.188 65.1136C143.323 64.7364 142.363 64.1738 142.182 63.9367C141.864 63.5306 141.745 62.8813 141.898 62.4362C141.991 62.1916 143.276 60.7844 143.895 60.2442C145.128 59.1851 146.882 58.5215 148.397 58.5401C150.28 58.5675 151.751 59.7656 151.835 61.3401C151.938 63.1674 150.554 64.9535 148.552 65.5879C148.018 65.7571 147.065 65.8568 146.549 65.8065ZM147.867 64.891C149.746 64.1996 150.937 61.8176 150.256 60.1195C149.843 59.1122 148.794 58.5826 147.652 58.8262C145.924 59.1853 144.521 61.0288 144.615 62.8001C144.716 64.5852 146.167 65.5165 147.867 64.891Z" fill="white"/>
<path d="M145.002 63.4705C144.687 62.4368 144.948 61.1119 145.54 60.7212C145.724 60.6057 145.738 60.605 145.873 60.7529C146.299 61.2168 146.068 62.4484 145.396 63.3298C145.133 63.668 145.07 63.6925 145.002 63.4705Z" fill="white"/>
<path d="M96.4442 63.7243C88.211 60.6701 86.7092 60.108 83.0775 58.6928L80.8122 57.8115L78.5579 57.8037C77.1139 57.8025 76.2108 57.7727 76.0529 57.7176C75.6588 57.5904 73.4021 56.603 73.3924 56.5541C73.3839 56.5264 73.5015 56.4849 73.6479 56.456C73.7872 56.4275 74.3931 56.2968 74.9845 56.1598L76.0636 55.9196L76.3689 55.5651C77.0914 54.7092 77.8534 52.3358 78.0075 50.4526C78.0388 50.1126 78.0801 49.8284 78.1082 49.827C78.1925 49.8225 101.824 58.5057 101.883 58.559C101.913 58.5856 102.046 59.1002 102.177 59.7066C102.641 61.832 103.234 63.8519 103.911 65.6136C104.115 66.1385 104.273 66.5813 104.259 66.5891C104.246 66.6039 100.733 65.3092 96.4442 63.7243Z" fill="#999999"/>
<path d="M132.999 59.0506C131.478 59.0535 129.334 58.9906 128.061 58.9028L127.071 58.8352L126.49 57.4209C121.523 45.4041 115.761 39.2658 108.748 38.5156C108.104 38.4439 107.977 38.4506 107.287 38.5928C104.569 39.1382 102.651 40.5577 101.39 42.9576C100.436 44.7702 99.8866 47.1607 99.7336 50.1293C99.6972 50.9066 99.6471 51.6917 99.6357 51.8756L99.604 52.2085L99.1311 51.9234C98.694 51.6504 97.7213 51.3705 85.5055 47.9911C74.9408 45.0671 72.3232 44.3173 72.1894 44.1834C71.9587 43.9488 71.7722 43.4864 70.8581 40.8491C70.4016 39.541 69.8996 38.1718 69.7464 37.8063C69.0322 36.1523 68.2012 35.0895 67.3372 34.7334C66.7974 34.5152 66.6218 34.5245 66.2348 34.7987C65.7732 35.1262 65.4886 35.6064 65.2633 36.4078L65.1573 36.8011L65.1404 35.8152C65.1165 34.6956 65.1994 33.7326 65.3936 32.7425C65.4767 32.3152 65.549 31.5501 65.575 30.7099C65.6429 28.5282 65.8839 27.2255 66.4503 25.9479L66.7714 25.226L67.6475 25.1445C68.6567 25.0489 68.9392 24.9282 69.2318 24.4687C69.336 24.3081 69.8186 23.4438 70.2994 22.5443C71.4341 20.426 72.5164 18.515 73.1986 17.4286C73.4905 16.955 73.7351 16.5192 73.7322 16.4629C73.7288 16.3997 73.6497 16.3686 73.5233 16.3753C73.3266 16.3857 72.0472 16.7 71.2011 16.9491C70.9859 17.0098 70.8048 17.0476 70.8041 17.0335C70.7974 16.907 71.2919 16.2676 71.8921 15.6297C73.1516 14.2732 74.134 13.6715 75.8008 13.2239C79.0653 12.3536 83.0624 11.6207 90.1856 10.5958C92.1289 10.3169 94.5051 9.96578 95.4622 9.81652C97.1175 9.55282 97.3419 9.53392 99.8095 9.44582C106.629 9.20531 114.827 9.33601 120.747 9.79155C123.052 9.96579 124.84 10.2097 124.734 10.3351C124.714 10.3503 124.262 10.3248 123.717 10.2761C118.5 9.79045 111.937 9.82004 104.331 10.37C100.191 10.6733 96.5445 10.9717 96.5116 11.0158C96.5054 11.0302 98.9264 14.1941 101.898 18.048L107.305 25.0579L107.563 25.0231C107.704 25.0087 109.401 24.7498 111.344 24.4568C114.18 24.0179 115.032 23.8672 115.669 23.6714C116.889 23.2967 118.668 22.9631 121.04 22.6756C123.462 22.3785 127.481 22.0604 135.77 21.5096C137.37 21.4039 139.917 21.2199 141.418 21.0983L144.154 20.8903L145.747 21.0458C146.625 21.1334 149.123 21.3538 151.302 21.5277C158.999 22.1642 161.753 22.4416 164.862 22.8976C167.468 23.2816 169.347 23.6616 169.974 23.9386C170.709 24.2522 171.477 24.9236 172.145 25.8258C172.608 26.4499 172.655 26.546 172.545 26.5942C172.394 26.6656 170.087 27.1329 168.168 27.4739C158.122 29.2948 145.971 30.0848 131.985 29.8511C128.953 29.7999 122.596 29.593 121.705 29.5203L121.478 29.497L121.721 30.0974C122.311 31.5254 122.947 32.4927 123.728 33.1563C124.62 33.9057 125.704 34.2925 127.856 34.6229C129.936 34.943 130.786 35.1589 132.033 35.7062C133.151 36.197 133.86 36.6882 135.207 37.907C135.909 38.5395 136.726 39.2083 137.011 39.3906C137.63 39.7809 138.698 40.2602 139.435 40.482C141.711 41.1653 145.186 41.3482 149.711 41.0104C151.177 40.8977 151.958 40.8706 152.157 40.9094C152.67 41.0233 153.361 41.7128 154.961 43.7218C155.708 44.6621 155.842 44.8031 156.247 45.0072C156.979 45.3915 157.226 45.3996 158.456 45.0949C159.033 44.9516 160.086 44.7339 160.798 44.6117C167.493 43.4896 171.667 42.2469 174.84 40.4298C175.106 40.2818 175.553 40.0608 175.835 39.9332L176.351 39.7155L176.321 39.1461C176.298 38.8372 176.269 38.5638 176.247 38.5439C176.225 38.5239 175.97 38.636 175.675 38.7855C173.62 39.874 167.78 41.5923 161.832 42.8583C159.499 43.3551 159.265 43.4591 158.402 44.3365L157.955 44.7972L158.237 44.4157C158.658 43.8507 159.141 43.3881 159.559 43.1616C159.936 42.9655 160.075 42.9299 163.174 42.2657C166.949 41.46 171.315 40.2354 173.626 39.3308C174.544 38.9722 175.919 38.3286 176.094 38.1784C176.114 38.1632 176.012 37.9642 175.874 37.7459L175.627 37.336L175.883 36.8432C176.184 36.2774 176.187 36.0799 175.921 35.5723C175.812 35.3666 175.732 35.1946 175.739 35.1872C175.752 35.1724 175.863 35.1384 175.981 35.1039C176.189 35.0506 176.247 35.0758 176.66 35.4275C177.76 36.3774 178.515 37.8742 179.099 40.2611L179.289 41.0617L179.205 42.4054C179.153 43.1483 179.081 43.7866 179.041 43.838C178.935 43.9634 176.336 45.1651 174.634 45.8754C171.209 47.304 168.124 48.3623 160.908 50.5693C157.061 51.7383 157.04 51.7534 155.919 52.6515C154.857 53.4971 153.803 54.7441 152.923 56.2004C152.359 57.1324 152.273 57.2357 151.897 57.4529C151.452 57.702 151.021 57.8023 149.879 57.912C149.318 57.9628 147.804 58.1133 146.515 58.2378C143.796 58.5013 134.802 59.047 132.999 59.0506ZM94.2281 25.7841L94.7419 25.5103L96.8845 25.4041C98.7669 25.3046 99.1263 25.3068 99.8638 25.4018C101.24 25.5828 102.219 25.5945 103.86 25.4584C105.214 25.3517 106.451 25.1594 106.558 25.0481C106.664 24.9297 100.652 16.993 96.8816 12.2862C95.8103 10.9401 95.6162 10.7318 95.4694 10.7536C95.1829 10.797 86.8031 12.4311 86.6434 12.4747C86.5118 12.5169 86.4375 12.7112 86.1321 13.8622C85.2671 17.087 84.6738 20.389 84.3143 23.9819C84.2546 24.5842 84.2037 25.0873 84.2111 25.094C84.2185 25.1007 84.6843 25.1183 85.2418 25.1382C85.8063 25.1577 86.2669 25.2109 86.2761 25.2527C86.2921 25.2871 86.3268 25.4122 86.3605 25.5161C86.396 25.6552 86.4848 25.7351 86.643 25.7973C86.9085 25.889 89.9987 26.1204 91.2889 26.1439C91.7754 26.1534 92.521 26.1352 92.9421 26.1059C93.6578 26.0539 93.7483 26.0351 94.2281 25.7841ZM83.7822 24.8417C84.0046 22.7858 84.0839 22.1543 84.2341 21.1313C84.5641 18.978 85.0972 16.4052 85.769 13.7897C85.9264 13.1682 86.0534 12.6398 86.039 12.6336C86.002 12.6003 77.7971 14.8806 77.5706 14.9913C77.0967 15.2208 75.4001 17.7705 74.367 19.8129C73.9081 20.7253 73.2357 22.2623 72.8655 23.2546C72.6375 23.8728 72.5862 24.1011 72.6033 24.4245C72.6267 24.8673 72.7066 25.0464 72.9377 25.154C73.0748 25.2172 81.1302 25.1722 83.1475 25.0938L83.7589 25.0685L83.7822 24.8417Z" fill="white"/>
<path d="M101.261 23.5798C101.169 23.4507 100.53 23.2096 100.154 23.159C99.8913 23.1235 99.1827 23.175 97.8312 23.324C95.205 23.6108 95.2054 23.6178 94.4912 22.3656C93.9705 21.4415 93.7749 21.2051 93.3767 21.0006L93.0724 20.8405L90.2348 20.9904C88.0082 21.1081 87.314 21.1659 87.016 21.2592C86.8083 21.3265 86.6205 21.3717 86.6057 21.3584C86.5536 21.3048 86.9712 20.9443 87.3065 20.7575L87.662 20.5554L90.7466 20.4135L93.8312 20.2717L94.2996 20.4725C94.9049 20.7295 95.7028 21.4346 96.0139 21.9891C96.4247 22.7005 96.2466 22.6605 98.14 22.5041C99.7248 22.371 99.8095 22.3736 100.133 22.4975C100.471 22.6276 101.177 23.2036 101.355 23.4903C101.44 23.6408 101.36 23.7226 101.261 23.5798Z" fill="white"/>
<path d="M68.7464 55.5379C67.5478 54.9809 66.3649 52.3225 65.669 48.6163C65.4646 47.5486 65.2498 44.55 65.2924 43.4905C65.4068 40.8552 65.9756 38.9571 66.8021 38.4694C67.0483 38.3295 67.5118 38.305 67.7717 38.4252C68.0531 38.5513 68.6776 39.1738 68.962 39.624C70.8981 42.6726 71.8732 49.663 70.883 53.4513C70.5894 54.5594 70.2169 55.2416 69.732 55.5281C69.4721 55.6757 69.057 55.6836 68.7464 55.5379ZM70.7898 51.553C71.1028 48.2798 70.5217 44.0812 69.4187 41.6018C69.1158 40.9341 69.1025 40.9489 68.9627 42.1687C68.6528 44.8355 68.9674 47.8569 69.815 50.3004C70.0987 51.1383 70.6214 52.2315 70.6871 52.1435C70.7138 52.1138 70.7558 51.8438 70.7898 51.553Z" fill="white"/>
<path d="M151.251 37.898C151.292 37.8747 151.838 37.8036 152.474 37.7206C156.646 37.2253 161.103 36.5316 165 35.7758L166.59 35.4733L166.331 35.2332C165.68 34.6332 165.638 33.846 166.22 33.1244C167.231 31.8727 169.58 31.671 170.686 32.7334C170.983 33.0208 171.262 33.5135 171.182 33.6023C171.162 33.6245 171.123 33.5491 171.089 33.4311C171.01 33.1321 170.408 32.6705 169.943 32.54C169.086 32.3174 168.281 32.4163 167.522 32.8371C165.975 33.7012 166.497 35.3161 168.383 35.5477C169.283 35.6552 170.307 35.3051 170.826 34.7138C171.071 34.4259 171.133 34.4015 172.014 34.1435C172.528 34.0035 173.394 33.7322 173.948 33.5478C175.305 33.1025 175.291 33.1174 175.173 31.9464L175.084 31.063L175.354 31.6478C175.505 31.9712 175.659 32.3437 175.687 32.4832C175.769 32.8243 175.62 33.2127 175.335 33.4111C175.002 33.6402 173.192 34.3138 171.929 34.6766C171.319 34.8569 170.745 35.0493 170.649 35.1108C169.566 35.7954 168.893 36.0001 168 35.8992C167.292 35.8239 167.257 35.8328 165.597 36.132C162.625 36.6697 159.604 37.0831 155.282 37.53C152.795 37.7883 151.162 37.938 151.251 37.898Z" fill="white"/>
<path d="M150.667 32.184C150.32 32.1459 150.327 32.1456 150.84 32.1114C151.597 32.0503 155.338 31.6693 157.425 31.4322C162.662 30.8382 167.033 30.1209 170.588 29.2845C171.722 29.0202 173.237 28.6229 173.485 28.5323C173.769 28.4257 173.637 27.9321 173.17 27.3577C173.079 27.2496 172.974 27.1143 172.943 27.0665C172.821 26.8897 173.149 27.0909 173.431 27.372C173.788 27.7338 173.936 27.9939 173.954 28.3313C173.976 28.7601 173.813 28.8604 172.506 29.1832C167.882 30.3298 162.303 31.2519 156.809 31.7749C154.51 31.995 151.092 32.2179 150.667 32.184Z" fill="white"/>
<path d="M106.508 23.4365C106.413 23.2441 106.341 23.0788 106.354 23.064C106.448 22.9814 110.287 22.4473 112.913 22.1535C113.935 22.0431 114.936 21.9267 115.139 21.9019C115.51 21.8471 115.517 21.8537 115.628 22.0805C115.691 22.2111 115.74 22.3424 115.742 22.3776C115.744 22.4127 115.311 22.4849 114.786 22.5409C111.682 22.86 107.58 23.4785 106.792 23.7528C106.709 23.7783 106.634 23.6906 106.508 23.4365Z" fill="white"/>
<path d="M129.328 21.568C127.279 21.3168 125.072 21.2642 122.473 21.4016C120.724 21.494 120.626 21.4922 120.619 21.3727C120.613 21.2532 120.696 21.2276 121.298 21.1606C123.02 20.9497 126.346 20.8515 128.633 20.9421C129.381 20.9731 129.641 20.9523 130.317 20.825C131.216 20.6435 132.335 20.4857 133.56 20.3505L134.401 20.2638L134.498 20.4913C134.553 20.6152 134.594 20.7258 134.581 20.7336C134.574 20.741 133.811 20.8236 132.886 20.9148C130.679 21.1371 130.693 21.1364 130.652 21.4346C130.611 21.7258 130.625 21.725 129.328 21.568Z" fill="white"/>
<path d="M134.737 20.0909C134.668 19.9888 134.628 19.8923 134.648 19.8701C134.667 19.8408 135.215 19.7978 135.854 19.7641C136.837 19.7121 137.049 19.715 137.145 19.8086C137.256 19.9085 137.221 19.9174 136.708 19.9445C136.189 19.9719 135.399 20.0982 135.025 20.2167C134.907 20.2511 134.835 20.2197 134.737 20.0909Z" fill="white"/>
<path d="M87.0497 107.789C87.0497 108.64 86.7114 109.457 86.1091 110.059C85.5068 110.662 84.69 111 83.8383 111H77.3095C77.209 111.014 77.1067 111.004 77.0106 110.971C76.9145 110.939 76.8272 110.885 76.7555 110.813C76.6837 110.741 76.6295 110.654 76.5971 110.558C76.5647 110.462 76.5548 110.359 76.5684 110.259V94.5429C76.5548 94.4424 76.5647 94.3401 76.5971 94.244C76.6295 94.1479 76.6837 94.0605 76.7555 93.9888C76.8272 93.9171 76.9145 93.8629 77.0106 93.8305C77.1067 93.798 77.209 93.7882 77.3095 93.8018H83.8147C84.2384 93.7954 84.6589 93.8767 85.0496 94.0407C85.4403 94.2047 85.7929 94.4478 86.0851 94.7547C86.3871 95.05 86.6261 95.4034 86.7879 95.7936C86.9496 96.1838 87.0307 96.6027 87.0262 97.025V100.554C87.0279 100.798 86.9798 101.04 86.8847 101.264C86.7896 101.489 86.6496 101.691 86.4733 101.86C86.1653 102.185 85.744 102.378 85.2969 102.401C85.744 102.433 86.1631 102.63 86.4733 102.954C86.6556 103.119 86.8011 103.32 86.9004 103.545C86.9997 103.77 87.0506 104.014 87.0497 104.26V107.789ZM82.6972 100.507V98.6248C82.7071 98.5577 82.7012 98.4891 82.6798 98.4246C82.6585 98.3602 82.6224 98.3016 82.5744 98.2536C82.5264 98.2056 82.4678 98.1695 82.4033 98.1482C82.3389 98.1268 82.2703 98.1209 82.2031 98.1308H81.3915C81.3243 98.1209 81.2557 98.1268 81.1913 98.1482C81.1268 98.1695 81.0682 98.2056 81.0202 98.2536C80.9722 98.3016 80.9361 98.3602 80.9148 98.4246C80.8935 98.4891 80.8875 98.5577 80.8974 98.6248V100.507C80.8875 100.574 80.8935 100.643 80.9148 100.707C80.9361 100.772 80.9722 100.83 81.0202 100.878C81.0682 100.926 81.1268 100.962 81.1913 100.984C81.2557 101.005 81.3243 101.011 81.3915 101.001H82.2031C82.2703 101.011 82.3389 101.005 82.4033 100.984C82.4678 100.962 82.5264 100.926 82.5744 100.878C82.6224 100.83 82.6585 100.772 82.6798 100.707C82.7012 100.643 82.7071 100.574 82.6972 100.507ZM82.6972 106.189V104.307C82.7071 104.239 82.7012 104.171 82.6798 104.106C82.6585 104.042 82.6224 103.983 82.5744 103.935C82.5264 103.887 82.4678 103.851 82.4033 103.83C82.3389 103.809 82.2703 103.803 82.2031 103.813H81.3915C81.3243 103.803 81.2557 103.809 81.1913 103.83C81.1268 103.851 81.0682 103.887 81.0202 103.935C80.9722 103.983 80.9361 104.042 80.9148 104.106C80.8935 104.171 80.8875 104.239 80.8974 104.307V106.189C80.8875 106.256 80.8935 106.324 80.9148 106.389C80.9361 106.453 80.9722 106.512 81.0202 106.56C81.0682 106.608 81.1268 106.644 81.1913 106.665C81.2557 106.687 81.3243 106.693 81.3915 106.683H82.2031C82.2703 106.693 82.3389 106.687 82.4033 106.665C82.4678 106.644 82.5264 106.608 82.5744 106.56C82.6224 106.512 82.6585 106.453 82.6798 106.389C82.7012 106.324 82.7071 106.256 82.6972 106.189Z" fill="white" stroke="black" stroke-width="0.5" stroke-miterlimit="10"/>
<path d="M98.4838 97.3897C98.4974 97.4902 98.4875 97.5925 98.4551 97.6886C98.4227 97.7847 98.3685 97.872 98.2968 97.9438C98.225 98.0155 98.1377 98.0697 98.0416 98.1021C97.9455 98.1346 97.8432 98.1444 97.7427 98.1308H95.9899C95.9227 98.1209 95.8542 98.1268 95.7897 98.1482C95.7253 98.1695 95.6667 98.2056 95.6187 98.2536C95.5707 98.3016 95.5345 98.3602 95.5132 98.4246C95.4919 98.4891 95.4859 98.5577 95.4958 98.6248V110.259C95.5094 110.359 95.4996 110.462 95.4672 110.558C95.4347 110.654 95.3806 110.741 95.3088 110.813C95.2371 110.885 95.1498 110.939 95.0537 110.971C94.9576 111.004 94.8553 111.014 94.7547 111H91.908C91.8074 111.014 91.7051 111.004 91.609 110.971C91.5129 110.939 91.4256 110.885 91.3539 110.813C91.2821 110.741 91.228 110.654 91.1955 110.558C91.1631 110.462 91.1533 110.359 91.1669 110.259V98.6484C91.1768 98.5812 91.1708 98.5126 91.1495 98.4482C91.1282 98.3837 91.0921 98.3251 91.044 98.2771C90.996 98.2291 90.9375 98.193 90.873 98.1717C90.8085 98.1503 90.74 98.1444 90.6728 98.1543H88.9436C88.8418 98.1639 88.7392 98.1505 88.6433 98.1152C88.5473 98.0798 88.4606 98.0233 88.3895 97.9499C88.3183 97.8765 88.2646 97.788 88.2322 97.6911C88.1998 97.5941 88.1897 97.4911 88.2025 97.3897V94.5429C88.1889 94.4424 88.1987 94.3401 88.2311 94.244C88.2636 94.1479 88.3178 94.0605 88.3895 93.9888C88.4612 93.9171 88.5485 93.8629 88.6446 93.8305C88.7408 93.798 88.8431 93.7882 88.9436 93.8018H97.7427C97.8432 93.7882 97.9455 93.798 98.0416 93.8305C98.1377 93.8629 98.225 93.9171 98.2968 93.9888C98.3685 94.0605 98.4227 94.1479 98.4551 94.244C98.4875 94.3401 98.4974 94.4424 98.4838 94.5429V97.3897Z" fill="white" stroke="black" stroke-width="0.5" stroke-miterlimit="10"/>
<path d="M110.118 107.789C110.124 108.211 110.044 108.631 109.882 109.021C109.721 109.412 109.48 109.765 109.177 110.059C108.884 110.365 108.532 110.607 108.141 110.769C107.75 110.931 107.329 111.009 106.906 111H102.883C102.461 111.003 102.042 110.922 101.651 110.762C101.26 110.602 100.904 110.365 100.605 110.066C100.307 109.768 100.07 109.412 99.9099 109.021C99.7497 108.63 99.6687 108.211 99.6719 107.789V97.025C99.6703 96.6023 99.7522 96.1834 99.9129 95.7924C100.074 95.4014 100.31 95.046 100.608 94.7466C100.907 94.4471 101.261 94.2095 101.652 94.0474C102.042 93.8853 102.461 93.8018 102.883 93.8018H106.906C107.33 93.7946 107.751 93.8756 108.142 94.0397C108.533 94.2037 108.885 94.4472 109.177 94.7546C109.479 95.05 109.718 95.4034 109.88 95.7936C110.041 96.1837 110.122 96.6026 110.118 97.025V107.789ZM105.801 106.189V98.6248C105.808 98.5581 105.8 98.4906 105.778 98.4272C105.756 98.3639 105.72 98.3064 105.672 98.2589C105.625 98.2114 105.567 98.1753 105.504 98.1531C105.441 98.1309 105.373 98.1233 105.307 98.1308H104.483C104.416 98.1209 104.347 98.1268 104.283 98.1481C104.218 98.1695 104.16 98.2056 104.112 98.2536C104.064 98.3016 104.028 98.3602 104.006 98.4246C103.985 98.4891 103.979 98.5577 103.989 98.6248V106.189C103.979 106.256 103.985 106.324 104.006 106.389C104.028 106.453 104.064 106.512 104.112 106.56C104.16 106.608 104.218 106.644 104.283 106.665C104.347 106.687 104.416 106.693 104.483 106.683H105.307C105.373 106.69 105.441 106.683 105.504 106.66C105.567 106.638 105.625 106.602 105.672 106.555C105.72 106.507 105.756 106.45 105.778 106.386C105.8 106.323 105.808 106.255 105.801 106.189Z" fill="white" stroke="black" stroke-width="0.5" stroke-miterlimit="10"/>
<path d="M74.9215 111.248H51.7593L47.8538 82.7683H37.5019L33.5141 111.248H10.3871L27.8441 5H57.441L74.9215 111.248ZM45.9716 67.9816L42.6191 36.2203L39.4429 67.9816H45.9716Z" fill="url(#paint1_linear)" stroke="black" stroke-width="0.5" stroke-miterlimit="10"/>
<path d="M101.683 92.9319H75.8744V30.3268H89.6259V84.8975H101.683V92.9319Z" fill="url(#paint2_linear)" stroke="black" stroke-width="0.5" stroke-miterlimit="10"/>
<path d="M113.518 91.9314C113.531 92.0319 113.521 92.1342 113.489 92.2303C113.456 92.3265 113.402 92.4138 113.331 92.4855C113.259 92.5572 113.171 92.6114 113.075 92.6439C112.979 92.6763 112.877 92.6861 112.776 92.6725H109.93C109.829 92.6861 109.727 92.6763 109.631 92.6439C109.535 92.6114 109.447 92.5572 109.376 92.4855C109.304 92.4138 109.25 92.3265 109.217 92.2303C109.185 92.1342 109.175 92.0319 109.189 91.9314V86.8496L107.389 91.9314C107.224 92.4255 106.977 92.6725 106.648 92.6725H103.813C103.711 92.6881 103.608 92.6798 103.51 92.6483C103.412 92.6168 103.323 92.5629 103.25 92.4909C103.177 92.4189 103.122 92.3308 103.089 92.2337C103.056 92.1366 103.046 92.0331 103.06 91.9314V76.2272C103.046 76.1255 103.056 76.022 103.089 75.9249C103.122 75.8277 103.177 75.7397 103.25 75.6677C103.323 75.5957 103.412 75.5418 103.51 75.5103C103.608 75.4787 103.711 75.4704 103.813 75.4861H106.648C106.748 75.4725 106.85 75.4823 106.947 75.5147C107.043 75.5472 107.13 75.6014 107.202 75.6731C107.273 75.7448 107.328 75.8321 107.36 75.9282C107.393 76.0243 107.402 76.1267 107.389 76.2272V81.5443L109.189 76.2272C109.33 75.7174 109.577 75.4625 109.93 75.4625H112.776C112.877 75.449 112.979 75.4588 113.075 75.4912C113.171 75.5236 113.259 75.5778 113.331 75.6495C113.402 75.7213 113.456 75.8086 113.489 75.9047C113.521 76.0008 113.531 76.1031 113.518 76.2036V91.9314Z" fill="white" stroke="black" stroke-width="0.5" stroke-miterlimit="10"/>
<path d="M122.799 92.9319H119.517C119.45 92.922 119.381 92.928 119.317 92.9493C119.252 92.9706 119.194 93.0067 119.146 93.0547C119.098 93.1028 119.061 93.1613 119.04 93.2258C119.019 93.2903 119.013 93.3588 119.023 93.426V93.9906C119.036 94.0912 119.027 94.1935 118.994 94.2896C118.962 94.3857 118.908 94.473 118.836 94.5447C118.764 94.6165 118.677 94.6707 118.581 94.7031C118.485 94.7355 118.382 94.7453 118.282 94.7317H115.447C115.346 94.7453 115.244 94.7355 115.148 94.7031C115.052 94.6707 114.964 94.6165 114.893 94.5447C114.821 94.473 114.767 94.3857 114.734 94.2896C114.702 94.1935 114.692 94.0912 114.706 93.9906V89.2852C114.692 89.1851 114.701 89.0831 114.734 88.9874C114.766 88.8916 114.82 88.8048 114.892 88.7339C114.965 88.663 115.052 88.61 115.148 88.5791C115.245 88.5481 115.347 88.5402 115.447 88.5559C115.776 88.5559 115.941 88.3912 115.941 88.0618V78.8863C115.95 78.0407 116.292 77.2329 116.894 76.6383C117.495 76.0436 118.307 75.7101 119.152 75.7102H125.646C125.746 75.6966 125.848 75.7064 125.945 75.7388C126.041 75.7713 126.128 75.8255 126.2 75.8972C126.271 75.9689 126.326 76.0562 126.358 76.1524C126.391 76.2485 126.4 76.3508 126.387 76.4513V88.65H126.881C126.981 88.6343 127.083 88.6423 127.179 88.6732C127.275 88.7041 127.363 88.7571 127.435 88.828C127.507 88.8989 127.562 88.9857 127.594 89.0815C127.626 89.1772 127.636 89.2792 127.622 89.3794V94.0847C127.635 94.1853 127.626 94.2876 127.593 94.3837C127.561 94.4798 127.507 94.5671 127.435 94.6388C127.363 94.7106 127.276 94.7648 127.18 94.7972C127.084 94.8296 126.981 94.8394 126.881 94.8258H124.034C123.934 94.8394 123.831 94.8296 123.735 94.7972C123.639 94.7648 123.552 94.7106 123.48 94.6388C123.408 94.5671 123.354 94.4798 123.322 94.3837C123.289 94.2876 123.279 94.1853 123.293 94.0847V93.5201C123.322 93.4469 123.331 93.3671 123.319 93.2892C123.307 93.2112 123.273 93.1382 123.222 93.0778C123.172 93.0173 123.105 92.9719 123.031 92.9462C122.956 92.9205 122.876 92.9156 122.799 92.9319ZM120.258 80.5567V88.65H122.058V80.5567C122.068 80.4896 122.062 80.421 122.04 80.3566C122.019 80.2921 121.983 80.2335 121.935 80.1855C121.887 80.1375 121.828 80.1014 121.764 80.0801C121.699 80.0587 121.631 80.0528 121.564 80.0627H120.752C120.685 80.0528 120.616 80.0587 120.552 80.0801C120.487 80.1014 120.429 80.1375 120.381 80.1855C120.333 80.2335 120.297 80.2921 120.275 80.3566C120.254 80.421 120.248 80.4896 120.258 80.5567Z" fill="white" stroke="black" stroke-width="0.5" stroke-miterlimit="10"/>
<path d="M138.515 91.9314C138.528 92.0319 138.519 92.1342 138.486 92.2303C138.454 92.3264 138.4 92.4138 138.328 92.4855C138.256 92.5572 138.169 92.6114 138.073 92.6439C137.977 92.6763 137.874 92.6861 137.774 92.6725H132.021C131.599 92.6791 131.179 92.5989 130.789 92.4371C130.398 92.2752 130.045 92.0351 129.751 91.7314C129.445 91.4391 129.204 91.0862 129.041 90.6953C128.879 90.3045 128.801 89.8841 128.81 89.4611V78.6975C128.81 77.8436 129.148 77.0243 129.749 76.4183C130.351 75.8123 131.168 75.4688 132.021 75.4625H137.774C137.874 75.449 137.977 75.4588 138.073 75.4912C138.169 75.5236 138.256 75.5778 138.328 75.6495C138.4 75.7213 138.454 75.8086 138.486 75.9047C138.519 76.0008 138.528 76.1031 138.515 76.2036V79.0504C138.528 79.1509 138.519 79.2532 138.486 79.3493C138.454 79.4455 138.4 79.5328 138.328 79.6045C138.256 79.6762 138.169 79.7304 138.073 79.7629C137.977 79.7953 137.874 79.8051 137.774 79.7915H133.621C133.554 79.7816 133.486 79.7876 133.421 79.8089C133.357 79.8302 133.298 79.8663 133.25 79.9143C133.202 79.9623 133.166 80.0209 133.145 80.0854C133.123 80.1498 133.117 80.2184 133.127 80.2856V81.4619C133.117 81.5291 133.123 81.5976 133.145 81.6621C133.166 81.7266 133.202 81.7851 133.25 81.8332C133.298 81.8812 133.357 81.9173 133.421 81.9386C133.486 81.9599 133.554 81.9659 133.621 81.956H137.774C137.874 81.9424 137.977 81.9522 138.073 81.9846C138.169 82.0171 138.256 82.0713 138.328 82.143C138.4 82.2147 138.454 82.302 138.486 82.3981C138.519 82.4943 138.528 82.5966 138.515 82.6971V85.5321C138.528 85.6326 138.519 85.7349 138.486 85.831C138.454 85.9271 138.4 86.0144 138.328 86.0862C138.256 86.1579 138.169 86.2121 138.073 86.2445C137.977 86.277 137.874 86.2868 137.774 86.2732H133.621C133.554 86.2633 133.486 86.2692 133.421 86.2906C133.357 86.3119 133.298 86.348 133.25 86.396C133.202 86.444 133.166 86.5026 133.145 86.567C133.123 86.6315 133.117 86.7001 133.127 86.7672V87.7907C133.117 87.8578 133.123 87.9264 133.145 87.9909C133.166 88.0553 133.202 88.1139 133.25 88.1619C133.298 88.2099 133.357 88.246 133.421 88.2674C133.486 88.2887 133.554 88.2946 133.621 88.2847H137.774C137.874 88.269 137.976 88.277 138.072 88.3079C138.168 88.3388 138.256 88.3918 138.328 88.4627C138.4 88.5336 138.455 88.6205 138.487 88.7162C138.519 88.8119 138.529 88.914 138.515 89.0141V91.9314Z" fill="white" stroke="black" stroke-width="0.5" stroke-miterlimit="10"/>
<path d="M150.149 85.1439C150.153 85.5663 150.072 85.9851 149.911 86.3753C149.749 86.7655 149.51 87.1189 149.208 87.4142C148.916 87.7217 148.564 87.9652 148.173 88.1292C147.782 88.2932 147.361 88.3743 146.938 88.3671H144.514C144.185 88.3671 144.02 88.52 144.02 88.8494V91.9314C144.034 92.0319 144.024 92.1342 143.992 92.2304C143.959 92.3265 143.905 92.4138 143.833 92.4855C143.761 92.5572 143.674 92.6114 143.578 92.6439C143.482 92.6763 143.38 92.6861 143.279 92.6725H140.444C140.344 92.6861 140.241 92.6763 140.145 92.6439C140.049 92.6114 139.962 92.5572 139.89 92.4855C139.818 92.4138 139.764 92.3265 139.732 92.2304C139.699 92.1342 139.689 92.0319 139.703 91.9314V76.2272C139.689 76.1267 139.699 76.0243 139.732 75.9282C139.764 75.8321 139.818 75.7448 139.89 75.6731C139.962 75.6014 140.049 75.5472 140.145 75.5147C140.241 75.4823 140.344 75.4725 140.444 75.4861H146.938C147.361 75.4789 147.782 75.5599 148.173 75.7239C148.564 75.888 148.916 76.1315 149.208 76.4389C149.509 76.7325 149.748 77.0839 149.909 77.472C150.071 77.8602 150.153 78.277 150.149 78.6975V85.1439ZM145.867 83.5441V80.3091C145.877 80.2419 145.871 80.1734 145.85 80.1089C145.828 80.0445 145.792 79.9859 145.744 79.9379C145.696 79.8899 145.638 79.8537 145.573 79.8324C145.509 79.8111 145.44 79.8051 145.373 79.815H144.55C144.482 79.8051 144.414 79.8111 144.349 79.8324C144.285 79.8537 144.226 79.8899 144.178 79.9379C144.13 79.9859 144.094 80.0445 144.073 80.1089C144.051 80.1734 144.046 80.2419 144.055 80.3091V83.5441C144.046 83.6112 144.051 83.6798 144.073 83.7442C144.094 83.8087 144.13 83.8673 144.178 83.9153C144.226 83.9633 144.285 83.9994 144.349 84.0208C144.414 84.0421 144.482 84.048 144.55 84.0381H145.373C145.44 84.048 145.509 84.0421 145.573 84.0208C145.638 83.9994 145.696 83.9633 145.744 83.9153C145.792 83.8673 145.828 83.8087 145.85 83.7442C145.871 83.6798 145.877 83.6112 145.867 83.5441Z" fill="white" stroke="black" stroke-width="0.5" stroke-miterlimit="10"/>
</g>
<defs>
<linearGradient id="paint0_linear" x1="162.254" y1="51.1239" x2="0.823448" y2="51.1239" gradientUnits="userSpaceOnUse">
<stop stop-color="#C4A006"/>
<stop offset="0.01" stop-color="#C4A106" stop-opacity="0.99"/>
<stop offset="0.5" stop-color="#E4CD0E" stop-opacity="0.46"/>
<stop offset="0.84" stop-color="#F7E813" stop-opacity="0.13"/>
<stop offset="1" stop-color="#FFF315" stop-opacity="0"/>
</linearGradient>
<linearGradient id="paint1_linear" x1="10.3871" y1="58.1238" x2="74.9215" y2="58.1238" gradientUnits="userSpaceOnUse">
<stop offset="0.15" stop-color="#FCDB50"/>
<stop offset="0.21" stop-color="#FCDA46"/>
<stop offset="0.46" stop-color="#FED61B"/>
<stop offset="0.59" stop-color="#FFD40B"/>
</linearGradient>
<linearGradient id="paint2_linear" x1="75.8744" y1="61.6293" x2="101.683" y2="61.6293" gradientUnits="userSpaceOnUse">
<stop stop-color="#FFD40B"/>
<stop offset="1" stop-color="#FCDB50"/>
</linearGradient>
<clipPath id="clip0">
<rect width="179.652" height="112" fill="white"/>
</clipPath>
</defs>
</svg>
