<svg width="24" height="24" viewBox="0 0 24 24" fill="none" xmlns="http://www.w3.org/2000/svg">
<g clip-path="url(#clip0)">
<path d="M20.4853 3.51471C18.2188 1.24823 15.2053 0 12 0C8.79474 0 5.78119 1.24823 3.51471 3.51471C1.24823 5.78119 0 8.79474 0 12C0 15.2053 1.24823 18.2188 3.51471 20.4853C5.78119 22.7518 8.79474 24 12 24C12.0965 24 12.1948 23.9989 12.2919 23.9965C12.6802 23.987 12.9873 23.6647 12.9778 23.2766C12.9684 22.8882 12.6475 22.5818 12.2578 22.5906C12.1721 22.5927 12.0853 22.5938 12 22.5938C6.15857 22.5938 1.40625 17.8414 1.40625 12C1.40625 6.15857 6.15857 1.40625 12 1.40625C17.8414 1.40625 22.5938 6.15857 22.5938 12C22.5938 14.1324 21.96 16.1918 20.7612 17.9555C20.5276 18.2996 20.2137 18.496 19.8023 18.5563C19.3907 18.6165 19.0338 18.5184 18.7112 18.2562L18.1542 17.8033C18.2208 17.7499 18.2864 17.6948 18.3506 17.6376C18.7639 17.2707 18.9695 16.765 18.9296 16.2136C18.8897 15.6623 18.6132 15.1915 18.1512 14.8879L15.9241 13.4244C15.2953 13.0111 14.4789 13.0472 13.8922 13.5139C13.5624 13.7763 13.1069 13.7505 12.809 13.4526L10.5474 11.1912C10.2495 10.8933 10.2237 10.4376 10.4861 10.1078C10.9528 9.5213 10.9889 8.70465 10.5756 8.07587L9.11206 5.84875C8.80847 5.38678 8.33771 5.11047 7.78638 5.07037C7.23486 5.03082 6.72931 5.23608 6.36237 5.64935C4.55255 7.68732 4.6452 10.7943 6.5733 12.7225L11.2775 17.4267C12.2807 18.4299 13.6029 18.9364 14.9279 18.9362C15.5836 18.9362 16.2394 18.811 16.858 18.5618L17.8239 19.3473C18.4514 19.8574 19.2059 20.0651 20.0061 19.9477C20.8063 19.8305 21.4697 19.4149 21.9243 18.7462C23.2822 16.7483 24 14.4155 24 12C24 8.79474 22.7518 5.78119 20.4853 3.51471ZM12.2719 16.4324L7.56775 11.7281C6.16498 10.3255 6.09741 8.06543 7.41376 6.58319C7.48224 6.5061 7.59375 6.47205 7.66827 6.47205C7.73438 6.47205 7.875 6.52679 7.93689 6.62109L9.40045 8.84821C9.48157 8.97162 9.47589 9.11884 9.38562 9.23218C8.68195 10.1166 8.75391 11.3862 9.55316 12.1855L11.8145 14.4468C12.6136 15.2461 13.8832 15.3181 14.7678 14.6144C14.8812 14.5241 15.0284 14.5184 15.1518 14.5995L17.3789 16.0631C17.5593 16.2435 17.5201 16.483 17.4168 16.5862C17.1901 16.8129 16.9166 16.9753 16.643 17.1161C16.6392 17.118 16.6351 17.1198 16.6313 17.1218C15.2157 17.8436 13.4443 17.6049 12.2719 16.4324Z" fill="#FCDB50"/>
<path d="M12.3554 4.22681C15.6768 4.3786 18.5354 6.62494 19.4685 9.8161C19.5582 10.123 19.8387 10.3222 20.1431 10.3222C20.2084 10.3222 20.2749 10.3131 20.3408 10.2936C20.7134 10.1847 20.9273 9.79431 20.8184 9.42151C19.7164 5.65338 16.3413 3.00128 12.4197 2.82202C12.0317 2.80445 11.7028 3.10437 11.6851 3.49237C11.6673 3.88037 11.9674 4.20923 12.3554 4.22681Z" fill="#FCDB50"/>
<path d="M12.2269 7.03635C14.348 7.13339 16.1732 8.56766 16.769 10.6056C16.8587 10.9123 17.1392 11.1115 17.4435 11.1115C17.5089 11.1115 17.5754 11.1024 17.6413 11.083C18.0139 10.974 18.2278 10.5837 18.1188 10.2108C17.3544 7.59628 15.0123 5.75607 12.2912 5.63175C11.9033 5.6138 11.5743 5.91391 11.5567 6.30191C11.539 6.68991 11.8391 7.01859 12.2269 7.03635Z" fill="#FCDB50"/>
</g>
<defs>
<clipPath id="clip0">
<rect width="24" height="24" fill="white"/>
</clipPath>
</defs>
</svg>
