<svg width="60" height="60" viewBox="0 0 60 60" fill="none" xmlns="http://www.w3.org/2000/svg">
<g clip-path="url(#clip0)">
<path d="M55.0522 59.1221H52.4985C52.1209 59.1221 51.8147 58.816 51.8147 58.4383V55.201H55.7358V58.4383C55.7359 58.816 55.4298 59.1221 55.0522 59.1221Z" fill="white"/>
<path d="M7.50145 59.1221H4.94775C4.57018 59.1221 4.26401 58.816 4.26401 58.4383V55.201H8.18508V58.4383C8.18508 58.816 7.87902 59.1221 7.50145 59.1221Z" fill="white"/>
<path d="M55.7359 55.2012V58.4386C55.7359 58.8166 55.4293 59.1221 55.0524 59.1221H53.1482C53.525 59.1221 53.8317 58.8166 53.8317 58.4386V55.2012H55.7359Z" fill="white"/>
<path d="M8.18496 55.2012V58.4386C8.18496 58.8166 7.87949 59.1221 7.50145 59.1221H5.59721C5.97408 59.1221 6.28072 58.8166 6.28072 58.4386V55.2012H8.18496Z" fill="white"/>
<path d="M58.6783 55.201H1.32175C1.08322 55.201 0.889755 55.0077 0.889755 54.769V52.2205C0.889755 51.982 1.08311 51.7885 1.32175 51.7885H58.6783C58.9168 51.7885 59.1103 51.9818 59.1103 52.2205V54.769C59.1102 55.0077 58.9168 55.201 58.6783 55.201Z" fill="white"/>
<path d="M59.1102 52.2202V54.7694C59.1102 55.0081 58.9171 55.2012 58.6783 55.2012H56.3375C56.5763 55.2012 56.7694 55.0081 56.7694 54.7694V52.2202C56.7694 51.9815 56.5763 51.7884 56.3375 51.7884H58.6783C58.9171 51.7884 59.1102 51.9815 59.1102 52.2202Z" fill="white"/>
<path d="M55.4549 51.7881H29.9999V26.3332H54.554C55.0516 26.3332 55.4549 26.7365 55.4549 27.234V51.7881Z" fill="#FEE45A"/>
<path d="M55.4545 27.2337V51.7886H53.1556V27.2337C53.1556 26.7371 52.7522 26.3336 52.2556 26.3336H54.5545C55.0511 26.3336 55.4545 26.7371 55.4545 27.2337Z" fill="#C4A106" fill-opacity="0.99"/>
<path d="M42.7275 26.3332H39.6886V33.0927C39.6886 33.4929 40.1119 33.7516 40.468 33.569L42.4832 32.536C42.6366 32.4575 42.8183 32.4575 42.9716 32.536L44.9868 33.569C45.3431 33.7516 45.7663 33.4929 45.7663 33.0927V26.3332H42.7275Z" fill="white"/>
<path d="M45.7668 26.3336V33.0924C45.7668 33.4925 45.3426 33.7522 44.9863 33.5695L43.4678 32.7913V26.3336H45.7668Z" fill="#AAAAAA"/>
<path d="M47.0151 47.5081H38.4397C38.1548 47.5081 37.9239 47.2772 37.9239 46.9923V43.3125C37.9239 43.0276 38.1548 42.7967 38.4397 42.7967H47.0151C47.3 42.7967 47.5309 43.0276 47.5309 43.3125V46.9923C47.5311 47.2772 47.3001 47.5081 47.0151 47.5081Z" fill="white"/>
<path d="M47.5313 43.3123V46.9918C47.5313 47.277 47.3003 47.508 47.0151 47.508H44.6714C44.9565 47.508 45.1876 47.277 45.1876 46.9918V43.3123C45.1876 43.0272 44.9565 42.7962 44.6714 42.7962H47.0151C47.3003 42.7963 47.5313 43.0274 47.5313 43.3123Z" fill="#AAAAAA"/>
<path d="M42.7275 26.3328H17.2725V1.77784C17.2725 1.28078 17.6755 0.877808 18.1725 0.877808H41.8266C42.3242 0.877808 42.7275 1.28113 42.7275 1.77866V26.3328Z" fill="#FEE45A"/>
<path d="M42.727 1.7783V26.3333H40.4281V1.7783C40.4281 1.2817 40.0247 0.878265 39.5281 0.878265H41.827C42.3236 0.878265 42.727 1.2817 42.727 1.7783Z" fill="#C4A106" fill-opacity="0.99"/>
<path d="M30 0.877808H26.9611V7.63733C26.9611 8.0376 27.3844 8.29626 27.7405 8.11368L29.7557 7.08068C29.9091 7.00215 30.0908 7.00215 30.2441 7.08068L32.2593 8.11368C32.6156 8.29626 33.0388 8.0376 33.0388 7.63733V0.877808H30Z" fill="white"/>
<path d="M33.0394 0.878265V7.63708C33.0394 8.03712 32.6153 8.29683 32.2589 8.11414L30.7404 7.33594V0.878265H33.0394Z" fill="#AAAAAA"/>
<path d="M34.2878 22.0528H25.7123C25.4274 22.0528 25.1965 21.8219 25.1965 21.537V17.8571C25.1965 17.5723 25.4274 17.3413 25.7123 17.3413H34.2878C34.5726 17.3413 34.8036 17.5723 34.8036 17.8571V21.537C34.8036 21.8219 34.5726 22.0528 34.2878 22.0528Z" fill="white"/>
<path d="M34.8038 17.857V21.5364C34.8038 21.8215 34.5728 22.0525 34.2876 22.0525H31.9439C32.229 22.0525 32.4601 21.8215 32.4601 21.5364V17.857C32.4601 17.5719 32.229 17.3409 31.9439 17.3409H34.2876C34.5728 17.3409 34.8038 17.572 34.8038 17.857Z" fill="#AAAAAA"/>
<path d="M30 51.7881H4.54501V27.234C4.54501 26.7365 4.94833 26.3332 5.44587 26.3332H30V51.7881Z" fill="#FEE45A"/>
<path d="M29.9997 26.3336V51.7886H27.7008V27.2337C27.7008 26.7371 27.2973 26.3336 26.8007 26.3336H29.9997Z" fill="#C4A106" fill-opacity="0.99"/>
<path d="M17.2725 26.3332H14.2336V33.0927C14.2336 33.4929 14.6569 33.7516 15.0131 33.569L17.0282 32.536C17.1816 32.4575 17.3633 32.4575 17.5166 32.536L19.5318 33.569C19.8881 33.7516 20.3113 33.4929 20.3113 33.0927V26.3332H17.2725Z" fill="white"/>
<path d="M20.3119 26.3336V33.0924C20.3119 33.4925 19.8878 33.7522 19.5314 33.5695L18.0129 32.7913V26.3336H20.3119Z" fill="#AAAAAA"/>
<path d="M21.5603 47.5081H12.9848C12.6999 47.5081 12.469 47.2772 12.469 46.9923V43.3125C12.469 43.0276 12.6999 42.7967 12.9848 42.7967H21.5603C21.8451 42.7967 22.0761 43.0276 22.0761 43.3125V46.9923C22.0761 47.2772 21.8451 47.5081 21.5603 47.5081Z" fill="white"/>
<path d="M22.0763 43.3123V46.9918C22.0763 47.277 21.8452 47.508 21.5601 47.508H19.2164C19.5015 47.508 19.7326 47.277 19.7326 46.9918V43.3123C19.7326 43.0272 19.5015 42.7962 19.2164 42.7962H21.5601C21.8452 42.7963 22.0763 43.0274 22.0763 43.3123Z" fill="#AAAAAA"/>
<path d="M34.2878 22.9306C35.0562 22.9306 35.6814 22.3053 35.6814 21.5369V17.8571C35.6814 17.0886 35.0562 16.4635 34.2878 16.4635H25.7123C24.9438 16.4635 24.3186 17.0886 24.3186 17.8571V21.5369C24.3186 22.3053 24.9438 22.9306 25.7123 22.9306H34.2878ZM26.0742 18.2191H33.9257V21.175H26.0742V18.2191Z" fill="black"/>
<path d="M38.4396 41.9189C37.6713 41.9189 37.0461 42.544 37.0461 43.3125V46.9923C37.0461 47.7607 37.6713 48.3859 38.4396 48.3859H47.0153C47.7836 48.3859 48.4089 47.7607 48.4089 46.9923V43.3125C48.4089 42.544 47.7836 41.9189 47.0153 41.9189H38.4396ZM46.6533 46.6303H38.8016V43.6745H46.6533V46.6303Z" fill="black"/>
<path d="M21.5603 41.9189H12.9848C12.2163 41.9189 11.5912 42.544 11.5912 43.3125V46.9923C11.5912 47.7607 12.2163 48.3859 12.9848 48.3859H21.5603C22.3286 48.3859 22.9539 47.7607 22.9539 46.9923V43.3125C22.9539 42.544 22.3286 41.9189 21.5603 41.9189ZM21.1983 46.6303H13.3468V43.6745H21.1983V46.6303Z" fill="black"/>
<path d="M58.6784 50.9108H56.3328V47.508C56.3328 47.0232 55.9399 46.6302 55.455 46.6302C54.9701 46.6302 54.5772 47.0232 54.5772 47.508V50.9103H30.8779V27.2111H38.8109V33.0928C38.8109 33.589 39.0637 34.0397 39.487 34.2985C39.9104 34.5573 40.427 34.5765 40.8686 34.3503L42.7276 33.3973L44.5866 34.3503C44.7913 34.4551 45.0119 34.5072 45.2319 34.5072C45.4868 34.5072 45.7409 34.4373 45.9681 34.2984C46.3914 34.0396 46.6443 33.5888 46.6443 33.0927V27.2109H54.5543C54.5669 27.2109 54.5772 27.2212 54.5772 27.234V43.5202C54.5772 44.005 54.9701 44.398 55.455 44.398C55.9399 44.398 56.3328 44.005 56.3328 43.5202V27.234C56.3328 26.2533 55.535 25.4553 54.5543 25.4553H43.6054V1.77784C43.6054 0.797509 42.8079 0 41.8276 0H18.1735C17.1928 0 16.3948 0.79786 16.3948 1.77865V6.17959C16.3948 6.66436 16.7879 7.05738 17.2726 7.05738C17.7574 7.05738 18.1504 6.66436 18.1504 6.17959V1.77865C18.1504 1.76601 18.1607 1.7556 18.1735 1.7556H26.0834V7.63743C26.0834 8.13368 26.3362 8.5844 26.7597 8.84318C26.9869 8.9821 27.2409 9.05198 27.4957 9.05198C27.7157 9.05198 27.9366 8.99978 28.1412 8.89491L30.0001 7.94197L31.859 8.89479C32.3007 9.12115 32.8172 9.10207 33.2405 8.84318C33.6641 8.5844 33.9169 8.13357 33.9169 7.63732V1.7556H41.8276C41.8399 1.7556 41.8498 1.76555 41.8498 1.77784V25.455H18.1504V10.1673C18.1504 9.68247 17.7574 9.28945 17.2726 9.28945C16.7879 9.28945 16.3948 9.68247 16.3948 10.1673V25.4555H5.44599C4.46532 25.4555 3.66734 26.2533 3.66734 27.2341V50.9108H1.32186C0.59961 50.9108 0.0120697 51.4983 0.0120697 52.2206V54.7691C0.0120697 55.4914 0.59961 56.0789 1.32186 56.0789H3.38645V58.4385C3.38645 59.2994 4.08693 60 4.94787 60H7.50157C8.36251 60 9.06311 59.2995 9.06311 58.4385V56.0789H50.9373V58.4385C50.9373 59.2994 51.6378 60 52.4988 60H55.0524C55.9133 60 56.6139 59.2995 56.6139 58.4385V56.0789H58.6785C59.4007 56.0789 59.9882 55.4914 59.9882 54.7691V52.2206C59.9881 51.4983 59.4005 50.9108 58.6784 50.9108ZM32.1613 7.07693L30.6447 6.29955C30.241 6.09274 29.7593 6.09274 29.3555 6.29955L27.839 7.07693V1.7556H32.1613V7.07693ZM40.5665 27.2111H44.8887V32.5324L43.3723 31.755C42.9687 31.5481 42.4866 31.548 42.083 31.755L40.5665 32.5324V27.2111ZM15.1115 27.2111H19.4337V32.5324L17.9171 31.755C17.5135 31.5481 17.0315 31.5481 16.6279 31.755L15.1114 32.5324V27.2111H15.1115ZM5.42294 27.234C5.42294 27.2214 5.43324 27.2109 5.44599 27.2109H13.3559V33.0927C13.3559 33.5889 13.6087 34.0396 14.032 34.2984C14.4555 34.5572 14.972 34.5766 15.4137 34.3501L17.2726 33.3972L19.1316 34.3501C19.3363 34.455 19.5569 34.5071 19.7769 34.5071C20.0319 34.5071 20.2858 34.4372 20.5131 34.2983C20.9366 34.0395 21.1894 33.5887 21.1894 33.0925V27.2108H29.1223V50.9101H5.42294V27.234ZM7.30751 58.2444H5.14204V56.0789H7.30751V58.2444ZM54.8582 58.2444H52.6928V56.0789H54.8582V58.2444ZM58.2325 54.3233H1.76767V52.6664H58.2325V54.3233Z" fill="black"/>
</g>
<defs>
<clipPath id="clip0">
<rect width="60" height="60" fill="white"/>
</clipPath>
</defs>
</svg>
