<svg width="120" height="120" viewBox="0 0 120 120" fill="none" xmlns="http://www.w3.org/2000/svg">
<path d="M60.0029 0C26.8606 0 0.00286865 26.8649 0.00286865 60C0.00286865 93.1389 26.864 120 60.0029 120C93.138 120 119.999 93.1389 119.999 60C119.999 26.8686 93.138 0 60.0029 0ZM60.0029 108.75C33.078 108.75 11.2531 86.9248 11.2531 60C11.2531 33.0752 33.0818 11.2502 60.0029 11.2502C86.924 11.2502 108.749 33.0752 108.749 60C108.749 86.9248 86.9244 108.75 60.0029 108.75ZM83.583 34.4775C81.0329 32.9552 77.7742 33.8588 76.308 36.5025L56.1892 72.6413L44.9843 59.0024C42.9556 56.6662 40.2595 55.4551 37.7131 56.9775C35.1629 58.5036 34.1092 62.1751 35.7595 64.5302L51.3519 83.5089C52.5181 85.0237 53.8492 85.9315 55.2407 86.1903L55.252 86.213L55.3947 86.2205C55.7097 86.2692 60.4199 87.1392 62.4486 83.5093L85.5413 42.0307C87.0066 39.3824 86.1332 36.0037 83.583 34.4775Z" fill="url(#paint0_linear)"/>
<defs>
<linearGradient id="paint0_linear" x1="60.001" y1="0" x2="60.001" y2="120" gradientUnits="userSpaceOnUse">
<stop stop-color="#47BB3E"/>
<stop offset="1" stop-color="#187810"/>
</linearGradient>
</defs>
</svg>
