<svg width="30" height="30" viewBox="0 0 30 30" fill="none" xmlns="http://www.w3.org/2000/svg">
<path d="M16 8C15.448 8 15 8.448 15 9C15 9.552 15.448 10 16 10C18.206 10 20 11.794 20 14C20 14.552 20.448 15 21 15C21.552 15 22 14.552 22 14C22 10.692 19.308 8 16 8Z" fill="#C4A106"/>
<path d="M16 4C15.448 4 15 4.448 15 5C15 5.552 15.448 6 16 6C20.412 6 24 9.588 24 14C24 14.552 24.448 15 25 15C25.552 15 26 14.552 26 14C26 8.486 21.514 4 16 4Z" fill="#C4A106"/>
<path d="M16 0C15.448 0 15 0.448 15 1C15 1.552 15.448 2 16 2C22.618 2 28 7.382 28 14C28 14.552 28.448 15 29 15C29.552 15 30 14.552 30 14C30 6.28 23.718 0 16 0Z" fill="#C4A106"/>
<path d="M27 22C24.096 22 21.33 21.368 18.78 20.122C18.54 20.002 18.264 19.988 18.014 20.076C17.762 20.164 17.556 20.348 17.44 20.586L15.868 23.84C11.8 21.57 8.432 18.204 6.164 14.136L9.416 12.56C9.656 12.444 9.838 12.238 9.926 11.986C10.012 11.736 9.996 11.46 9.878 11.22C8.632 8.67 8 5.904 8 3C8 2.448 7.552 2 7 2H1C0.448 2 0 2.448 0 3C0 17.888 12.112 30 27 30C27.552 30 28 29.552 28 29V23C28 22.448 27.552 22 27 22Z" fill="white"/>
</svg>
