<svg width="60" height="60" viewBox="0 0 60 60" fill="none" xmlns="http://www.w3.org/2000/svg">
<path d="M53 45.5172H59V34.5171L50 20.5171H39V45.5172H43" fill="#FCDB50"/>
<path d="M9 45.5172H0.999962V13.5171H39V45.5172H19" fill="#FEE45A"/>
<path d="M6.99996 40.5171H0.999962V42.5172H6.99996V40.5171Z" fill="#FEE45A"/>
<path d="M39 40.5171H21V42.5172H39V40.5171Z" fill="#FEE45A"/>
<path d="M58.9999 40.5171H55V42.5172H58.9999V40.5171Z" fill="#DBDBDB"/>
<path d="M39 16.5171H3.99997V18.5172H39V16.5171Z" fill="#FEE45A"/>
<path d="M14 50.5172C16.7615 50.5172 19.0001 48.2786 19.0001 45.5172C19.0001 42.7557 16.7615 40.5171 14 40.5171C11.2386 40.5171 9 42.7557 9 45.5172C9 48.2786 11.2386 50.5172 14 50.5172Z" fill="white"/>
<path d="M48 50.5172C50.7615 50.5172 53 48.2786 53 45.5172C53 42.7557 50.7615 40.5171 48 40.5171C45.2386 40.5171 43 42.7557 43 45.5172C43 48.2786 45.2386 50.5172 48 50.5172Z" fill="white"/>
<path d="M15 44.5171H13V46.5171H15V44.5171Z" fill="#DBDBDB"/>
<path d="M49.0001 44.5171H47V46.5171H49.0001V44.5171Z" fill="#DBDBDB"/>
<path d="M18 8.51706H3.99997V10.5171H18V8.51706Z" fill="#DBDBDB"/>
<path d="M2.00004 8.51706H0V10.5171H2.00004V8.51706Z" fill="#DBDBDB"/>
<path d="M52.57 24.5172H43V33.5172H58.36L52.57 24.5172Z" fill="white"/>
<path d="M41 20.5171H39V45.517H41V20.5171Z" fill="#FCDB50"/>
<path d="M58.36 33.5171L52.93 25.0671C50.261 28.2341 46.8499 30.6901 43 32.2171V33.517H58.36V33.5171Z" fill="white"/>
<path d="M50.84 19.9771C50.6561 19.691 50.34 19.518 50 19.5171H40.0001V13.5171C40.0001 12.9652 39.5521 12.5172 39.0001 12.5172H0.999961C0.448008 12.5172 0 12.9652 0 13.5171V45.5171C0 46.0691 0.448008 46.5171 0.999961 46.5171H8.08992C8.66191 49.7811 11.7709 51.9632 15.0349 51.3921C17.5239 50.956 19.4739 49.0071 19.9099 46.5171H42.0899C42.6619 49.7811 45.7709 51.9632 49.0349 51.3921C51.5238 50.956 53.4738 49.0071 53.9099 46.5171H58.9999C59.5519 46.5171 59.9999 46.0691 59.9999 45.5171V34.5171C59.9999 34.3251 59.9439 34.1381 59.8399 33.9771L50.84 19.9771ZM52 25.5171L56.53 32.5171H44V25.5171H52ZM14 49.5171C11.7911 49.5171 10.0001 47.7261 10.0001 45.5171C10.0001 43.3082 11.7911 41.5172 14 41.5172C16.209 41.5172 18 43.3082 18 45.5171C18 47.7261 16.209 49.5171 14 49.5171ZM14 39.5171C11.074 39.5202 8.57801 41.6321 8.09004 44.5172H2.00004V42.5171H7.00008V40.5171H2.00004V14.5171H38V16.5171H3.99996V18.5171H37.9999V40.5171H21V42.5171H38V44.5172H19.91C19.422 41.6331 16.926 39.5201 14 39.5171ZM48 49.5171C45.791 49.5171 44 47.7261 44 45.5171C44 43.3082 45.791 41.5172 48 41.5172C50.209 41.5172 52 43.3082 52 45.5171C52 47.7261 50.209 49.5171 48 49.5171ZM53.91 44.5171C53.338 41.253 50.229 39.071 46.965 39.6421C44.4761 40.0781 42.5261 42.0271 42.09 44.5171H40V21.5171H49.45L50.74 23.5172H43C42.448 23.5172 42 23.9652 42 24.5171V33.5171C42 34.0691 42.448 34.5171 43 34.5171H57.81L58 34.8071V40.5171H55V42.5171H58V44.5172H53.91V44.5171Z" fill="black"/>
<path d="M15 44.5171H13V46.5171H15V44.5171Z" fill="black"/>
<path d="M49.0001 44.5171H47V46.5171H49.0001V44.5171Z" fill="black"/>
<path d="M18 8.51706H3.99997V10.5171H18V8.51706Z" fill="black"/>
<path d="M2.00004 8.51706H0V10.5171H2.00004V8.51706Z" fill="black"/>
</svg>
