<svg width="30" height="30" viewBox="0 0 30 30" fill="none" xmlns="http://www.w3.org/2000/svg">
<path d="M2 29.5L3.8 22.25C2.64998 20 2 17.5 2 14.9C2 7.00003 7.85 0.500046 14.95 0.500046C22.1 0.500046 28 7.00003 28 14.9C28 22.8001 22.1 29.5 14.95 29.5C12.75 29.5 10.55 28.7 8.64998 27.5L2 29.5Z" fill="#0FAC02"/>
<path d="M2.09996 29.05L3.79994 22.2C2.64992 20 1.99994 17.5 1.99994 14.9C1.99994 6.99997 7.84994 0.499985 14.9499 0.499985C6.99992 0.499985 0.499939 6.99997 0.499939 14.9C0.499939 17.5 1.19996 20 2.49992 22.25L0.499939 29.5L2.09996 29.05Z" fill="white"/>
<path d="M15 0.499985C22.1 0.549965 28 6.99997 28 14.9C28 22.85 22.1 29.45 15 29.5C22.95 29.45 29.5 22.85 29.5 14.95C29.5 7.00002 22.95 0.550024 15 0.499985Z" fill="#14FF00"/>
<path d="M8.65001 27.5L8.20001 27.65C10.3 28.75 12.6 29.5 15 29.5C12.75 29.5 10.55 28.7 8.65001 27.5Z" fill="#0FAC02"/>
<path d="M8.29998 24.9L8.74998 25.15C10.6 26.3 12.75 27 13.5 27C20.05 27 25.5 21.55 25.5 14.9C25.5 8.24993 20.6 2.99999 14 2.99999C8.74998 2.99999 3 8.29997 3 14.9C3 17.2 3.64998 19.45 4.84998 21.35L5.14998 21.8L3.99996 26L8.29998 24.9Z" fill="#0FAC02"/>
<path d="M14.95 2.99999C14.8 2.99999 14.65 2.99999 14.45 2.99999C20.85 3.25001 25.5 8.50001 25.5 14.9C25.5 21.25 20.5 26.55 14.25 26.95C14.5 26.95 14.75 26.9999 14.95 26.9999C21.55 26.9999 27 21.55 27 14.8999C27 8.24988 21.55 2.99999 14.95 2.99999Z" fill="#14FF00"/>
<path d="M11.1 8.20002L10.15 8.15004C9.85003 8.15004 9.55003 8.25006 9.35005 8.45004C8.90005 8.85006 8.15005 9.60006 7.95007 10.6C7.60009 12.1 8.15005 13.9 9.45007 15.7C10.7501 17.5 13.25 20.4 17.6501 21.65C19.0501 22.0501 20.1501 21.8 21.0501 21.25C21.7501 20.8 22.2001 20.1 22.3501 19.35L22.5001 18.65C22.5501 18.45 22.4501 18.2 22.2501 18.1L19.1001 16.6499C18.9001 16.5499 18.6501 16.6 18.5001 16.7999L17.25 18.4C17.15 18.5 17 18.55 16.85 18.5C16 18.2 13.15 17 11.6 14C11.55 13.85 11.55 13.7 11.65 13.6L12.85 12.25C12.95 12.1 13 11.9 12.95 11.75L11.5 8.50002C11.45 8.35002 11.3 8.20002 11.1 8.20002Z" fill="white"/>
<path d="M0.49998 30C0.34998 30 0.249961 29.95 0.15 29.85C0 29.7 0 29.55 0 29.35L1.99998 22.3C0.700019 20 0 17.5 0 14.9C0 11.6 1.05 8.44998 3.10002 5.79996C3.25002 5.59998 3.6 5.54994 3.80004 5.69994C4.00002 5.84994 4.05006 6.19992 3.90006 6.39996C2.00004 8.89998 1.00008 11.8499 1.00008 14.9C1.00008 17.35 1.7001 19.8 2.95008 21.95C3.00006 22.1 3.0501 22.25 3.00006 22.35L1.2 28.8L7.8 27C7.95 26.95 8.05002 27 8.14998 27.05C10.4 28.3 12.75 29 14.95 29C22.55 29 29 22.55 29 14.9C29 7.24998 22.7 1.00002 14.95 1.00002C12 1.00002 9.20004 1.90002 6.80004 3.65004C6.60006 3.80004 6.25002 3.75006 6.10002 3.55002C5.95002 3.3 6 3 6.20004 2.85C8.74998 1.00002 11.8 0 14.95 0C23.25 0 30 6.70002 30 14.9C30 23.0999 23.1 30 14.95 30C12.65 30 10.2 29.3 7.85004 28.05L0.64998 30C0.6 30 0.55002 30 0.49998 30Z" fill="black"/>
<path d="M5.25002 4.65C5.25002 4.35 5.05004 4.15002 4.75004 4.15002C4.45004 4.15002 4.25006 4.35 4.25006 4.65C4.25006 4.95 4.45004 5.14998 4.75004 5.14998C5.05004 5.14998 5.25002 4.90002 5.25002 4.65Z" fill="black"/>
<path d="M14.95 27.5C12.75 27.5 10.5 26.85 8.45002 25.6L8.2 25.45L3.29998 26.7L4.64998 21.95L4.45 21.7C3.20002 19.6499 2.5 17.35 2.5 14.9C2.5 8.04995 8.09998 2.49995 14.95 2.49995C21.85 2.49995 27.5 8.04995 27.5 14.9C27.5 21.85 21.85 27.5 14.95 27.5ZM8.35 24.35L8.95 24.75C10.85 25.9 12.9 26.55 14.9 26.55C21.3 26.5 26.5 21.3 26.5 14.9C26.5 8.64995 21.3 3.49997 14.95 3.49997C8.65 3.49997 3.50002 8.64995 3.50002 14.9C3.50002 17.1 4.10002 19.25 5.30002 21.1L5.69998 21.75L4.69996 25.25L8.35 24.35Z" fill="black"/>
<path d="M18.95 22.35C18.5 22.35 18 22.3 17.5 22.15C12.5 20.75 9.89996 17.2 9.05 16C7.65002 14.1 7.1 12.15 7.44998 10.5C7.7 9.34998 8.54996 8.50002 8.99996 8.1C9.29996 7.8 9.74996 7.69998 10.15 7.69998L11.1 7.74996C11.5 7.74996 11.8 7.99998 11.95 8.34996L13.3 11.5499C13.45 11.8999 13.4 12.2999 13.15 12.5999L12.05 13.9C13.5 16.6 16 17.6999 16.9 18.05L18.1 16.5C18.4 16.15 18.85 16 19.3 16.2L22.45 17.65C22.85 17.85 23.1 18.3 23 18.75L22.85 19.45C22.65 20.35 22.1 21.2 21.3 21.7C20.6 22.1 19.8 22.35 18.95 22.35ZM10.1 8.65002C9.95 8.65002 9.8 8.7 9.69998 8.80002C9.29996 9.15 8.64998 9.80004 8.45 10.7C8.15 12.05 8.64998 13.75 9.84998 15.4C10.65 16.5 13.1 19.85 17.75 21.15C18.85 21.45 19.85 21.35 20.7 20.8C21.25 20.45 21.65 19.85 21.8 19.2L22 18.5L18.85 17.05L17.65 18.65C17.4 18.95 17.05 19.05 16.7 18.95C15.8 18.65 12.8 17.4 11.15 14.2C11 13.9 11.05 13.4999 11.25 13.25L12.45 11.9L11.1 8.74998L10.1 8.65002Z" fill="black"/>
<path d="M18.95 22.35C18.5 22.35 18 22.3 17.5 22.15C12.5 20.75 9.89996 17.2 9.05 16C7.65002 14.1 7.1 12.15 7.44998 10.5C7.7 9.34998 8.54996 8.50002 8.99996 8.1C9.29996 7.8 9.74996 7.69998 10.15 7.69998L11.1 7.74996C11.5 7.74996 11.8 7.99998 11.95 8.34996L13.3 11.5499C13.45 11.8999 13.4 12.2999 13.15 12.5999L12.05 13.9C13.5 16.6 16 17.6999 16.9 18.05L18.1 16.5C18.4 16.15 18.85 16 19.3 16.2L22.45 17.65C22.85 17.85 23.1 18.3 23 18.75L22.85 19.45C22.65 20.35 22.1 21.2 21.3 21.7C20.6 22.1 19.8 22.35 18.95 22.35ZM10.1 8.65002C9.95 8.65002 9.8 8.7 9.69998 8.80002C9.29996 9.15 8.64998 9.80004 8.45 10.7C8.15 12.05 8.64998 13.75 9.84998 15.4C10.65 16.5 13.1 19.85 17.75 21.15C18.85 21.45 19.85 21.35 20.7 20.8C21.25 20.45 21.65 19.85 21.8 19.2L22 18.5L18.85 17.05L17.65 18.65C17.4 18.95 17.05 19.05 16.7 18.95C15.8 18.65 12.8 17.4 11.15 14.2C11 13.9 11.05 13.4999 11.25 13.25L12.45 11.9L11.1 8.74998L10.1 8.65002Z" fill="black"/>
</svg>
